<?xml version="1.0" encoding="UTF-8"?>
<svg id="Calque_1" data-name="Calque 1" xmlns="http://www.w3.org/2000/svg" viewBox="0 0 720.79 826.83">
  <defs>
    <style>
      .cls-1 {
        fill: #fdf5ee;
      }
    </style>
  </defs>
  <path class="cls-1" d="M500.34,227.01c-14.3,47.45-17.87,88.16-18.75,106.27v373.34c0,2.7-.1,5.41-.29,8.07-4.14,62.44-56.09,111.78-119.56,111.78s-119.85-53.65-119.85-119.85v-122.65H2.2v122.65s0,54.07,21.26,120.21h677.55c.42-1.32.82-2.63,1.21-3.93,13.48-44.73,17.42-83.45,18.57-102.91V0c-136.5,38.42-195.2,143.22-220.45,227.01Z"/>
  <path class="cls-1" d="M119.64,468.05C53.55,468.05,0,414.49,0,348.41s53.55-119.64,119.64-119.64,119.64,53.58,119.64,119.64-53.58,119.64-119.64,119.64Z"/>
</svg>