<?xml version="1.0" encoding="UTF-8"?>
<svg id="Calque_1" data-name="Calque 1" xmlns="http://www.w3.org/2000/svg" viewBox="0 0 2068.19 35.77">
  <defs>
    <style>
      .cls-1 {
        fill: #fcf4ed;
      }
    </style>
  </defs>
  <path class="cls-1" d="M1551.64,24.7v10.58c-1.12.32-2.4.5-3.87.5-11.74-.04-11.74-11.87-11.74-11.87v-.99c-.06.28-.09.52-.1.68,0,.12,0,.65,0,.65-.03.6-.15,1.95-.61,3.52-1.03,3.48-3.76,8.04-11.04,8.02-11.74-.04-11.74-11.87-11.74-11.87v-.99c-.06.28-.09.52-.1.68-.01.12-.01.65-.01.65-.03.6-.15,1.95-.61,3.52-1.03,3.48-3.77,8.04-11.04,8.02-11.74-.04-11.74-11.87-11.74-11.87v-.99c-.06.28-.09.52-.1.68,0,.12,0,.65,0,.65-.03.6-.15,1.95-.61,3.52-1.03,3.48-3.76,8.04-11.04,8.02-11.74-.04-11.74-11.87-11.74-11.87v-.99c-.06.28-.09.52-.1.68-.01.12-.01.65-.01.65-.03.6-.14,1.95-.61,3.52-1.03,3.48-3.77,8.04-11.04,8.02-10.16-.03-11.53-8.9-11.71-11.28v-1.65l-.17,1.86c-.06.7-.21,1.81-.58,3.06-1.03,3.48-3.77,8.04-11.04,8.02-11.74-.04-11.74-11.87-11.74-11.87v-.99c-.06.28-.09.52-.1.68-.01.12-.01.65-.01.65-.03.6-.14,1.95-.61,3.52-1.03,3.48-3.77,8.04-11.04,8.02-11.74-.04-11.74-11.87-11.74-11.87v-.99c-.06.28-.09.52-.1.68-.01.12-.01.65-.01.65-.03.6-.15,1.95-.61,3.52-1.03,3.48-3.76,8.04-11.04,8.02-11.74-.04-11.74-11.87-11.74-11.87v-.99c-.06.28-.09.52-.1.68-.01.12-.01.65-.01.65-.03.6-.15,1.95-.61,3.52-1.03,3.48-3.77,8.04-11.04,8.02-11.74-.04-11.74-11.87-11.74-11.87v-.99c-.06.28-.09.52-.1.68,0,.12,0,.65,0,.65-.03.6-.15,1.95-.61,3.52-.83,2.8-2.77,6.31-7.3,7.56V11.6c0,.17,0,.27,0,.27v12.96c.05-.21.08-.43.1-.66,0-.09,0-.18,0-.27v-12.37c.03-.6.15-1.95.61-3.52,1.03-3.48,3.76-8.04,11.04-8.02,11.74.04,11.74,11.87,11.74,11.87v12.96c.05-.21.08-.43.1-.66,0-.09.01-.18.01-.27v-12.37c.03-.6.15-1.95.61-3.52,1.03-3.48,3.77-8.04,11.04-8.02,11.74.04,11.74,11.87,11.74,11.87v12.96c.05-.21.08-.43.1-.66,0-.09.01-.18.01-.27v-12.37c.03-.6.15-1.95.61-3.52,1.03-3.48,3.77-8.04,11.04-8.02,11.74.04,11.74,11.87,11.74,11.87v12.96c.05-.21.08-.43.1-.66,0-.09.01-.18.01-.27v-12.37c.03-.6.14-1.95.61-3.52,1.03-3.48,3.77-8.04,11.04-8.02,11.74.04,11.74,11.87,11.74,11.87v12.83l.11-1.86v-11.3c.03-.6.15-1.95.61-3.52,1.03-3.48,3.77-8.04,11.04-8.02,11.74.04,11.74,11.87,11.74,11.87v12.96c.05-.21.08-.43.1-.66,0-.09,0-.18,0-.27v-12.37c.03-.6.15-1.95.61-3.52,1.03-3.48,3.77-8.04,11.04-8.02,11.74.04,11.74,11.87,11.74,11.87v12.96c.05-.21.08-.43.1-.66,0-.09.01-.18.01-.27v-12.37c.03-.6.15-1.95.61-3.52,1.03-3.48,3.76-8.04,11.04-8.02,11.74.04,11.74,11.87,11.74,11.87v12.96c.05-.21.08-.43.1-.66,0-.09.01-.18.01-.27v-12.37c.03-.6.14-1.95.61-3.52,1.03-3.48,3.77-8.04,11.04-8.02,11.74.04,11.74,11.87,11.74,11.87v12.96c.05-.21.08-.43.1-.66,0-.09.01-.18.01-.27v-12.37c.03-.6.15-1.95.61-3.52,1.03-3.48,3.77-8.04,11.04-8.02,11.74.04,11.74,11.87,11.74,11.87v12.83h.11Z"/>
  <path class="cls-1" d="M1551.64,24.7v10.58c-1.12.32-2.4.5-3.87.5-11.74-.04-11.74-11.87-11.74-11.87v-.99c-.06.28-.09.52-.1.68,0,.12,0,.65,0,.65-.03.6-.15,1.95-.61,3.52-1.03,3.48-3.76,8.04-11.04,8.02-11.74-.04-11.74-11.87-11.74-11.87v-.99c-.06.28-.09.52-.1.68-.01.12-.01.65-.01.65-.03.6-.15,1.95-.61,3.52-1.03,3.48-3.77,8.04-11.04,8.02-11.74-.04-11.74-11.87-11.74-11.87v-.99c-.06.28-.09.52-.1.68,0,.12,0,.65,0,.65-.03.6-.15,1.95-.61,3.52-1.03,3.48-3.76,8.04-11.04,8.02-11.74-.04-11.74-11.87-11.74-11.87v-.99c-.06.28-.09.52-.1.68-.01.12-.01.65-.01.65-.03.6-.14,1.95-.61,3.52-1.03,3.48-3.77,8.04-11.04,8.02-10.16-.03-11.53-8.9-11.71-11.28v-1.65l-.17,1.86c-.06.7-.21,1.81-.58,3.06-1.03,3.48-3.77,8.04-11.04,8.02-11.74-.04-11.74-11.87-11.74-11.87v-.99c-.06.28-.09.52-.1.68-.01.12-.01.65-.01.65-.03.6-.14,1.95-.61,3.52-1.03,3.48-3.77,8.04-11.04,8.02-11.74-.04-11.74-11.87-11.74-11.87v-.99c-.06.28-.09.52-.1.68-.01.12-.01.65-.01.65-.03.6-.15,1.95-.61,3.52-1.03,3.48-3.76,8.04-11.04,8.02-11.74-.04-11.74-11.87-11.74-11.87v-.99c-.06.28-.09.52-.1.68-.01.12-.01.65-.01.65-.03.6-.15,1.95-.61,3.52-1.03,3.48-3.77,8.04-11.04,8.02-11.74-.04-11.74-11.87-11.74-11.87v-.99c-.06.28-.09.52-.1.68,0,.12,0,.65,0,.65-.03.6-.15,1.95-.61,3.52-.83,2.8-2.77,6.31-7.3,7.56V11.6c0,.17,0,.27,0,.27v12.96c.05-.21.08-.43.1-.66,0-.09,0-.18,0-.27v-12.37c.03-.6.15-1.95.61-3.52,1.03-3.48,3.76-8.04,11.04-8.02,11.74.04,11.74,11.87,11.74,11.87v12.96c.05-.21.08-.43.1-.66,0-.09.01-.18.01-.27v-12.37c.03-.6.15-1.95.61-3.52,1.03-3.48,3.77-8.04,11.04-8.02,11.74.04,11.74,11.87,11.74,11.87v12.96c.05-.21.08-.43.1-.66,0-.09.01-.18.01-.27v-12.37c.03-.6.15-1.95.61-3.52,1.03-3.48,3.77-8.04,11.04-8.02,11.74.04,11.74,11.87,11.74,11.87v12.96c.05-.21.08-.43.1-.66,0-.09.01-.18.01-.27v-12.37c.03-.6.14-1.95.61-3.52,1.03-3.48,3.77-8.04,11.04-8.02,11.74.04,11.74,11.87,11.74,11.87v12.83l.11-1.86v-11.3c.03-.6.15-1.95.61-3.52,1.03-3.48,3.77-8.04,11.04-8.02,11.74.04,11.74,11.87,11.74,11.87v12.96c.05-.21.08-.43.1-.66,0-.09,0-.18,0-.27v-12.37c.03-.6.15-1.95.61-3.52,1.03-3.48,3.77-8.04,11.04-8.02,11.74.04,11.74,11.87,11.74,11.87v12.96c.05-.21.08-.43.1-.66,0-.09.01-.18.01-.27v-12.37c.03-.6.15-1.95.61-3.52,1.03-3.48,3.76-8.04,11.04-8.02,11.74.04,11.74,11.87,11.74,11.87v12.96c.05-.21.08-.43.1-.66,0-.09.01-.18.01-.27v-12.37c.03-.6.14-1.95.61-3.52,1.03-3.48,3.77-8.04,11.04-8.02,11.74.04,11.74,11.87,11.74,11.87v12.96c.05-.21.08-.43.1-.66,0-.09.01-.18.01-.27v-12.37c.03-.6.15-1.95.61-3.52,1.03-3.48,3.77-8.04,11.04-8.02,11.74.04,11.74,11.87,11.74,11.87v12.83h.11Z"/>
  <path class="cls-1" d="M1715.86,35.28c-1.12.32-1.83.5-3.29.5-11.74-.04-11.74-11.87-11.74-11.87v-.99c-.06.28-.09.52-.1.68-.01.12-.01.65-.01.65-.03.6-.15,1.95-.61,3.52-1.03,3.48-3.77,8.04-11.04,8.02-11.74-.04-11.74-11.87-11.74-11.87v-.99c-.06.28-.09.52-.1.68-.01.12-.01.65-.01.65-.03.6-.15,1.95-.61,3.52-1.03,3.48-3.77,8.04-11.04,8.02-11.74-.04-11.74-11.87-11.74-11.87v-.99c-.06.28-.09.52-.1.68-.01.12-.01.65-.01.65-.03.6-.15,1.95-.61,3.52-1.03,3.48-3.77,8.04-11.04,8.02-11.74-.04-11.74-11.87-11.74-11.87v-.99c-.06.28-.09.52-.1.68,0,.12,0,.65,0,.65-.03.6-.14,1.95-.61,3.52-1.03,3.48-3.77,8.04-11.04,8.02-10.16-.03-11.53-8.9-11.71-11.28v-1.65l-.17,1.86c-.06.7-.21,1.81-.58,3.06-1.03,3.48-3.77,8.04-11.04,8.02-11.74-.04-11.74-11.87-11.74-11.87v-.99c-.06.28-.09.52-.1.68-.01.12-.01.65-.01.65-.03.6-.14,1.95-.61,3.52-1.03,3.48-3.77,8.04-11.04,8.02-11.74-.04-11.74-11.87-11.74-11.87v-.99c-.06.28-.09.52-.1.68-.01.12-.01.65-.01.65-.03.6-.15,1.95-.61,3.52-1.03,3.48-3.76,8.04-11.04,8.02-11.74-.04-11.74-11.87-11.74-11.87v-.99c-.06.28-.09.52-.1.68-.01.12-.01.65-.01.65-.03.6-.15,1.95-.61,3.52-1.03,3.48-3.77,8.04-11.04,8.02-11.74-.04-11.74-11.87-11.74-11.87v-.99c-.06.28-.09.52-.1.68-.01.12-.01.65-.01.65-.03.6-.14,1.95-.61,3.52-.83,2.8-2.77,6.31-7.3,7.56V11.6c0,.17,0,.27,0,.27v12.96c.05-.21.08-.43.1-.66,0-.09,0-.18,0-.27v-12.37c.03-.6.15-1.95.61-3.52,1.03-3.48,3.76-8.04,11.04-8.02,11.74.04,11.74,11.87,11.74,11.87v12.96c.05-.21.08-.43.1-.66,0-.09.01-.18.01-.27v-12.37c.03-.6.15-1.95.61-3.52,1.03-3.48,3.77-8.04,11.04-8.02,11.74.04,11.74,11.87,11.74,11.87v12.96c.05-.21.08-.43.1-.66,0-.09.01-.18.01-.27v-12.37c.03-.6.15-1.95.61-3.52,1.03-3.48,3.77-8.04,11.04-8.02,11.74.04,11.74,11.87,11.74,11.87v12.96c.05-.21.08-.43.1-.66,0-.09.01-.18.01-.27v-12.37c.03-.6.14-1.95.61-3.52,1.03-3.48,3.77-8.04,11.04-8.02,11.74.04,11.74,11.87,11.74,11.87v12.83l.11-1.86v-11.3c.03-.6.15-1.95.61-3.52,1.03-3.48,3.77-8.04,11.04-8.02,11.74.04,11.74,11.87,11.74,11.87v12.96c.05-.21.08-.43.1-.66,0-.09.01-.18.01-.27v-12.37c.03-.6.14-1.95.61-3.52,1.03-3.48,3.77-8.04,11.04-8.02,11.74.04,11.74,11.87,11.74,11.87v12.96c.05-.21.08-.43.1-.66,0-.09,0-.18,0-.27v-12.37c.03-.6.15-1.95.61-3.52,1.03-3.48,3.76-8.04,11.04-8.02,11.74.04,11.74,11.87,11.74,11.87v12.96c.05-.21.08-.43.1-.66,0-.09.01-.18.01-.27v-12.37c.03-.6.15-1.95.61-3.52,1.03-3.48,3.77-8.04,11.04-8.02,11.74.04,11.74,11.87,11.74,11.87v12.96c.05-.21.08-.43.1-.66,0-.09.01-.18.01-.27v-12.37c.03-.6.15-1.95.61-3.52,1.03-3.48,3.77-8.04,11.04-8.02,11.74.04,11.74,11.87,11.74,11.87l-.46,23.41Z"/>
  <path class="cls-1" d="M1715.86,35.28c-1.12.32-1.83.5-3.29.5-11.74-.04-11.74-11.87-11.74-11.87v-.99c-.06.28-.09.52-.1.68-.01.12-.01.65-.01.65-.03.6-.15,1.95-.61,3.52-1.03,3.48-3.77,8.04-11.04,8.02-11.74-.04-11.74-11.87-11.74-11.87v-.99c-.06.28-.09.52-.1.68-.01.12-.01.65-.01.65-.03.6-.15,1.95-.61,3.52-1.03,3.48-3.77,8.04-11.04,8.02-11.74-.04-11.74-11.87-11.74-11.87v-.99c-.06.28-.09.52-.1.68-.01.12-.01.65-.01.65-.03.6-.15,1.95-.61,3.52-1.03,3.48-3.77,8.04-11.04,8.02-11.74-.04-11.74-11.87-11.74-11.87v-.99c-.06.28-.09.52-.1.68,0,.12,0,.65,0,.65-.03.6-.14,1.95-.61,3.52-1.03,3.48-3.77,8.04-11.04,8.02-10.16-.03-11.53-8.9-11.71-11.28v-1.65l-.17,1.86c-.06.7-.21,1.81-.58,3.06-1.03,3.48-3.77,8.04-11.04,8.02-11.74-.04-11.74-11.87-11.74-11.87v-.99c-.06.28-.09.52-.1.68-.01.12-.01.65-.01.65-.03.6-.14,1.95-.61,3.52-1.03,3.48-3.77,8.04-11.04,8.02-11.74-.04-11.74-11.87-11.74-11.87v-.99c-.06.28-.09.52-.1.68-.01.12-.01.65-.01.65-.03.6-.15,1.95-.61,3.52-1.03,3.48-3.76,8.04-11.04,8.02-11.74-.04-11.74-11.87-11.74-11.87v-.99c-.06.28-.09.52-.1.68-.01.12-.01.65-.01.65-.03.6-.15,1.95-.61,3.52-1.03,3.48-3.77,8.04-11.04,8.02-11.74-.04-11.74-11.87-11.74-11.87v-.99c-.06.28-.09.52-.1.68-.01.12-.01.65-.01.65-.03.6-.14,1.95-.61,3.52-.83,2.8-2.77,6.31-7.3,7.56V11.6c0,.17,0,.27,0,.27v12.96c.05-.21.08-.43.1-.66,0-.09,0-.18,0-.27v-12.37c.03-.6.15-1.95.61-3.52,1.03-3.48,3.76-8.04,11.04-8.02,11.74.04,11.74,11.87,11.74,11.87v12.96c.05-.21.08-.43.1-.66,0-.09.01-.18.01-.27v-12.37c.03-.6.15-1.95.61-3.52,1.03-3.48,3.77-8.04,11.04-8.02,11.74.04,11.74,11.87,11.74,11.87v12.96c.05-.21.08-.43.1-.66,0-.09.01-.18.01-.27v-12.37c.03-.6.15-1.95.61-3.52,1.03-3.48,3.77-8.04,11.04-8.02,11.74.04,11.74,11.87,11.74,11.87v12.96c.05-.21.08-.43.1-.66,0-.09.01-.18.01-.27v-12.37c.03-.6.14-1.95.61-3.52,1.03-3.48,3.77-8.04,11.04-8.02,11.74.04,11.74,11.87,11.74,11.87v12.83l.11-1.86v-11.3c.03-.6.15-1.95.61-3.52,1.03-3.48,3.77-8.04,11.04-8.02,11.74.04,11.74,11.87,11.74,11.87v12.96c.05-.21.08-.43.1-.66,0-.09.01-.18.01-.27v-12.37c.03-.6.14-1.95.61-3.52,1.03-3.48,3.77-8.04,11.04-8.02,11.74.04,11.74,11.87,11.74,11.87v12.96c.05-.21.08-.43.1-.66,0-.09,0-.18,0-.27v-12.37c.03-.6.15-1.95.61-3.52,1.03-3.48,3.76-8.04,11.04-8.02,11.74.04,11.74,11.87,11.74,11.87v12.96c.05-.21.08-.43.1-.66,0-.09.01-.18.01-.27v-12.37c.03-.6.15-1.95.61-3.52,1.03-3.48,3.77-8.04,11.04-8.02,11.74.04,11.74,11.87,11.74,11.87v12.96c.05-.21.08-.43.1-.66,0-.09.01-.18.01-.27v-12.37c.03-.6.15-1.95.61-3.52,1.03-3.48,3.77-8.04,11.04-8.02,11.74.04,11.74,11.87,11.74,11.87l-.46,23.41Z"/>
  <path class="cls-1" d="M1903.47,35.28c-1.12.32-1.83.5-3.29.5-11.74-.04-11.74-11.87-11.74-11.87v-.99c-.06.28-.09.52-.1.68-.01.12-.01.65-.01.65-.03.6-.15,1.95-.61,3.52-1.03,3.48-3.77,8.04-11.04,8.02-11.74-.04-11.74-11.87-11.74-11.87v-.99c-.06.28-.09.52-.1.68-.01.12-.01.65-.01.65-.03.6-.15,1.95-.61,3.52-1.03,3.48-3.77,8.04-11.04,8.02-11.74-.04-11.74-11.87-11.74-11.87v-.99c-.06.28-.09.52-.1.68,0,.12,0,.65,0,.65-.03.6-.15,1.95-.61,3.52-1.03,3.48-3.77,8.04-11.04,8.02-11.74-.04-11.74-11.87-11.74-11.87v-.99c-.06.28-.09.52-.1.68-.01.12-.01.65-.01.65-.03.6-.14,1.95-.61,3.52-1.03,3.48-3.77,8.04-11.04,8.02-10.16-.03-11.53-8.9-11.71-11.28v-1.65l-.17,1.86c-.06.7-.21,1.81-.58,3.06-1.03,3.48-3.77,8.04-11.04,8.02-11.74-.04-11.74-11.87-11.74-11.87v-.99c-.06.28-.09.52-.1.68-.01.12-.01.65-.01.65-.03.6-.15,1.95-.61,3.52-1.03,3.48-3.77,8.04-11.04,8.02-11.74-.04-11.74-11.87-11.74-11.87v-.99c-.06.28-.09.52-.1.68-.01.12-.01.65-.01.65-.03.6-.15,1.95-.61,3.52-1.03,3.48-3.76,8.04-11.04,8.02-11.74-.04-11.74-11.87-11.74-11.87v-.99c-.06.28-.09.52-.1.68-.01.12-.01.65-.01.65-.03.6-.15,1.95-.61,3.52-1.03,3.48-3.77,8.04-11.04,8.02-11.74-.04-11.74-11.87-11.74-11.87v-.99c-.06.28-.09.52-.1.68,0,.12,0,.65,0,.65-.03.6-.15,1.95-.61,3.52-.83,2.8-2.77,6.31-7.3,7.56V11.6c0,.17,0,.27,0,.27v12.96c.05-.21.08-.43.1-.66,0-.09.01-.18.01-.27v-12.37c.03-.6.15-1.95.61-3.52,1.03-3.48,3.77-8.04,11.04-8.02,11.74.04,11.74,11.87,11.74,11.87v12.96c.05-.21.08-.43.1-.66,0-.09.01-.18.01-.27v-12.37c.03-.6.15-1.95.61-3.52,1.03-3.48,3.77-8.04,11.04-8.02,11.74.04,11.74,11.87,11.74,11.87v12.96c.05-.21.08-.43.1-.66,0-.09.01-.18.01-.27v-12.37c.03-.6.15-1.95.61-3.52,1.03-3.48,3.77-8.04,11.04-8.02,11.74.04,11.74,11.87,11.74,11.87v12.96c.05-.21.08-.43.1-.66,0-.09.01-.18.01-.27v-12.37c.03-.6.15-1.95.61-3.52,1.03-3.48,3.77-8.04,11.04-8.02,11.74.04,11.74,11.87,11.74,11.87v12.83l.11-1.86v-11.3c.03-.6.15-1.95.61-3.52,1.03-3.48,3.77-8.04,11.04-8.02,11.74.04,11.74,11.87,11.74,11.87v12.96c.05-.21.08-.43.1-.66,0-.09,0-.18,0-.27v-12.37c.03-.6.15-1.95.61-3.52,1.03-3.48,3.77-8.04,11.04-8.02,11.74.04,11.74,11.87,11.74,11.87v12.96c.05-.21.08-.43.1-.66,0-.09,0-.18,0-.27v-12.37c.03-.6.15-1.95.61-3.52,1.03-3.48,3.76-8.04,11.04-8.02,11.74.04,11.74,11.87,11.74,11.87v12.96c.05-.21.08-.43.1-.66,0-.09.01-.18.01-.27v-12.37c.03-.6.15-1.95.61-3.52,1.03-3.48,3.77-8.04,11.04-8.02,11.74.04,11.74,11.87,11.74,11.87v12.96c.05-.21.08-.43.1-.66,0-.09.01-.18.01-.27v-12.37c.03-.6.15-1.95.61-3.52,1.03-3.48,3.77-8.04,11.04-8.02,11.74.04,11.74,11.87,11.74,11.87l-.46,23.41Z"/>
  <path class="cls-1" d="M1903.47,35.28c-1.12.32-1.83.5-3.29.5-11.74-.04-11.74-11.87-11.74-11.87v-.99c-.06.28-.09.52-.1.68-.01.12-.01.65-.01.65-.03.6-.15,1.95-.61,3.52-1.03,3.48-3.77,8.04-11.04,8.02-11.74-.04-11.74-11.87-11.74-11.87v-.99c-.06.28-.09.52-.1.68-.01.12-.01.65-.01.65-.03.6-.15,1.95-.61,3.52-1.03,3.48-3.77,8.04-11.04,8.02-11.74-.04-11.74-11.87-11.74-11.87v-.99c-.06.28-.09.52-.1.68,0,.12,0,.65,0,.65-.03.6-.15,1.95-.61,3.52-1.03,3.48-3.77,8.04-11.04,8.02-11.74-.04-11.74-11.87-11.74-11.87v-.99c-.06.28-.09.52-.1.68-.01.12-.01.65-.01.65-.03.6-.14,1.95-.61,3.52-1.03,3.48-3.77,8.04-11.04,8.02-10.16-.03-11.53-8.9-11.71-11.28v-1.65l-.17,1.86c-.06.7-.21,1.81-.58,3.06-1.03,3.48-3.77,8.04-11.04,8.02-11.74-.04-11.74-11.87-11.74-11.87v-.99c-.06.28-.09.52-.1.68-.01.12-.01.65-.01.65-.03.6-.15,1.95-.61,3.52-1.03,3.48-3.77,8.04-11.04,8.02-11.74-.04-11.74-11.87-11.74-11.87v-.99c-.06.28-.09.52-.1.68-.01.12-.01.65-.01.65-.03.6-.15,1.95-.61,3.52-1.03,3.48-3.76,8.04-11.04,8.02-11.74-.04-11.74-11.87-11.74-11.87v-.99c-.06.28-.09.52-.1.68-.01.12-.01.65-.01.65-.03.6-.15,1.95-.61,3.52-1.03,3.48-3.77,8.04-11.04,8.02-11.74-.04-11.74-11.87-11.74-11.87v-.99c-.06.28-.09.52-.1.68,0,.12,0,.65,0,.65-.03.6-.15,1.95-.61,3.52-.83,2.8-2.77,6.31-7.3,7.56V11.6c0,.17,0,.27,0,.27v12.96c.05-.21.08-.43.1-.66,0-.09.01-.18.01-.27v-12.37c.03-.6.15-1.95.61-3.52,1.03-3.48,3.77-8.04,11.04-8.02,11.74.04,11.74,11.87,11.74,11.87v12.96c.05-.21.08-.43.1-.66,0-.09.01-.18.01-.27v-12.37c.03-.6.15-1.95.61-3.52,1.03-3.48,3.77-8.04,11.04-8.02,11.74.04,11.74,11.87,11.74,11.87v12.96c.05-.21.08-.43.1-.66,0-.09.01-.18.01-.27v-12.37c.03-.6.15-1.95.61-3.52,1.03-3.48,3.77-8.04,11.04-8.02,11.74.04,11.74,11.87,11.74,11.87v12.96c.05-.21.08-.43.1-.66,0-.09.01-.18.01-.27v-12.37c.03-.6.15-1.95.61-3.52,1.03-3.48,3.77-8.04,11.04-8.02,11.74.04,11.74,11.87,11.74,11.87v12.83l.11-1.86v-11.3c.03-.6.15-1.95.61-3.52,1.03-3.48,3.77-8.04,11.04-8.02,11.74.04,11.74,11.87,11.74,11.87v12.96c.05-.21.08-.43.1-.66,0-.09,0-.18,0-.27v-12.37c.03-.6.15-1.95.61-3.52,1.03-3.48,3.77-8.04,11.04-8.02,11.74.04,11.74,11.87,11.74,11.87v12.96c.05-.21.08-.43.1-.66,0-.09,0-.18,0-.27v-12.37c.03-.6.15-1.95.61-3.52,1.03-3.48,3.76-8.04,11.04-8.02,11.74.04,11.74,11.87,11.74,11.87v12.96c.05-.21.08-.43.1-.66,0-.09.01-.18.01-.27v-12.37c.03-.6.15-1.95.61-3.52,1.03-3.48,3.77-8.04,11.04-8.02,11.74.04,11.74,11.87,11.74,11.87v12.96c.05-.21.08-.43.1-.66,0-.09.01-.18.01-.27v-12.37c.03-.6.15-1.95.61-3.52,1.03-3.48,3.77-8.04,11.04-8.02,11.74.04,11.74,11.87,11.74,11.87l-.46,23.41Z"/>
  <path class="cls-1" d="M2067.73,35.28c-1.12.32-1.83.5-3.29.5-11.74-.04-11.74-11.87-11.74-11.87v-.99c-.06.28-.09.52-.1.68-.01.12-.01.65-.01.65-.03.6-.15,1.95-.61,3.52-1.03,3.48-3.77,8.04-11.04,8.02-11.74-.04-11.74-11.87-11.74-11.87v-.99c-.06.28-.09.52-.1.68-.01.12-.01.65-.01.65-.03.6-.15,1.95-.61,3.52-1.03,3.48-3.77,8.04-11.04,8.02-11.74-.04-11.74-11.87-11.74-11.87v-.99c-.06.28-.09.52-.1.68-.01.12-.01.65-.01.65-.03.6-.15,1.95-.61,3.52-1.03,3.48-3.77,8.04-11.04,8.02-11.74-.04-11.74-11.87-11.74-11.87v-.99c-.06.28-.09.52-.1.68,0,.12,0,.65,0,.65-.03.6-.15,1.95-.61,3.52-1.03,3.48-3.77,8.04-11.04,8.02-10.16-.03-11.53-8.9-11.71-11.28v-1.65l-.17,1.86c-.06.7-.21,1.81-.58,3.06-1.03,3.48-3.77,8.04-11.04,8.02-11.74-.04-11.74-11.87-11.74-11.87v-.99c-.06.28-.09.52-.1.68-.01.12-.01.65-.01.65-.03.6-.15,1.95-.61,3.52-1.03,3.48-3.77,8.04-11.04,8.02-11.74-.04-11.74-11.87-11.74-11.87v-.99c-.06.28-.09.52-.1.68-.01.12-.01.65-.01.65-.03.6-.15,1.95-.61,3.52-1.03,3.48-3.76,8.04-11.04,8.02-11.74-.04-11.74-11.87-11.74-11.87v-.99c-.06.28-.09.52-.1.68-.01.12-.01.65-.01.65-.03.6-.15,1.95-.61,3.52-1.03,3.48-3.77,8.04-11.04,8.02-11.74-.04-11.74-11.87-11.74-11.87v-.99c-.06.28-.09.52-.1.68,0,.12,0,.65,0,.65-.03.6-.15,1.95-.61,3.52-.83,2.8-2.77,6.31-7.3,7.56V11.6c0,.17,0,.27,0,.27v12.96c.05-.21.08-.43.1-.66,0-.09.01-.18.01-.27v-12.37c.03-.6.15-1.95.61-3.52,1.03-3.48,3.77-8.04,11.04-8.02,11.74.04,11.74,11.87,11.74,11.87v12.96c.05-.21.08-.43.1-.66,0-.09.01-.18.01-.27v-12.37c.03-.6.15-1.95.61-3.52,1.03-3.48,3.77-8.04,11.04-8.02,11.74.04,11.74,11.87,11.74,11.87v12.96c.05-.21.08-.43.1-.66,0-.09.01-.18.01-.27v-12.37c.03-.6.15-1.95.61-3.52,1.03-3.48,3.77-8.04,11.04-8.02,11.74.04,11.74,11.87,11.74,11.87v12.96c.05-.21.08-.43.1-.66,0-.09.01-.18.01-.27v-12.37c.03-.6.15-1.95.61-3.52,1.03-3.48,3.77-8.04,11.04-8.02,11.74.04,11.74,11.87,11.74,11.87v12.83l.11-1.86v-11.3c.03-.6.15-1.95.61-3.52,1.03-3.48,3.77-8.04,11.04-8.02,11.74.04,11.74,11.87,11.74,11.87v12.96c.05-.21.08-.43.1-.66,0-.09.01-.18.01-.27v-12.37c.03-.6.14-1.95.61-3.52,1.03-3.48,3.77-8.04,11.04-8.02,11.74.04,11.74,11.87,11.74,11.87v12.96c.05-.21.08-.43.1-.66,0-.09,0-.18,0-.27v-12.37c.03-.6.15-1.95.61-3.52,1.03-3.48,3.76-8.04,11.04-8.02,11.74.04,11.74,11.87,11.74,11.87v12.96c.05-.21.08-.43.1-.66,0-.09.01-.18.01-.27v-12.37c.03-.6.15-1.95.61-3.52,1.03-3.48,3.77-8.04,11.04-8.02,11.74.04,11.74,11.87,11.74,11.87v12.96c.05-.21.08-.43.1-.66,0-.09.01-.18.01-.27v-12.37c.03-.6.15-1.95.61-3.52,1.03-3.48,3.77-8.04,11.04-8.02,11.74.04,11.74,11.87,11.74,11.87l-.46,23.41Z"/>
  <path class="cls-1" d="M2067.73,35.28c-1.12.32-1.83.5-3.29.5-11.74-.04-11.74-11.87-11.74-11.87v-.99c-.06.28-.09.52-.1.68-.01.12-.01.65-.01.65-.03.6-.15,1.95-.61,3.52-1.03,3.48-3.77,8.04-11.04,8.02-11.74-.04-11.74-11.87-11.74-11.87v-.99c-.06.28-.09.52-.1.68-.01.12-.01.65-.01.65-.03.6-.15,1.95-.61,3.52-1.03,3.48-3.77,8.04-11.04,8.02-11.74-.04-11.74-11.87-11.74-11.87v-.99c-.06.28-.09.52-.1.68-.01.12-.01.65-.01.65-.03.6-.15,1.95-.61,3.52-1.03,3.48-3.77,8.04-11.04,8.02-11.74-.04-11.74-11.87-11.74-11.87v-.99c-.06.28-.09.52-.1.68,0,.12,0,.65,0,.65-.03.6-.15,1.95-.61,3.52-1.03,3.48-3.77,8.04-11.04,8.02-10.16-.03-11.53-8.9-11.71-11.28v-1.65l-.17,1.86c-.06.7-.21,1.81-.58,3.06-1.03,3.48-3.77,8.04-11.04,8.02-11.74-.04-11.74-11.87-11.74-11.87v-.99c-.06.28-.09.52-.1.68-.01.12-.01.65-.01.65-.03.6-.15,1.95-.61,3.52-1.03,3.48-3.77,8.04-11.04,8.02-11.74-.04-11.74-11.87-11.74-11.87v-.99c-.06.28-.09.52-.1.68-.01.12-.01.65-.01.65-.03.6-.15,1.95-.61,3.52-1.03,3.48-3.76,8.04-11.04,8.02-11.74-.04-11.74-11.87-11.74-11.87v-.99c-.06.28-.09.52-.1.68-.01.12-.01.65-.01.65-.03.6-.15,1.95-.61,3.52-1.03,3.48-3.77,8.04-11.04,8.02-11.74-.04-11.74-11.87-11.74-11.87v-.99c-.06.28-.09.52-.1.68,0,.12,0,.65,0,.65-.03.6-.15,1.95-.61,3.52-.83,2.8-2.77,6.31-7.3,7.56V11.6c0,.17,0,.27,0,.27v12.96c.05-.21.08-.43.1-.66,0-.09.01-.18.01-.27v-12.37c.03-.6.15-1.95.61-3.52,1.03-3.48,3.77-8.04,11.04-8.02,11.74.04,11.74,11.87,11.74,11.87v12.96c.05-.21.08-.43.1-.66,0-.09.01-.18.01-.27v-12.37c.03-.6.15-1.95.61-3.52,1.03-3.48,3.77-8.04,11.04-8.02,11.74.04,11.74,11.87,11.74,11.87v12.96c.05-.21.08-.43.1-.66,0-.09.01-.18.01-.27v-12.37c.03-.6.15-1.95.61-3.52,1.03-3.48,3.77-8.04,11.04-8.02,11.74.04,11.74,11.87,11.74,11.87v12.96c.05-.21.08-.43.1-.66,0-.09.01-.18.01-.27v-12.37c.03-.6.15-1.95.61-3.52,1.03-3.48,3.77-8.04,11.04-8.02,11.74.04,11.74,11.87,11.74,11.87v12.83l.11-1.86v-11.3c.03-.6.15-1.95.61-3.52,1.03-3.48,3.77-8.04,11.04-8.02,11.74.04,11.74,11.87,11.74,11.87v12.96c.05-.21.08-.43.1-.66,0-.09.01-.18.01-.27v-12.37c.03-.6.14-1.95.61-3.52,1.03-3.48,3.77-8.04,11.04-8.02,11.74.04,11.74,11.87,11.74,11.87v12.96c.05-.21.08-.43.1-.66,0-.09,0-.18,0-.27v-12.37c.03-.6.15-1.95.61-3.52,1.03-3.48,3.76-8.04,11.04-8.02,11.74.04,11.74,11.87,11.74,11.87v12.96c.05-.21.08-.43.1-.66,0-.09.01-.18.01-.27v-12.37c.03-.6.15-1.95.61-3.52,1.03-3.48,3.77-8.04,11.04-8.02,11.74.04,11.74,11.87,11.74,11.87v12.96c.05-.21.08-.43.1-.66,0-.09.01-.18.01-.27v-12.37c.03-.6.15-1.95.61-3.52,1.03-3.48,3.77-8.04,11.04-8.02,11.74.04,11.74,11.87,11.74,11.87l-.46,23.41Z"/>
  <path class="cls-1" d="M845.98,24.7v10.58c-1.12.32-2.4.5-3.87.5-11.74-.04-11.74-11.87-11.74-11.87v-.99c-.06.28-.09.52-.1.68,0,.12,0,.65,0,.65-.03.6-.15,1.95-.61,3.52-1.03,3.48-3.76,8.04-11.04,8.02-11.74-.04-11.74-11.87-11.74-11.87v-.99c-.06.28-.09.52-.1.68,0,.12,0,.65,0,.65-.03.6-.15,1.95-.61,3.52-1.03,3.48-3.77,8.04-11.04,8.02-11.74-.04-11.74-11.87-11.74-11.87v-.99c-.06.28-.09.52-.1.68,0,.12,0,.65,0,.65-.03.6-.15,1.95-.61,3.52-1.03,3.48-3.77,8.04-11.04,8.02-11.74-.04-11.74-11.87-11.74-11.87v-.99c-.06.28-.09.52-.1.68-.01.12-.01.65-.01.65-.03.6-.14,1.95-.61,3.52-1.03,3.48-3.76,8.04-11.04,8.02-10.16-.03-11.53-8.9-11.71-11.28v-1.65l-.17,1.86c-.06.7-.21,1.81-.58,3.06-1.03,3.48-3.76,8.04-11.04,8.02-11.74-.04-11.74-11.87-11.74-11.87v-.99c-.06.28-.09.52-.1.68-.01.12-.01.65-.01.65-.03.6-.14,1.95-.61,3.52-1.03,3.48-3.76,8.04-11.04,8.02-11.74-.04-11.74-11.87-11.74-11.87v-.99c-.06.28-.09.52-.1.68-.01.12-.01.65-.01.65-.03.6-.14,1.95-.61,3.52-1.03,3.48-3.76,8.04-11.04,8.02-11.74-.04-11.74-11.87-11.74-11.87v-.99c-.06.28-.09.52-.1.68-.01.12-.01.65-.01.65-.03.6-.15,1.95-.61,3.52-1.03,3.48-3.77,8.04-11.04,8.02-11.74-.04-11.74-11.87-11.74-11.87v-.99c-.06.28-.09.52-.1.68,0,.12,0,.65,0,.65-.03.6-.15,1.95-.61,3.52-.83,2.8-2.77,6.31-7.3,7.56V11.6c0,.17,0,.27,0,.27v12.96c.05-.21.08-.43.1-.66,0-.09,0-.18,0-.27v-12.37c.03-.6.14-1.95.61-3.52,1.03-3.48,3.76-8.04,11.04-8.02,11.74.04,11.74,11.87,11.74,11.87v12.96c.05-.21.08-.43.1-.66,0-.09,0-.18,0-.27v-12.37c.03-.6.15-1.95.61-3.52,1.03-3.48,3.76-8.04,11.04-8.02,11.74.04,11.74,11.87,11.74,11.87v12.96c.05-.21.08-.43.1-.66,0-.09,0-.18,0-.27v-12.37c.03-.6.15-1.95.61-3.52,1.03-3.48,3.76-8.04,11.04-8.02,11.74.04,11.74,11.87,11.74,11.87v12.96c.05-.21.08-.43.1-.66,0-.09,0-.18,0-.27v-12.37c.03-.6.15-1.95.61-3.52,1.03-3.48,3.76-8.04,11.04-8.02,11.74.04,11.74,11.87,11.74,11.87v12.83l.11-1.86v-11.3c.03-.6.14-1.95.61-3.52,1.03-3.48,3.77-8.04,11.04-8.02,11.74.04,11.74,11.87,11.74,11.87v12.96c.05-.21.08-.43.1-.66,0-.09,0-.18,0-.27v-12.37c.03-.6.14-1.95.61-3.52,1.03-3.48,3.76-8.04,11.04-8.02,11.74.04,11.74,11.87,11.74,11.87v12.96c.05-.21.08-.43.1-.66,0-.09.01-.18.01-.27v-12.37c.03-.6.15-1.95.61-3.52,1.03-3.48,3.76-8.04,11.04-8.02,11.74.04,11.74,11.87,11.74,11.87v12.96c.05-.21.08-.43.1-.66,0-.09.01-.18.01-.27v-12.37c.03-.6.15-1.95.61-3.52,1.03-3.48,3.76-8.04,11.04-8.02,11.74.04,11.74,11.87,11.74,11.87v12.96c.05-.21.08-.43.1-.66,0-.09.01-.18.01-.27v-12.37c.03-.6.15-1.95.61-3.52,1.03-3.48,3.76-8.04,11.04-8.02,11.74.04,11.74,11.87,11.74,11.87v12.83h.11Z"/>
  <path class="cls-1" d="M845.98,24.7v10.58c-1.12.32-2.4.5-3.87.5-11.74-.04-11.74-11.87-11.74-11.87v-.99c-.06.28-.09.52-.1.68,0,.12,0,.65,0,.65-.03.6-.15,1.95-.61,3.52-1.03,3.48-3.76,8.04-11.04,8.02-11.74-.04-11.74-11.87-11.74-11.87v-.99c-.06.28-.09.52-.1.68,0,.12,0,.65,0,.65-.03.6-.15,1.95-.61,3.52-1.03,3.48-3.77,8.04-11.04,8.02-11.74-.04-11.74-11.87-11.74-11.87v-.99c-.06.28-.09.52-.1.68,0,.12,0,.65,0,.65-.03.6-.15,1.95-.61,3.52-1.03,3.48-3.77,8.04-11.04,8.02-11.74-.04-11.74-11.87-11.74-11.87v-.99c-.06.28-.09.52-.1.68-.01.12-.01.65-.01.65-.03.6-.14,1.95-.61,3.52-1.03,3.48-3.76,8.04-11.04,8.02-10.16-.03-11.53-8.9-11.71-11.28v-1.65l-.17,1.86c-.06.7-.21,1.81-.58,3.06-1.03,3.48-3.76,8.04-11.04,8.02-11.74-.04-11.74-11.87-11.74-11.87v-.99c-.06.28-.09.52-.1.68-.01.12-.01.65-.01.65-.03.6-.14,1.95-.61,3.52-1.03,3.48-3.76,8.04-11.04,8.02-11.74-.04-11.74-11.87-11.74-11.87v-.99c-.06.28-.09.52-.1.68-.01.12-.01.65-.01.65-.03.6-.14,1.95-.61,3.52-1.03,3.48-3.76,8.04-11.04,8.02-11.74-.04-11.74-11.87-11.74-11.87v-.99c-.06.28-.09.52-.1.68-.01.12-.01.65-.01.65-.03.6-.15,1.95-.61,3.52-1.03,3.48-3.77,8.04-11.04,8.02-11.74-.04-11.74-11.87-11.74-11.87v-.99c-.06.28-.09.52-.1.68,0,.12,0,.65,0,.65-.03.6-.15,1.95-.61,3.52-.83,2.8-2.77,6.31-7.3,7.56V11.6c0,.17,0,.27,0,.27v12.96c.05-.21.08-.43.1-.66,0-.09,0-.18,0-.27v-12.37c.03-.6.14-1.95.61-3.52,1.03-3.48,3.76-8.04,11.04-8.02,11.74.04,11.74,11.87,11.74,11.87v12.96c.05-.21.08-.43.1-.66,0-.09,0-.18,0-.27v-12.37c.03-.6.15-1.95.61-3.52,1.03-3.48,3.76-8.04,11.04-8.02,11.74.04,11.74,11.87,11.74,11.87v12.96c.05-.21.08-.43.1-.66,0-.09,0-.18,0-.27v-12.37c.03-.6.15-1.95.61-3.52,1.03-3.48,3.76-8.04,11.04-8.02,11.74.04,11.74,11.87,11.74,11.87v12.96c.05-.21.08-.43.1-.66,0-.09,0-.18,0-.27v-12.37c.03-.6.15-1.95.61-3.52,1.03-3.48,3.76-8.04,11.04-8.02,11.74.04,11.74,11.87,11.74,11.87v12.83l.11-1.86v-11.3c.03-.6.14-1.95.61-3.52,1.03-3.48,3.77-8.04,11.04-8.02,11.74.04,11.74,11.87,11.74,11.87v12.96c.05-.21.08-.43.1-.66,0-.09,0-.18,0-.27v-12.37c.03-.6.14-1.95.61-3.52,1.03-3.48,3.76-8.04,11.04-8.02,11.74.04,11.74,11.87,11.74,11.87v12.96c.05-.21.08-.43.1-.66,0-.09.01-.18.01-.27v-12.37c.03-.6.15-1.95.61-3.52,1.03-3.48,3.76-8.04,11.04-8.02,11.74.04,11.74,11.87,11.74,11.87v12.96c.05-.21.08-.43.1-.66,0-.09.01-.18.01-.27v-12.37c.03-.6.15-1.95.61-3.52,1.03-3.48,3.76-8.04,11.04-8.02,11.74.04,11.74,11.87,11.74,11.87v12.96c.05-.21.08-.43.1-.66,0-.09.01-.18.01-.27v-12.37c.03-.6.15-1.95.61-3.52,1.03-3.48,3.76-8.04,11.04-8.02,11.74.04,11.74,11.87,11.74,11.87v12.83h.11Z"/>
  <path class="cls-1" d="M1010.2,35.28c-1.12.32-1.83.5-3.29.5-11.74-.04-11.74-11.87-11.74-11.87v-.99c-.06.28-.09.52-.1.68,0,.12,0,.65,0,.65-.03.6-.15,1.95-.61,3.52-1.03,3.48-3.76,8.04-11.04,8.02-11.74-.04-11.74-11.87-11.74-11.87v-.99c-.06.28-.09.52-.1.68-.01.12-.01.65-.01.65-.03.6-.14,1.95-.61,3.52-1.03,3.48-3.77,8.04-11.04,8.02-11.74-.04-11.74-11.87-11.74-11.87v-.99c-.06.28-.09.52-.1.68,0,.12,0,.65,0,.65-.03.6-.15,1.95-.61,3.52-1.03,3.48-3.77,8.04-11.04,8.02-11.74-.04-11.74-11.87-11.74-11.87v-.99c-.06.28-.09.52-.1.68,0,.12,0,.65,0,.65-.03.6-.14,1.95-.61,3.52-1.03,3.48-3.77,8.04-11.04,8.02-10.16-.03-11.53-8.9-11.71-11.28v-1.65l-.17,1.86c-.06.7-.21,1.81-.58,3.06-1.03,3.48-3.76,8.04-11.04,8.02-11.74-.04-11.74-11.87-11.74-11.87v-.99c-.06.28-.09.52-.1.68-.01.12-.01.65-.01.65-.03.6-.14,1.95-.61,3.52-1.03,3.48-3.76,8.04-11.04,8.02-11.74-.04-11.74-11.87-11.74-11.87v-.99c-.06.28-.09.52-.1.68-.01.12-.01.65-.01.65-.03.6-.14,1.95-.61,3.52-1.03,3.48-3.76,8.04-11.04,8.02-11.74-.04-11.74-11.87-11.74-11.87v-.99c-.06.28-.09.52-.1.68-.01.12-.01.65-.01.65-.03.6-.14,1.95-.61,3.52-1.03,3.48-3.76,8.04-11.04,8.02-11.74-.04-11.74-11.87-11.74-11.87v-.99c-.06.28-.09.52-.1.68,0,.12,0,.65,0,.65-.03.6-.14,1.95-.61,3.52-.83,2.8-2.77,6.31-7.3,7.56V11.6c0,.17,0,.27,0,.27v12.96c.05-.21.08-.43.1-.66,0-.09,0-.18,0-.27v-12.37c.03-.6.15-1.95.61-3.52,1.03-3.48,3.76-8.04,11.04-8.02,11.74.04,11.74,11.87,11.74,11.87v12.96c.05-.21.08-.43.1-.66,0-.09,0-.18,0-.27v-12.37c.03-.6.15-1.95.61-3.52,1.03-3.48,3.76-8.04,11.04-8.02,11.74.04,11.74,11.87,11.74,11.87v12.96c.05-.21.08-.43.1-.66,0-.09,0-.18,0-.27v-12.37c.03-.6.15-1.95.61-3.52,1.03-3.48,3.76-8.04,11.04-8.02,11.74.04,11.74,11.87,11.74,11.87v12.96c.05-.21.08-.43.1-.66,0-.09,0-.18,0-.27v-12.37c.03-.6.15-1.95.61-3.52,1.03-3.48,3.76-8.04,11.04-8.02,11.74.04,11.74,11.87,11.74,11.87v12.83l.11-1.86v-11.3c.03-.6.15-1.95.61-3.52,1.03-3.48,3.77-8.04,11.04-8.02,11.74.04,11.74,11.87,11.74,11.87v12.96c.05-.21.08-.43.1-.66,0-.09.01-.18.01-.27v-12.37c.03-.6.14-1.95.61-3.52,1.03-3.48,3.77-8.04,11.04-8.02,11.74.04,11.74,11.87,11.74,11.87v12.96c.05-.21.08-.43.1-.66,0-.09,0-.18,0-.27v-12.37c.03-.6.15-1.95.61-3.52,1.03-3.48,3.76-8.04,11.04-8.02,11.74.04,11.74,11.87,11.74,11.87v12.96c.05-.21.08-.43.1-.66,0-.09.01-.18.01-.27v-12.37c.03-.6.14-1.95.61-3.52,1.03-3.48,3.77-8.04,11.04-8.02,11.74.04,11.74,11.87,11.74,11.87v12.96c.05-.21.08-.43.1-.66,0-.09,0-.18,0-.27v-12.37c.03-.6.15-1.95.61-3.52,1.03-3.48,3.76-8.04,11.04-8.02,11.74.04,11.74,11.87,11.74,11.87l-.46,23.41Z"/>
  <path class="cls-1" d="M1010.2,35.28c-1.12.32-1.83.5-3.29.5-11.74-.04-11.74-11.87-11.74-11.87v-.99c-.06.28-.09.52-.1.68,0,.12,0,.65,0,.65-.03.6-.15,1.95-.61,3.52-1.03,3.48-3.76,8.04-11.04,8.02-11.74-.04-11.74-11.87-11.74-11.87v-.99c-.06.28-.09.52-.1.68-.01.12-.01.65-.01.65-.03.6-.14,1.95-.61,3.52-1.03,3.48-3.77,8.04-11.04,8.02-11.74-.04-11.74-11.87-11.74-11.87v-.99c-.06.28-.09.52-.1.68,0,.12,0,.65,0,.65-.03.6-.15,1.95-.61,3.52-1.03,3.48-3.77,8.04-11.04,8.02-11.74-.04-11.74-11.87-11.74-11.87v-.99c-.06.28-.09.52-.1.68,0,.12,0,.65,0,.65-.03.6-.14,1.95-.61,3.52-1.03,3.48-3.77,8.04-11.04,8.02-10.16-.03-11.53-8.9-11.71-11.28v-1.65l-.17,1.86c-.06.7-.21,1.81-.58,3.06-1.03,3.48-3.76,8.04-11.04,8.02-11.74-.04-11.74-11.87-11.74-11.87v-.99c-.06.28-.09.52-.1.68-.01.12-.01.65-.01.65-.03.6-.14,1.95-.61,3.52-1.03,3.48-3.76,8.04-11.04,8.02-11.74-.04-11.74-11.87-11.74-11.87v-.99c-.06.28-.09.52-.1.68-.01.12-.01.65-.01.65-.03.6-.14,1.95-.61,3.52-1.03,3.48-3.76,8.04-11.04,8.02-11.74-.04-11.74-11.87-11.74-11.87v-.99c-.06.28-.09.52-.1.68-.01.12-.01.65-.01.65-.03.6-.14,1.95-.61,3.52-1.03,3.48-3.76,8.04-11.04,8.02-11.74-.04-11.74-11.87-11.74-11.87v-.99c-.06.28-.09.52-.1.68,0,.12,0,.65,0,.65-.03.6-.14,1.95-.61,3.52-.83,2.8-2.77,6.31-7.3,7.56V11.6c0,.17,0,.27,0,.27v12.96c.05-.21.08-.43.1-.66,0-.09,0-.18,0-.27v-12.37c.03-.6.15-1.95.61-3.52,1.03-3.48,3.76-8.04,11.04-8.02,11.74.04,11.74,11.87,11.74,11.87v12.96c.05-.21.08-.43.1-.66,0-.09,0-.18,0-.27v-12.37c.03-.6.15-1.95.61-3.52,1.03-3.48,3.76-8.04,11.04-8.02,11.74.04,11.74,11.87,11.74,11.87v12.96c.05-.21.08-.43.1-.66,0-.09,0-.18,0-.27v-12.37c.03-.6.15-1.95.61-3.52,1.03-3.48,3.76-8.04,11.04-8.02,11.74.04,11.74,11.87,11.74,11.87v12.96c.05-.21.08-.43.1-.66,0-.09,0-.18,0-.27v-12.37c.03-.6.15-1.95.61-3.52,1.03-3.48,3.76-8.04,11.04-8.02,11.74.04,11.74,11.87,11.74,11.87v12.83l.11-1.86v-11.3c.03-.6.15-1.95.61-3.52,1.03-3.48,3.77-8.04,11.04-8.02,11.74.04,11.74,11.87,11.74,11.87v12.96c.05-.21.08-.43.1-.66,0-.09.01-.18.01-.27v-12.37c.03-.6.14-1.95.61-3.52,1.03-3.48,3.77-8.04,11.04-8.02,11.74.04,11.74,11.87,11.74,11.87v12.96c.05-.21.08-.43.1-.66,0-.09,0-.18,0-.27v-12.37c.03-.6.15-1.95.61-3.52,1.03-3.48,3.76-8.04,11.04-8.02,11.74.04,11.74,11.87,11.74,11.87v12.96c.05-.21.08-.43.1-.66,0-.09.01-.18.01-.27v-12.37c.03-.6.14-1.95.61-3.52,1.03-3.48,3.77-8.04,11.04-8.02,11.74.04,11.74,11.87,11.74,11.87v12.96c.05-.21.08-.43.1-.66,0-.09,0-.18,0-.27v-12.37c.03-.6.15-1.95.61-3.52,1.03-3.48,3.76-8.04,11.04-8.02,11.74.04,11.74,11.87,11.74,11.87l-.46,23.41Z"/>
  <path class="cls-1" d="M1198.52,35.28c-1.12.32-1.83.5-3.29.5-11.74-.04-11.74-11.87-11.74-11.87v-.99c-.06.28-.09.52-.1.68,0,.12,0,.65,0,.65-.03.6-.15,1.95-.61,3.52-1.03,3.48-3.77,8.04-11.04,8.02-11.74-.04-11.74-11.87-11.74-11.87v-.99c-.06.28-.09.52-.1.68-.01.12-.01.65-.01.65-.03.6-.15,1.95-.61,3.52-1.03,3.48-3.77,8.04-11.04,8.02-11.74-.04-11.74-11.87-11.74-11.87v-.99c-.06.28-.09.52-.1.68,0,.12,0,.65,0,.65-.03.6-.15,1.95-.61,3.52-1.03,3.48-3.76,8.04-11.04,8.02-11.74-.04-11.74-11.87-11.74-11.87v-.99c-.06.28-.09.52-.1.68-.01.12-.01.65-.01.65-.03.6-.14,1.95-.61,3.52-1.03,3.48-3.77,8.04-11.04,8.02-10.16-.03-11.53-8.9-11.71-11.28v-1.65l-.17,1.86c-.06.7-.21,1.81-.58,3.06-1.03,3.48-3.76,8.04-11.04,8.02-11.74-.04-11.74-11.87-11.74-11.87v-.99c-.06.28-.09.52-.1.68-.01.12-.01.65-.01.65-.03.6-.14,1.95-.61,3.52-1.03,3.48-3.77,8.04-11.04,8.02-11.74-.04-11.74-11.87-11.74-11.87v-.99c-.06.28-.09.52-.1.68-.01.12-.01.65-.01.65-.03.6-.14,1.95-.61,3.52-1.03,3.48-3.76,8.04-11.04,8.02-11.74-.04-11.74-11.87-11.74-11.87v-.99c-.06.28-.09.52-.1.68-.01.12-.01.65-.01.65-.03.6-.14,1.95-.61,3.52-1.03,3.48-3.77,8.04-11.04,8.02-11.74-.04-11.74-11.87-11.74-11.87v-.99c-.06.28-.09.52-.1.68,0,.12,0,.65,0,.65-.03.6-.14,1.95-.61,3.52-.83,2.8-2.77,6.31-7.3,7.56V11.6c0,.17,0,.27,0,.27v12.96c.05-.21.08-.43.1-.66,0-.09,0-.18,0-.27v-12.37c.03-.6.14-1.95.61-3.52,1.03-3.48,3.76-8.04,11.04-8.02,11.74.04,11.74,11.87,11.74,11.87v12.96c.05-.21.08-.43.1-.66,0-.09.01-.18.01-.27v-12.37c.03-.6.14-1.95.61-3.52,1.03-3.48,3.77-8.04,11.04-8.02,11.74.04,11.74,11.87,11.74,11.87v12.96c.05-.21.08-.43.1-.66,0-.09,0-.18,0-.27v-12.37c.03-.6.15-1.95.61-3.52,1.03-3.48,3.76-8.04,11.04-8.02,11.74.04,11.74,11.87,11.74,11.87v12.96c.05-.21.08-.43.1-.66,0-.09.01-.18.01-.27v-12.37c.03-.6.14-1.95.61-3.52,1.03-3.48,3.77-8.04,11.04-8.02,11.74.04,11.74,11.87,11.74,11.87v12.83l.11-1.86v-11.3c.03-.6.15-1.95.61-3.52,1.03-3.48,3.76-8.04,11.04-8.02,11.74.04,11.74,11.87,11.74,11.87v12.96c.05-.21.08-.43.1-.66,0-.09,0-.18,0-.27v-12.37c.03-.6.14-1.95.61-3.52,1.03-3.48,3.77-8.04,11.04-8.02,11.74.04,11.74,11.87,11.74,11.87v12.96c.05-.21.08-.43.1-.66,0-.09,0-.18,0-.27v-12.37c.03-.6.15-1.95.61-3.52,1.03-3.48,3.76-8.04,11.04-8.02,11.74.04,11.74,11.87,11.74,11.87v12.96c.05-.21.08-.43.1-.66,0-.09.01-.18.01-.27v-12.37c.03-.6.14-1.95.61-3.52,1.03-3.48,3.77-8.04,11.04-8.02,11.74.04,11.74,11.87,11.74,11.87v12.96c.05-.21.08-.43.1-.66,0-.09.01-.18.01-.27v-12.37c.03-.6.15-1.95.61-3.52,1.03-3.48,3.77-8.04,11.04-8.02,11.74.04,11.74,11.87,11.74,11.87l-.46,23.41Z"/>
  <path class="cls-1" d="M1198.52,35.28c-1.12.32-1.83.5-3.29.5-11.74-.04-11.74-11.87-11.74-11.87v-.99c-.06.28-.09.52-.1.68,0,.12,0,.65,0,.65-.03.6-.15,1.95-.61,3.52-1.03,3.48-3.77,8.04-11.04,8.02-11.74-.04-11.74-11.87-11.74-11.87v-.99c-.06.28-.09.52-.1.68-.01.12-.01.65-.01.65-.03.6-.15,1.95-.61,3.52-1.03,3.48-3.77,8.04-11.04,8.02-11.74-.04-11.74-11.87-11.74-11.87v-.99c-.06.28-.09.52-.1.68,0,.12,0,.65,0,.65-.03.6-.15,1.95-.61,3.52-1.03,3.48-3.76,8.04-11.04,8.02-11.74-.04-11.74-11.87-11.74-11.87v-.99c-.06.28-.09.52-.1.68-.01.12-.01.65-.01.65-.03.6-.14,1.95-.61,3.52-1.03,3.48-3.77,8.04-11.04,8.02-10.16-.03-11.53-8.9-11.71-11.28v-1.65l-.17,1.86c-.06.7-.21,1.81-.58,3.06-1.03,3.48-3.76,8.04-11.04,8.02-11.74-.04-11.74-11.87-11.74-11.87v-.99c-.06.28-.09.52-.1.68-.01.12-.01.65-.01.65-.03.6-.14,1.95-.61,3.52-1.03,3.48-3.77,8.04-11.04,8.02-11.74-.04-11.74-11.87-11.74-11.87v-.99c-.06.28-.09.52-.1.68-.01.12-.01.65-.01.65-.03.6-.14,1.95-.61,3.52-1.03,3.48-3.76,8.04-11.04,8.02-11.74-.04-11.74-11.87-11.74-11.87v-.99c-.06.28-.09.52-.1.68-.01.12-.01.65-.01.65-.03.6-.14,1.95-.61,3.52-1.03,3.48-3.77,8.04-11.04,8.02-11.74-.04-11.74-11.87-11.74-11.87v-.99c-.06.28-.09.52-.1.68,0,.12,0,.65,0,.65-.03.6-.14,1.95-.61,3.52-.83,2.8-2.77,6.31-7.3,7.56V11.6c0,.17,0,.27,0,.27v12.96c.05-.21.08-.43.1-.66,0-.09,0-.18,0-.27v-12.37c.03-.6.14-1.95.61-3.52,1.03-3.48,3.76-8.04,11.04-8.02,11.74.04,11.74,11.87,11.74,11.87v12.96c.05-.21.08-.43.1-.66,0-.09.01-.18.01-.27v-12.37c.03-.6.14-1.95.61-3.52,1.03-3.48,3.77-8.04,11.04-8.02,11.74.04,11.74,11.87,11.74,11.87v12.96c.05-.21.08-.43.1-.66,0-.09,0-.18,0-.27v-12.37c.03-.6.15-1.95.61-3.52,1.03-3.48,3.76-8.04,11.04-8.02,11.74.04,11.74,11.87,11.74,11.87v12.96c.05-.21.08-.43.1-.66,0-.09.01-.18.01-.27v-12.37c.03-.6.14-1.95.61-3.52,1.03-3.48,3.77-8.04,11.04-8.02,11.74.04,11.74,11.87,11.74,11.87v12.83l.11-1.86v-11.3c.03-.6.15-1.95.61-3.52,1.03-3.48,3.76-8.04,11.04-8.02,11.74.04,11.74,11.87,11.74,11.87v12.96c.05-.21.08-.43.1-.66,0-.09,0-.18,0-.27v-12.37c.03-.6.14-1.95.61-3.52,1.03-3.48,3.77-8.04,11.04-8.02,11.74.04,11.74,11.87,11.74,11.87v12.96c.05-.21.08-.43.1-.66,0-.09,0-.18,0-.27v-12.37c.03-.6.15-1.95.61-3.52,1.03-3.48,3.76-8.04,11.04-8.02,11.74.04,11.74,11.87,11.74,11.87v12.96c.05-.21.08-.43.1-.66,0-.09.01-.18.01-.27v-12.37c.03-.6.14-1.95.61-3.52,1.03-3.48,3.77-8.04,11.04-8.02,11.74.04,11.74,11.87,11.74,11.87v12.96c.05-.21.08-.43.1-.66,0-.09.01-.18.01-.27v-12.37c.03-.6.15-1.95.61-3.52,1.03-3.48,3.77-8.04,11.04-8.02,11.74.04,11.74,11.87,11.74,11.87l-.46,23.41Z"/>
  <path class="cls-1" d="M1362.78,35.28c-1.12.32-1.83.5-3.29.5-11.74-.04-11.74-11.87-11.74-11.87v-.99c-.06.28-.09.52-.1.68,0,.12,0,.65,0,.65-.03.6-.15,1.95-.61,3.52-1.03,3.48-3.76,8.04-11.04,8.02-11.74-.04-11.74-11.87-11.74-11.87v-.99c-.06.28-.09.52-.1.68-.01.12-.01.65-.01.65-.03.6-.15,1.95-.61,3.52-1.03,3.48-3.77,8.04-11.04,8.02-11.74-.04-11.74-11.87-11.74-11.87v-.99c-.06.28-.09.52-.1.68,0,.12,0,.65,0,.65-.03.6-.15,1.95-.61,3.52-1.03,3.48-3.77,8.04-11.04,8.02-11.74-.04-11.74-11.87-11.74-11.87v-.99c-.06.28-.09.52-.1.68,0,.12,0,.65,0,.65-.03.6-.14,1.95-.61,3.52-1.03,3.48-3.77,8.04-11.04,8.02-10.16-.03-11.53-8.9-11.71-11.28v-1.65l-.17,1.86c-.06.7-.21,1.81-.58,3.06-1.03,3.48-3.77,8.04-11.04,8.02-11.74-.04-11.74-11.87-11.74-11.87v-.99c-.06.28-.09.52-.1.68-.01.12-.01.65-.01.65-.03.6-.14,1.95-.61,3.52-1.03,3.48-3.77,8.04-11.04,8.02-11.74-.04-11.74-11.87-11.74-11.87v-.99c-.06.28-.09.52-.1.68-.01.12-.01.65-.01.65-.03.6-.15,1.95-.61,3.52-1.03,3.48-3.76,8.04-11.04,8.02-11.74-.04-11.74-11.87-11.74-11.87v-.99c-.06.28-.09.52-.1.68-.01.12-.01.65-.01.65-.03.6-.15,1.95-.61,3.52-1.03,3.48-3.77,8.04-11.04,8.02-11.74-.04-11.74-11.87-11.74-11.87v-.99c-.06.28-.09.52-.1.68,0,.12,0,.65,0,.65-.03.6-.14,1.95-.61,3.52-.83,2.8-2.77,6.31-7.3,7.56V11.6c0,.17,0,.27,0,.27v12.96c.05-.21.08-.43.1-.66,0-.09,0-.18,0-.27v-12.37c.03-.6.15-1.95.61-3.52,1.03-3.48,3.76-8.04,11.04-8.02,11.74.04,11.74,11.87,11.74,11.87v12.96c.05-.21.08-.43.1-.66,0-.09.01-.18.01-.27v-12.37c.03-.6.15-1.95.61-3.52,1.03-3.48,3.77-8.04,11.04-8.02,11.74.04,11.74,11.87,11.74,11.87v12.96c.05-.21.08-.43.1-.66,0-.09.01-.18.01-.27v-12.37c.03-.6.15-1.95.61-3.52,1.03-3.48,3.77-8.04,11.04-8.02,11.74.04,11.74,11.87,11.74,11.87v12.96c.05-.21.08-.43.1-.66,0-.09.01-.18.01-.27v-12.37c.03-.6.14-1.95.61-3.52,1.03-3.48,3.77-8.04,11.04-8.02,11.74.04,11.74,11.87,11.74,11.87v12.83l.11-1.86v-11.3c.03-.6.15-1.95.61-3.52,1.03-3.48,3.77-8.04,11.04-8.02,11.74.04,11.74,11.87,11.74,11.87v12.96c.05-.21.08-.43.1-.66,0-.09,0-.18,0-.27v-12.37c.03-.6.15-1.95.61-3.52,1.03-3.48,3.77-8.04,11.04-8.02,11.74.04,11.74,11.87,11.74,11.87v12.96c.05-.21.08-.43.1-.66,0-.09,0-.18,0-.27v-12.37c.03-.6.15-1.95.61-3.52,1.03-3.48,3.76-8.04,11.04-8.02,11.74.04,11.74,11.87,11.74,11.87v12.96c.05-.21.09-.43.1-.66,0-.09.01-.18.01-.27v-12.37c.03-.6.15-1.95.61-3.52,1.03-3.48,3.77-8.04,11.04-8.02,11.74.04,11.74,11.87,11.74,11.87v12.96c.05-.21.08-.43.1-.66,0-.09.01-.18.01-.27v-12.37c.03-.6.15-1.95.61-3.52,1.03-3.48,3.77-8.04,11.04-8.02,11.74.04,11.74,11.87,11.74,11.87l-.46,23.41Z"/>
  <path class="cls-1" d="M1362.78,35.28c-1.12.32-1.83.5-3.29.5-11.74-.04-11.74-11.87-11.74-11.87v-.99c-.06.28-.09.52-.1.68,0,.12,0,.65,0,.65-.03.6-.15,1.95-.61,3.52-1.03,3.48-3.76,8.04-11.04,8.02-11.74-.04-11.74-11.87-11.74-11.87v-.99c-.06.28-.09.52-.1.68-.01.12-.01.65-.01.65-.03.6-.15,1.95-.61,3.52-1.03,3.48-3.77,8.04-11.04,8.02-11.74-.04-11.74-11.87-11.74-11.87v-.99c-.06.28-.09.52-.1.68,0,.12,0,.65,0,.65-.03.6-.15,1.95-.61,3.52-1.03,3.48-3.77,8.04-11.04,8.02-11.74-.04-11.74-11.87-11.74-11.87v-.99c-.06.28-.09.52-.1.68,0,.12,0,.65,0,.65-.03.6-.14,1.95-.61,3.52-1.03,3.48-3.77,8.04-11.04,8.02-10.16-.03-11.53-8.9-11.71-11.28v-1.65l-.17,1.86c-.06.7-.21,1.81-.58,3.06-1.03,3.48-3.77,8.04-11.04,8.02-11.74-.04-11.74-11.87-11.74-11.87v-.99c-.06.28-.09.52-.1.68-.01.12-.01.65-.01.65-.03.6-.14,1.95-.61,3.52-1.03,3.48-3.77,8.04-11.04,8.02-11.74-.04-11.74-11.87-11.74-11.87v-.99c-.06.28-.09.52-.1.68-.01.12-.01.65-.01.65-.03.6-.15,1.95-.61,3.52-1.03,3.48-3.76,8.04-11.04,8.02-11.74-.04-11.74-11.87-11.74-11.87v-.99c-.06.28-.09.52-.1.68-.01.12-.01.65-.01.65-.03.6-.15,1.95-.61,3.52-1.03,3.48-3.77,8.04-11.04,8.02-11.74-.04-11.74-11.87-11.74-11.87v-.99c-.06.28-.09.52-.1.68,0,.12,0,.65,0,.65-.03.6-.14,1.95-.61,3.52-.83,2.8-2.77,6.31-7.3,7.56V11.6c0,.17,0,.27,0,.27v12.96c.05-.21.08-.43.1-.66,0-.09,0-.18,0-.27v-12.37c.03-.6.15-1.95.61-3.52,1.03-3.48,3.76-8.04,11.04-8.02,11.74.04,11.74,11.87,11.74,11.87v12.96c.05-.21.08-.43.1-.66,0-.09.01-.18.01-.27v-12.37c.03-.6.15-1.95.61-3.52,1.03-3.48,3.77-8.04,11.04-8.02,11.74.04,11.74,11.87,11.74,11.87v12.96c.05-.21.08-.43.1-.66,0-.09.01-.18.01-.27v-12.37c.03-.6.15-1.95.61-3.52,1.03-3.48,3.77-8.04,11.04-8.02,11.74.04,11.74,11.87,11.74,11.87v12.96c.05-.21.08-.43.1-.66,0-.09.01-.18.01-.27v-12.37c.03-.6.14-1.95.61-3.52,1.03-3.48,3.77-8.04,11.04-8.02,11.74.04,11.74,11.87,11.74,11.87v12.83l.11-1.86v-11.3c.03-.6.15-1.95.61-3.52,1.03-3.48,3.77-8.04,11.04-8.02,11.74.04,11.74,11.87,11.74,11.87v12.96c.05-.21.08-.43.1-.66,0-.09,0-.18,0-.27v-12.37c.03-.6.15-1.95.61-3.52,1.03-3.48,3.77-8.04,11.04-8.02,11.74.04,11.74,11.87,11.74,11.87v12.96c.05-.21.08-.43.1-.66,0-.09,0-.18,0-.27v-12.37c.03-.6.15-1.95.61-3.52,1.03-3.48,3.76-8.04,11.04-8.02,11.74.04,11.74,11.87,11.74,11.87v12.96c.05-.21.09-.43.1-.66,0-.09.01-.18.01-.27v-12.37c.03-.6.15-1.95.61-3.52,1.03-3.48,3.77-8.04,11.04-8.02,11.74.04,11.74,11.87,11.74,11.87v12.96c.05-.21.08-.43.1-.66,0-.09.01-.18.01-.27v-12.37c.03-.6.15-1.95.61-3.52,1.03-3.48,3.77-8.04,11.04-8.02,11.74.04,11.74,11.87,11.74,11.87l-.46,23.41Z"/>
  <path class="cls-1" d="M211.64,24.7v10.58c-1.12.32-2.4.5-3.87.5-11.74-.04-11.74-11.87-11.74-11.87v-.99c-.06.28-.09.52-.1.68,0,.12,0,.65,0,.65-.03.6-.15,1.95-.61,3.52-1.03,3.48-3.76,8.04-11.04,8.02-11.74-.04-11.74-11.87-11.74-11.87v-.99c-.06.28-.09.52-.1.68-.01.12-.01.65-.01.65-.03.6-.15,1.95-.61,3.52-1.03,3.48-3.77,8.04-11.04,8.02-11.74-.04-11.74-11.87-11.74-11.87v-.99c-.06.28-.09.52-.1.68,0,.12,0,.65,0,.65-.03.6-.15,1.95-.61,3.52-1.03,3.48-3.76,8.04-11.04,8.02-11.74-.04-11.74-11.87-11.74-11.87v-.99c-.06.28-.09.52-.1.68-.01.12-.01.65-.01.65-.03.6-.14,1.95-.61,3.52-1.03,3.48-3.77,8.04-11.04,8.02-10.16-.03-11.53-8.9-11.71-11.28v-1.65l-.17,1.86c-.06.7-.21,1.81-.58,3.06-1.03,3.48-3.77,8.04-11.04,8.02-11.74-.04-11.74-11.87-11.74-11.87v-.99c-.06.28-.09.52-.1.68-.01.12-.01.65-.01.65-.03.6-.14,1.95-.61,3.52-1.03,3.48-3.77,8.04-11.04,8.02-11.74-.04-11.74-11.87-11.74-11.87v-.99c-.06.28-.09.52-.1.68-.01.12-.01.65-.01.65-.03.6-.15,1.95-.61,3.52-1.03,3.48-3.76,8.04-11.04,8.02-11.74-.04-11.74-11.87-11.74-11.87v-.99c-.06.28-.09.52-.1.68-.01.12-.01.65-.01.65-.03.6-.15,1.95-.61,3.52-1.03,3.48-3.77,8.04-11.04,8.02-11.74-.04-11.74-11.87-11.74-11.87v-.99c-.06.28-.09.52-.1.68,0,.12,0,.65,0,.65-.03.6-.15,1.95-.61,3.52-.83,2.8-2.77,6.31-7.3,7.56V11.6c0,.17,0,.27,0,.27v12.96c.05-.21.08-.43.1-.66,0-.09,0-.18,0-.27v-12.37c.03-.6.15-1.95.61-3.52C1.76,4.54,4.49-.02,11.77,0c11.74.04,11.74,11.87,11.74,11.87v12.96c.05-.21.08-.43.1-.66,0-.09.01-.18.01-.27v-12.37c.03-.6.15-1.95.61-3.52C25.26,4.54,27.99-.02,35.27,0c11.74.04,11.74,11.87,11.74,11.87v12.96c.05-.21.08-.43.1-.66,0-.09.01-.18.01-.27v-12.37c.03-.6.15-1.95.61-3.52C48.76,4.54,51.5-.02,58.77,0c11.74.04,11.74,11.87,11.74,11.87v12.96c.05-.21.08-.43.1-.66,0-.09.01-.18.01-.27v-12.37c.03-.6.14-1.95.61-3.52C72.26,4.54,75-.02,82.28,0c11.74.04,11.74,11.87,11.74,11.87v12.83l.11-1.86v-11.3c.03-.6.15-1.95.61-3.52C95.76,4.54,98.5-.02,105.78,0c11.74.04,11.74,11.87,11.74,11.87v12.96c.05-.21.08-.43.1-.66,0-.09,0-.18,0-.27v-12.37c.03-.6.15-1.95.61-3.52C119.27,4.54,122-.02,129.28,0c11.74.04,11.74,11.87,11.74,11.87v12.96c.05-.21.08-.43.1-.66,0-.09.01-.18.01-.27v-12.37c.03-.6.15-1.95.61-3.52C142.77,4.54,145.51-.02,152.78,0c11.74.04,11.74,11.87,11.74,11.87v12.96c.05-.21.08-.43.1-.66,0-.09.01-.18.01-.27v-12.37c.03-.6.14-1.95.61-3.52C166.27,4.54,169.01-.02,176.28,0c11.74.04,11.74,11.87,11.74,11.87v12.96c.05-.21.08-.43.1-.66,0-.09.01-.18.01-.27v-12.37c.03-.6.15-1.95.61-3.52C189.77,4.54,192.51-.02,199.79,0c11.74.04,11.74,11.87,11.74,11.87v12.83h.11Z"/>
  <path class="cls-1" d="M375.86,35.28c-1.12.32-1.83.5-3.29.5-11.74-.04-11.74-11.87-11.74-11.87v-.99c-.06.28-.09.52-.1.68-.01.12-.01.65-.01.65-.03.6-.15,1.95-.61,3.52-1.03,3.48-3.77,8.04-11.04,8.02-11.74-.04-11.74-11.87-11.74-11.87v-.99c-.06.28-.09.52-.1.68-.01.12-.01.65-.01.65-.03.6-.15,1.95-.61,3.52-1.03,3.48-3.77,8.04-11.04,8.02-11.74-.04-11.74-11.87-11.74-11.87v-.99c-.06.28-.09.52-.1.68-.01.12-.01.65-.01.65-.03.6-.15,1.95-.61,3.52-1.03,3.48-3.77,8.04-11.04,8.02-11.74-.04-11.74-11.87-11.74-11.87v-.99c-.06.28-.09.52-.1.68,0,.12,0,.65,0,.65-.03.6-.14,1.95-.61,3.52-1.03,3.48-3.77,8.04-11.04,8.02-10.16-.03-11.53-8.9-11.71-11.28v-1.65l-.17,1.86c-.06.7-.21,1.81-.58,3.06-1.03,3.48-3.77,8.04-11.04,8.02-11.74-.04-11.74-11.87-11.74-11.87v-.99c-.06.28-.09.52-.1.68-.01.12-.01.65-.01.65-.03.6-.14,1.95-.61,3.52-1.03,3.48-3.77,8.04-11.04,8.02-11.74-.04-11.74-11.87-11.74-11.87v-.99c-.06.28-.09.52-.1.68-.01.12-.01.65-.01.65-.03.6-.15,1.95-.61,3.52-1.03,3.48-3.76,8.04-11.04,8.02-11.74-.04-11.74-11.87-11.74-11.87v-.99c-.06.28-.09.52-.1.68-.01.12-.01.65-.01.65-.03.6-.15,1.95-.61,3.52-1.03,3.48-3.77,8.04-11.04,8.02-11.74-.04-11.74-11.87-11.74-11.87v-.99c-.06.28-.09.52-.1.68-.01.12-.01.65-.01.65-.03.6-.14,1.95-.61,3.52-.83,2.8-2.77,6.31-7.3,7.56V11.6c0,.17,0,.27,0,.27v12.96c.05-.21.08-.43.1-.66,0-.09,0-.18,0-.27v-12.37c.03-.6.15-1.95.61-3.52C166.54,4.54,169.28-.02,176.56,0c11.74.04,11.74,11.87,11.74,11.87v12.96c.05-.21.08-.43.1-.66,0-.09.01-.18.01-.27v-12.37c.03-.6.15-1.95.61-3.52C190.05,4.54,192.78-.02,200.06,0c11.74.04,11.74,11.87,11.74,11.87v12.96c.05-.21.08-.43.1-.66,0-.09.01-.18.01-.27v-12.37c.03-.6.15-1.95.61-3.52C213.55,4.54,216.28-.02,223.56,0c11.74.04,11.74,11.87,11.74,11.87v12.96c.05-.21.08-.43.1-.66,0-.09.01-.18.01-.27v-12.37c.03-.6.14-1.95.61-3.52C237.05,4.54,239.79-.02,247.06,0c11.74.04,11.74,11.87,11.74,11.87v12.83l.11-1.86v-11.3c.03-.6.15-1.95.61-3.52C260.55,4.54,263.29-.02,270.57,0c11.74.04,11.74,11.87,11.74,11.87v12.96c.05-.21.08-.43.1-.66,0-.09.01-.18.01-.27v-12.37c.03-.6.14-1.95.61-3.52C284.06,4.54,286.79-.02,294.07,0c11.74.04,11.74,11.87,11.74,11.87v12.96c.05-.21.08-.43.1-.66,0-.09,0-.18,0-.27v-12.37c.03-.6.15-1.95.61-3.52C307.56,4.54,310.29-.02,317.57,0c11.74.04,11.74,11.87,11.74,11.87v12.96c.05-.21.08-.43.1-.66,0-.09.01-.18.01-.27v-12.37c.03-.6.15-1.95.61-3.52C331.06,4.54,333.8-.02,341.07,0c11.74.04,11.74,11.87,11.74,11.87v12.96c.05-.21.08-.43.1-.66,0-.09.01-.18.01-.27v-12.37c.03-.6.15-1.95.61-3.52C354.56,4.54,357.3-.02,364.58,0c11.74.04,11.74,11.87,11.74,11.87l-.46,23.41Z"/>
  <path class="cls-1" d="M563.47,35.28c-1.12.32-1.83.5-3.29.5-11.74-.04-11.74-11.87-11.74-11.87v-.99c-.06.28-.09.52-.1.68-.01.12-.01.65-.01.65-.03.6-.15,1.95-.61,3.52-1.03,3.48-3.77,8.04-11.04,8.02-11.74-.04-11.74-11.87-11.74-11.87v-.99c-.06.28-.09.52-.1.68-.01.12-.01.65-.01.65-.03.6-.15,1.95-.61,3.52-1.03,3.48-3.77,8.04-11.04,8.02-11.74-.04-11.74-11.87-11.74-11.87v-.99c-.06.28-.09.52-.1.68,0,.12,0,.65,0,.65-.03.6-.15,1.95-.61,3.52-1.03,3.48-3.77,8.04-11.04,8.02-11.74-.04-11.74-11.87-11.74-11.87v-.99c-.06.28-.09.52-.1.68-.01.12-.01.65-.01.65-.03.6-.14,1.95-.61,3.52-1.03,3.48-3.77,8.04-11.04,8.02-10.16-.03-11.53-8.9-11.71-11.28v-1.65l-.17,1.86c-.06.7-.21,1.81-.58,3.06-1.03,3.48-3.77,8.04-11.04,8.02-11.74-.04-11.74-11.87-11.74-11.87v-.99c-.06.28-.09.52-.1.68-.01.12-.01.65-.01.65-.03.6-.15,1.95-.61,3.52-1.03,3.48-3.77,8.04-11.04,8.02-11.74-.04-11.74-11.87-11.74-11.87v-.99c-.06.28-.09.52-.1.68-.01.12-.01.65-.01.65-.03.6-.15,1.95-.61,3.52-1.03,3.48-3.76,8.04-11.04,8.02-11.74-.04-11.74-11.87-11.74-11.87v-.99c-.06.28-.09.52-.1.68-.01.12-.01.65-.01.65-.03.6-.15,1.95-.61,3.52-1.03,3.48-3.77,8.04-11.04,8.02-11.74-.04-11.74-11.87-11.74-11.87v-.99c-.06.28-.09.52-.1.68,0,.12,0,.65,0,.65-.03.6-.15,1.95-.61,3.52-.83,2.8-2.77,6.31-7.3,7.56V11.6c0,.17,0,.27,0,.27v12.96c.05-.21.08-.43.1-.66,0-.09.01-.18.01-.27v-12.37c.03-.6.15-1.95.61-3.52C354.16,4.54,356.89-.02,364.17,0c11.74.04,11.74,11.87,11.74,11.87v12.96c.05-.21.08-.43.1-.66,0-.09.01-.18.01-.27v-12.37c.03-.6.15-1.95.61-3.52C377.66,4.54,380.4-.02,387.67,0c11.74.04,11.74,11.87,11.74,11.87v12.96c.05-.21.08-.43.1-.66,0-.09.01-.18.01-.27v-12.37c.03-.6.15-1.95.61-3.52C401.16,4.54,403.9-.02,411.17,0c11.74.04,11.74,11.87,11.74,11.87v12.96c.05-.21.08-.43.1-.66,0-.09.01-.18.01-.27v-12.37c.03-.6.15-1.95.61-3.52C424.66,4.54,427.4-.02,434.68,0c11.74.04,11.74,11.87,11.74,11.87v12.83l.11-1.86v-11.3c.03-.6.15-1.95.61-3.52C448.17,4.54,450.9-.02,458.18,0c11.74.04,11.74,11.87,11.74,11.87v12.96c.05-.21.08-.43.1-.66,0-.09,0-.18,0-.27v-12.37c.03-.6.15-1.95.61-3.52C471.67,4.54,474.4-.02,481.68,0c11.74.04,11.74,11.87,11.74,11.87v12.96c.05-.21.08-.43.1-.66,0-.09,0-.18,0-.27v-12.37c.03-.6.15-1.95.61-3.52C495.17,4.54,497.91-.02,505.18,0c11.74.04,11.74,11.87,11.74,11.87v12.96c.05-.21.08-.43.1-.66,0-.09.01-.18.01-.27v-12.37c.03-.6.15-1.95.61-3.52C518.67,4.54,521.41-.02,528.69,0c11.74.04,11.74,11.87,11.74,11.87v12.96c.05-.21.08-.43.1-.66,0-.09.01-.18.01-.27v-12.37c.03-.6.15-1.95.61-3.52C542.17,4.54,544.91-.02,552.19,0c11.74.04,11.74,11.87,11.74,11.87l-.46,23.41Z"/>
  <path class="cls-1" d="M727.73,35.28c-1.12.32-1.83.5-3.29.5-11.74-.04-11.74-11.87-11.74-11.87v-.99c-.06.28-.09.52-.1.68-.01.12-.01.65-.01.65-.03.6-.15,1.95-.61,3.52-1.03,3.48-3.77,8.04-11.04,8.02-11.74-.04-11.74-11.87-11.74-11.87v-.99c-.06.28-.09.52-.1.68-.01.12-.01.65-.01.65-.03.6-.15,1.95-.61,3.52-1.03,3.48-3.77,8.04-11.04,8.02-11.74-.04-11.74-11.87-11.74-11.87v-.99c-.06.28-.09.52-.1.68-.01.12-.01.65-.01.65-.03.6-.15,1.95-.61,3.52-1.03,3.48-3.77,8.04-11.04,8.02-11.74-.04-11.74-11.87-11.74-11.87v-.99c-.06.28-.09.52-.1.68,0,.12,0,.65,0,.65-.03.6-.15,1.95-.61,3.52-1.03,3.48-3.77,8.04-11.04,8.02-10.16-.03-11.53-8.9-11.71-11.28v-1.65l-.17,1.86c-.06.7-.21,1.81-.58,3.06-1.03,3.48-3.77,8.04-11.04,8.02-11.74-.04-11.74-11.87-11.74-11.87v-.99c-.06.28-.09.52-.1.68-.01.12-.01.65-.01.65-.03.6-.15,1.95-.61,3.52-1.03,3.48-3.77,8.04-11.04,8.02-11.74-.04-11.74-11.87-11.74-11.87v-.99c-.06.28-.09.52-.1.68-.01.12-.01.65-.01.65-.03.6-.15,1.95-.61,3.52-1.03,3.48-3.76,8.04-11.04,8.02-11.74-.04-11.74-11.87-11.74-11.87v-.99c-.06.28-.09.52-.1.68-.01.12-.01.65-.01.65-.03.6-.15,1.95-.61,3.52-1.03,3.48-3.77,8.04-11.04,8.02-11.74-.04-11.74-11.87-11.74-11.87v-.99c-.06.28-.09.52-.1.68,0,.12,0,.65,0,.65-.03.6-.15,1.95-.61,3.52-.83,2.8-2.77,6.31-7.3,7.56V11.6c0,.17,0,.27,0,.27v12.96c.05-.21.08-.43.1-.66,0-.09.01-.18.01-.27v-12.37c.03-.6.15-1.95.61-3.52C518.42,4.54,521.16-.02,528.43,0c11.74.04,11.74,11.87,11.74,11.87v12.96c.05-.21.08-.43.1-.66,0-.09.01-.18.01-.27v-12.37c.03-.6.15-1.95.61-3.52C541.92,4.54,544.66-.02,551.93,0c11.74.04,11.74,11.87,11.74,11.87v12.96c.05-.21.08-.43.1-.66,0-.09.01-.18.01-.27v-12.37c.03-.6.15-1.95.61-3.52C565.42,4.54,568.16-.02,575.44,0c11.74.04,11.74,11.87,11.74,11.87v12.96c.05-.21.08-.43.1-.66,0-.09.01-.18.01-.27v-12.37c.03-.6.15-1.95.61-3.52C588.93,4.54,591.66-.02,598.94,0c11.74.04,11.74,11.87,11.74,11.87v12.83l.11-1.86v-11.3c.03-.6.15-1.95.61-3.52C612.43,4.54,615.16-.02,622.44,0c11.74.04,11.74,11.87,11.74,11.87v12.96c.05-.21.08-.43.1-.66,0-.09.01-.18.01-.27v-12.37c.03-.6.14-1.95.61-3.52C635.93,4.54,638.67-.02,645.94,0c11.74.04,11.74,11.87,11.74,11.87v12.96c.05-.21.08-.43.1-.66,0-.09,0-.18,0-.27v-12.37c.03-.6.15-1.95.61-3.52C659.43,4.54,662.17-.02,669.45,0c11.74.04,11.74,11.87,11.74,11.87v12.96c.05-.21.08-.43.1-.66,0-.09.01-.18.01-.27v-12.37c.03-.6.15-1.95.61-3.52C682.93,4.54,685.67-.02,692.95,0c11.74.04,11.74,11.87,11.74,11.87v12.96c.05-.21.08-.43.1-.66,0-.09.01-.18.01-.27v-12.37c.03-.6.15-1.95.61-3.52C706.44,4.54,709.17-.02,716.45,0c11.74.04,11.74,11.87,11.74,11.87l-.46,23.41Z"/>
</svg>