<?xml version="1.0" encoding="UTF-8"?>
<svg id="Calque_1" data-name="Calque 1" xmlns="http://www.w3.org/2000/svg" viewBox="0 0 2068.69 36.77">
  <defs>
    <style>
      .cls-1 {
        fill: #057578;
      }

      .cls-2 {
        fill: none;
        stroke: #057578;
        stroke-miterlimit: 10;
      }
    </style>
  </defs>
  <path class="cls-1" d="M1551.64,25.2v10.58c-1.12.32-2.4.5-3.87.5-11.74-.04-11.74-11.87-11.74-11.87v-.99c-.06.28-.09.52-.1.68,0,.12,0,.65,0,.65-.03.6-.15,1.95-.61,3.52-1.03,3.48-3.76,8.04-11.04,8.02-11.74-.04-11.74-11.87-11.74-11.87v-.99c-.06.28-.09.52-.1.68-.01.12-.01.65-.01.65-.03.6-.15,1.95-.61,3.52-1.03,3.48-3.77,8.04-11.04,8.02-11.74-.04-11.74-11.87-11.74-11.87v-.99c-.06.28-.09.52-.1.68,0,.12,0,.65,0,.65-.03.6-.15,1.95-.61,3.52-1.03,3.48-3.76,8.04-11.04,8.02-11.74-.04-11.74-11.87-11.74-11.87v-.99c-.06.28-.09.52-.1.68-.01.12-.01.65-.01.65-.03.6-.14,1.95-.61,3.52-1.03,3.48-3.77,8.04-11.04,8.02-10.16-.03-11.53-8.9-11.71-11.28v-1.65l-.17,1.86c-.06.7-.21,1.81-.58,3.06-1.03,3.48-3.77,8.04-11.04,8.02-11.74-.04-11.74-11.87-11.74-11.87v-.99c-.06.28-.09.52-.1.68-.01.12-.01.65-.01.65-.03.6-.14,1.95-.61,3.52-1.03,3.48-3.77,8.04-11.04,8.02-11.74-.04-11.74-11.87-11.74-11.87v-.99c-.06.28-.09.52-.1.68-.01.12-.01.65-.01.65-.03.6-.15,1.95-.61,3.52-1.03,3.48-3.76,8.04-11.04,8.02-11.74-.04-11.74-11.87-11.74-11.87v-.99c-.06.28-.09.52-.1.68-.01.12-.01.65-.01.65-.03.6-.15,1.95-.61,3.52-1.03,3.48-3.77,8.04-11.04,8.02-11.74-.04-11.74-11.87-11.74-11.87v-.99c-.06.28-.09.52-.1.68,0,.12,0,.65,0,.65-.03.6-.15,1.95-.61,3.52-.83,2.8-2.77,6.31-7.3,7.56V12.1c0,.17,0,.27,0,.27v12.96c.05-.21.08-.43.1-.66,0-.09,0-.18,0-.27v-12.37c.03-.6.15-1.95.61-3.52,1.03-3.48,3.76-8.04,11.04-8.02,11.74.04,11.74,11.87,11.74,11.87v12.96c.05-.21.08-.43.1-.66,0-.09.01-.18.01-.27v-12.37c.03-.6.15-1.95.61-3.52,1.03-3.48,3.77-8.04,11.04-8.02,11.74.04,11.74,11.87,11.74,11.87v12.96c.05-.21.08-.43.1-.66,0-.09.01-.18.01-.27v-12.37c.03-.6.15-1.95.61-3.52,1.03-3.48,3.77-8.04,11.04-8.02,11.74.04,11.74,11.87,11.74,11.87v12.96c.05-.21.08-.43.1-.66,0-.09.01-.18.01-.27v-12.37c.03-.6.14-1.95.61-3.52,1.03-3.48,3.77-8.04,11.04-8.02,11.74.04,11.74,11.87,11.74,11.87v12.83l.11-1.86v-11.3c.03-.6.15-1.95.61-3.52,1.03-3.48,3.77-8.04,11.04-8.02,11.74.04,11.74,11.87,11.74,11.87v12.96c.05-.21.08-.43.1-.66,0-.09,0-.18,0-.27v-12.37c.03-.6.15-1.95.61-3.52,1.03-3.48,3.77-8.04,11.04-8.02,11.74.04,11.74,11.87,11.74,11.87v12.96c.05-.21.08-.43.1-.66,0-.09.01-.18.01-.27v-12.37c.03-.6.15-1.95.61-3.52,1.03-3.48,3.76-8.04,11.04-8.02,11.74.04,11.74,11.87,11.74,11.87v12.96c.05-.21.08-.43.1-.66,0-.09.01-.18.01-.27v-12.37c.03-.6.14-1.95.61-3.52,1.03-3.48,3.77-8.04,11.04-8.02,11.74.04,11.74,11.87,11.74,11.87v12.96c.05-.21.08-.43.1-.66,0-.09.01-.18.01-.27v-12.37c.03-.6.15-1.95.61-3.52,1.03-3.48,3.77-8.04,11.04-8.02,11.74.04,11.74,11.87,11.74,11.87v12.83h.11Z"/>
  <path class="cls-2" d="M1551.64,25.2v10.58c-1.12.32-2.4.5-3.87.5-11.74-.04-11.74-11.87-11.74-11.87v-.99c-.06.28-.09.52-.1.68,0,.12,0,.65,0,.65-.03.6-.15,1.95-.61,3.52-1.03,3.48-3.76,8.04-11.04,8.02-11.74-.04-11.74-11.87-11.74-11.87v-.99c-.06.28-.09.52-.1.68-.01.12-.01.65-.01.65-.03.6-.15,1.95-.61,3.52-1.03,3.48-3.77,8.04-11.04,8.02-11.74-.04-11.74-11.87-11.74-11.87v-.99c-.06.28-.09.52-.1.68,0,.12,0,.65,0,.65-.03.6-.15,1.95-.61,3.52-1.03,3.48-3.76,8.04-11.04,8.02-11.74-.04-11.74-11.87-11.74-11.87v-.99c-.06.28-.09.52-.1.68-.01.12-.01.65-.01.65-.03.6-.14,1.95-.61,3.52-1.03,3.48-3.77,8.04-11.04,8.02-10.16-.03-11.53-8.9-11.71-11.28v-1.65l-.17,1.86c-.06.7-.21,1.81-.58,3.06-1.03,3.48-3.77,8.04-11.04,8.02-11.74-.04-11.74-11.87-11.74-11.87v-.99c-.06.28-.09.52-.1.68-.01.12-.01.65-.01.65-.03.6-.14,1.95-.61,3.52-1.03,3.48-3.77,8.04-11.04,8.02-11.74-.04-11.74-11.87-11.74-11.87v-.99c-.06.28-.09.52-.1.68-.01.12-.01.65-.01.65-.03.6-.15,1.95-.61,3.52-1.03,3.48-3.76,8.04-11.04,8.02-11.74-.04-11.74-11.87-11.74-11.87v-.99c-.06.28-.09.52-.1.68-.01.12-.01.65-.01.65-.03.6-.15,1.95-.61,3.52-1.03,3.48-3.77,8.04-11.04,8.02-11.74-.04-11.74-11.87-11.74-11.87v-.99c-.06.28-.09.52-.1.68,0,.12,0,.65,0,.65-.03.6-.15,1.95-.61,3.52-.83,2.8-2.77,6.31-7.3,7.56V12.1c0,.17,0,.27,0,.27v12.96c.05-.21.08-.43.1-.66,0-.09,0-.18,0-.27v-12.37c.03-.6.15-1.95.61-3.52,1.03-3.48,3.76-8.04,11.04-8.02,11.74.04,11.74,11.87,11.74,11.87v12.96c.05-.21.08-.43.1-.66,0-.09.01-.18.01-.27v-12.37c.03-.6.15-1.95.61-3.52,1.03-3.48,3.77-8.04,11.04-8.02,11.74.04,11.74,11.87,11.74,11.87v12.96c.05-.21.08-.43.1-.66,0-.09.01-.18.01-.27v-12.37c.03-.6.15-1.95.61-3.52,1.03-3.48,3.77-8.04,11.04-8.02,11.74.04,11.74,11.87,11.74,11.87v12.96c.05-.21.08-.43.1-.66,0-.09.01-.18.01-.27v-12.37c.03-.6.14-1.95.61-3.52,1.03-3.48,3.77-8.04,11.04-8.02,11.74.04,11.74,11.87,11.74,11.87v12.83l.11-1.86v-11.3c.03-.6.15-1.95.61-3.52,1.03-3.48,3.77-8.04,11.04-8.02,11.74.04,11.74,11.87,11.74,11.87v12.96c.05-.21.08-.43.1-.66,0-.09,0-.18,0-.27v-12.37c.03-.6.15-1.95.61-3.52,1.03-3.48,3.77-8.04,11.04-8.02,11.74.04,11.74,11.87,11.74,11.87v12.96c.05-.21.08-.43.1-.66,0-.09.01-.18.01-.27v-12.37c.03-.6.15-1.95.61-3.52,1.03-3.48,3.76-8.04,11.04-8.02,11.74.04,11.74,11.87,11.74,11.87v12.96c.05-.21.08-.43.1-.66,0-.09.01-.18.01-.27v-12.37c.03-.6.14-1.95.61-3.52,1.03-3.48,3.77-8.04,11.04-8.02,11.74.04,11.74,11.87,11.74,11.87v12.96c.05-.21.08-.43.1-.66,0-.09.01-.18.01-.27v-12.37c.03-.6.15-1.95.61-3.52,1.03-3.48,3.77-8.04,11.04-8.02,11.74.04,11.74,11.87,11.74,11.87v12.83h.11Z"/>
  <path class="cls-1" d="M1715.86,35.78c-1.12.32-1.83.5-3.29.5-11.74-.04-11.74-11.87-11.74-11.87v-.99c-.06.28-.09.52-.1.68-.01.12-.01.65-.01.65-.03.6-.15,1.95-.61,3.52-1.03,3.48-3.77,8.04-11.04,8.02-11.74-.04-11.74-11.87-11.74-11.87v-.99c-.06.28-.09.52-.1.68-.01.12-.01.65-.01.65-.03.6-.15,1.95-.61,3.52-1.03,3.48-3.77,8.04-11.04,8.02-11.74-.04-11.74-11.87-11.74-11.87v-.99c-.06.28-.09.52-.1.68-.01.12-.01.65-.01.65-.03.6-.15,1.95-.61,3.52-1.03,3.48-3.77,8.04-11.04,8.02-11.74-.04-11.74-11.87-11.74-11.87v-.99c-.06.28-.09.52-.1.68,0,.12,0,.65,0,.65-.03.6-.14,1.95-.61,3.52-1.03,3.48-3.77,8.04-11.04,8.02-10.16-.03-11.53-8.9-11.71-11.28v-1.65l-.17,1.86c-.06.7-.21,1.81-.58,3.06-1.03,3.48-3.77,8.04-11.04,8.02-11.74-.04-11.74-11.87-11.74-11.87v-.99c-.06.28-.09.52-.1.68-.01.12-.01.65-.01.65-.03.6-.14,1.95-.61,3.52-1.03,3.48-3.77,8.04-11.04,8.02-11.74-.04-11.74-11.87-11.74-11.87v-.99c-.06.28-.09.52-.1.68-.01.12-.01.65-.01.65-.03.6-.15,1.95-.61,3.52-1.03,3.48-3.76,8.04-11.04,8.02-11.74-.04-11.74-11.87-11.74-11.87v-.99c-.06.28-.09.52-.1.68-.01.12-.01.65-.01.65-.03.6-.15,1.95-.61,3.52-1.03,3.48-3.77,8.04-11.04,8.02-11.74-.04-11.74-11.87-11.74-11.87v-.99c-.06.28-.09.52-.1.68-.01.12-.01.65-.01.65-.03.6-.14,1.95-.61,3.52-.83,2.8-2.77,6.31-7.3,7.56V12.1c0,.17,0,.27,0,.27v12.96c.05-.21.08-.43.1-.66,0-.09,0-.18,0-.27v-12.37c.03-.6.15-1.95.61-3.52,1.03-3.48,3.76-8.04,11.04-8.02,11.74.04,11.74,11.87,11.74,11.87v12.96c.05-.21.08-.43.1-.66,0-.09.01-.18.01-.27v-12.37c.03-.6.15-1.95.61-3.52,1.03-3.48,3.77-8.04,11.04-8.02,11.74.04,11.74,11.87,11.74,11.87v12.96c.05-.21.08-.43.1-.66,0-.09.01-.18.01-.27v-12.37c.03-.6.15-1.95.61-3.52,1.03-3.48,3.77-8.04,11.04-8.02,11.74.04,11.74,11.87,11.74,11.87v12.96c.05-.21.08-.43.1-.66,0-.09.01-.18.01-.27v-12.37c.03-.6.14-1.95.61-3.52,1.03-3.48,3.77-8.04,11.04-8.02,11.74.04,11.74,11.87,11.74,11.87v12.83l.11-1.86v-11.3c.03-.6.15-1.95.61-3.52,1.03-3.48,3.77-8.04,11.04-8.02,11.74.04,11.74,11.87,11.74,11.87v12.96c.05-.21.08-.43.1-.66,0-.09.01-.18.01-.27v-12.37c.03-.6.14-1.95.61-3.52,1.03-3.48,3.77-8.04,11.04-8.02,11.74.04,11.74,11.87,11.74,11.87v12.96c.05-.21.08-.43.1-.66,0-.09,0-.18,0-.27v-12.37c.03-.6.15-1.95.61-3.52,1.03-3.48,3.76-8.04,11.04-8.02,11.74.04,11.74,11.87,11.74,11.87v12.96c.05-.21.08-.43.1-.66,0-.09.01-.18.01-.27v-12.37c.03-.6.15-1.95.61-3.52,1.03-3.48,3.77-8.04,11.04-8.02,11.74.04,11.74,11.87,11.74,11.87v12.96c.05-.21.08-.43.1-.66,0-.09.01-.18.01-.27v-12.37c.03-.6.15-1.95.61-3.52,1.03-3.48,3.77-8.04,11.04-8.02,11.74.04,11.74,11.87,11.74,11.87l-.46,23.41Z"/>
  <path class="cls-2" d="M1715.86,35.78c-1.12.32-1.83.5-3.29.5-11.74-.04-11.74-11.87-11.74-11.87v-.99c-.06.28-.09.52-.1.68-.01.12-.01.65-.01.65-.03.6-.15,1.95-.61,3.52-1.03,3.48-3.77,8.04-11.04,8.02-11.74-.04-11.74-11.87-11.74-11.87v-.99c-.06.28-.09.52-.1.68-.01.12-.01.65-.01.65-.03.6-.15,1.95-.61,3.52-1.03,3.48-3.77,8.04-11.04,8.02-11.74-.04-11.74-11.87-11.74-11.87v-.99c-.06.28-.09.52-.1.68-.01.12-.01.65-.01.65-.03.6-.15,1.95-.61,3.52-1.03,3.48-3.77,8.04-11.04,8.02-11.74-.04-11.74-11.87-11.74-11.87v-.99c-.06.28-.09.52-.1.68,0,.12,0,.65,0,.65-.03.6-.14,1.95-.61,3.52-1.03,3.48-3.77,8.04-11.04,8.02-10.16-.03-11.53-8.9-11.71-11.28v-1.65l-.17,1.86c-.06.7-.21,1.81-.58,3.06-1.03,3.48-3.77,8.04-11.04,8.02-11.74-.04-11.74-11.87-11.74-11.87v-.99c-.06.28-.09.52-.1.68-.01.12-.01.65-.01.65-.03.6-.14,1.95-.61,3.52-1.03,3.48-3.77,8.04-11.04,8.02-11.74-.04-11.74-11.87-11.74-11.87v-.99c-.06.28-.09.52-.1.68-.01.12-.01.65-.01.65-.03.6-.15,1.95-.61,3.52-1.03,3.48-3.76,8.04-11.04,8.02-11.74-.04-11.74-11.87-11.74-11.87v-.99c-.06.28-.09.52-.1.68-.01.12-.01.65-.01.65-.03.6-.15,1.95-.61,3.52-1.03,3.48-3.77,8.04-11.04,8.02-11.74-.04-11.74-11.87-11.74-11.87v-.99c-.06.28-.09.52-.1.68-.01.12-.01.65-.01.65-.03.6-.14,1.95-.61,3.52-.83,2.8-2.77,6.31-7.3,7.56V12.1c0,.17,0,.27,0,.27v12.96c.05-.21.08-.43.1-.66,0-.09,0-.18,0-.27v-12.37c.03-.6.15-1.95.61-3.52,1.03-3.48,3.76-8.04,11.04-8.02,11.74.04,11.74,11.87,11.74,11.87v12.96c.05-.21.08-.43.1-.66,0-.09.01-.18.01-.27v-12.37c.03-.6.15-1.95.61-3.52,1.03-3.48,3.77-8.04,11.04-8.02,11.74.04,11.74,11.87,11.74,11.87v12.96c.05-.21.08-.43.1-.66,0-.09.01-.18.01-.27v-12.37c.03-.6.15-1.95.61-3.52,1.03-3.48,3.77-8.04,11.04-8.02,11.74.04,11.74,11.87,11.74,11.87v12.96c.05-.21.08-.43.1-.66,0-.09.01-.18.01-.27v-12.37c.03-.6.14-1.95.61-3.52,1.03-3.48,3.77-8.04,11.04-8.02,11.74.04,11.74,11.87,11.74,11.87v12.83l.11-1.86v-11.3c.03-.6.15-1.95.61-3.52,1.03-3.48,3.77-8.04,11.04-8.02,11.74.04,11.74,11.87,11.74,11.87v12.96c.05-.21.08-.43.1-.66,0-.09.01-.18.01-.27v-12.37c.03-.6.14-1.95.61-3.52,1.03-3.48,3.77-8.04,11.04-8.02,11.74.04,11.74,11.87,11.74,11.87v12.96c.05-.21.08-.43.1-.66,0-.09,0-.18,0-.27v-12.37c.03-.6.15-1.95.61-3.52,1.03-3.48,3.76-8.04,11.04-8.02,11.74.04,11.74,11.87,11.74,11.87v12.96c.05-.21.08-.43.1-.66,0-.09.01-.18.01-.27v-12.37c.03-.6.15-1.95.61-3.52,1.03-3.48,3.77-8.04,11.04-8.02,11.74.04,11.74,11.87,11.74,11.87v12.96c.05-.21.08-.43.1-.66,0-.09.01-.18.01-.27v-12.37c.03-.6.15-1.95.61-3.52,1.03-3.48,3.77-8.04,11.04-8.02,11.74.04,11.74,11.87,11.74,11.87l-.46,23.41Z"/>
  <path class="cls-1" d="M1903.47,35.78c-1.12.32-1.83.5-3.29.5-11.74-.04-11.74-11.87-11.74-11.87v-.99c-.06.28-.09.52-.1.68-.01.12-.01.65-.01.65-.03.6-.15,1.95-.61,3.52-1.03,3.48-3.77,8.04-11.04,8.02-11.74-.04-11.74-11.87-11.74-11.87v-.99c-.06.28-.09.52-.1.68-.01.12-.01.65-.01.65-.03.6-.15,1.95-.61,3.52-1.03,3.48-3.77,8.04-11.04,8.02-11.74-.04-11.74-11.87-11.74-11.87v-.99c-.06.28-.09.52-.1.68,0,.12,0,.65,0,.65-.03.6-.15,1.95-.61,3.52-1.03,3.48-3.77,8.04-11.04,8.02-11.74-.04-11.74-11.87-11.74-11.87v-.99c-.06.28-.09.52-.1.68-.01.12-.01.65-.01.65-.03.6-.14,1.95-.61,3.52-1.03,3.48-3.77,8.04-11.04,8.02-10.16-.03-11.53-8.9-11.71-11.28v-1.65l-.17,1.86c-.06.7-.21,1.81-.58,3.06-1.03,3.48-3.77,8.04-11.04,8.02-11.74-.04-11.74-11.87-11.74-11.87v-.99c-.06.28-.09.52-.1.68-.01.12-.01.65-.01.65-.03.6-.15,1.95-.61,3.52-1.03,3.48-3.77,8.04-11.04,8.02-11.74-.04-11.74-11.87-11.74-11.87v-.99c-.06.28-.09.52-.1.68-.01.12-.01.65-.01.65-.03.6-.15,1.95-.61,3.52-1.03,3.48-3.76,8.04-11.04,8.02-11.74-.04-11.74-11.87-11.74-11.87v-.99c-.06.28-.09.52-.1.68-.01.12-.01.65-.01.65-.03.6-.15,1.95-.61,3.52-1.03,3.48-3.77,8.04-11.04,8.02-11.74-.04-11.74-11.87-11.74-11.87v-.99c-.06.28-.09.52-.1.68,0,.12,0,.65,0,.65-.03.6-.15,1.95-.61,3.52-.83,2.8-2.77,6.31-7.3,7.56V12.1c0,.17,0,.27,0,.27v12.96c.05-.21.08-.43.1-.66,0-.09.01-.18.01-.27v-12.37c.03-.6.15-1.95.61-3.52,1.03-3.48,3.77-8.04,11.04-8.02,11.74.04,11.74,11.87,11.74,11.87v12.96c.05-.21.08-.43.1-.66,0-.09.01-.18.01-.27v-12.37c.03-.6.15-1.95.61-3.52,1.03-3.48,3.77-8.04,11.04-8.02,11.74.04,11.74,11.87,11.74,11.87v12.96c.05-.21.08-.43.1-.66,0-.09.01-.18.01-.27v-12.37c.03-.6.15-1.95.61-3.52,1.03-3.48,3.77-8.04,11.04-8.02,11.74.04,11.74,11.87,11.74,11.87v12.96c.05-.21.08-.43.1-.66,0-.09.01-.18.01-.27v-12.37c.03-.6.15-1.95.61-3.52,1.03-3.48,3.77-8.04,11.04-8.02,11.74.04,11.74,11.87,11.74,11.87v12.83l.11-1.86v-11.3c.03-.6.15-1.95.61-3.52,1.03-3.48,3.77-8.04,11.04-8.02,11.74.04,11.74,11.87,11.74,11.87v12.96c.05-.21.08-.43.1-.66,0-.09,0-.18,0-.27v-12.37c.03-.6.15-1.95.61-3.52,1.03-3.48,3.77-8.04,11.04-8.02,11.74.04,11.74,11.87,11.74,11.87v12.96c.05-.21.08-.43.1-.66,0-.09,0-.18,0-.27v-12.37c.03-.6.15-1.95.61-3.52,1.03-3.48,3.76-8.04,11.04-8.02,11.74.04,11.74,11.87,11.74,11.87v12.96c.05-.21.08-.43.1-.66,0-.09.01-.18.01-.27v-12.37c.03-.6.15-1.95.61-3.52,1.03-3.48,3.77-8.04,11.04-8.02,11.74.04,11.74,11.87,11.74,11.87v12.96c.05-.21.08-.43.1-.66,0-.09.01-.18.01-.27v-12.37c.03-.6.15-1.95.61-3.52,1.03-3.48,3.77-8.04,11.04-8.02,11.74.04,11.74,11.87,11.74,11.87l-.46,23.41Z"/>
  <path class="cls-2" d="M1903.47,35.78c-1.12.32-1.83.5-3.29.5-11.74-.04-11.74-11.87-11.74-11.87v-.99c-.06.28-.09.52-.1.68-.01.12-.01.65-.01.65-.03.6-.15,1.95-.61,3.52-1.03,3.48-3.77,8.04-11.04,8.02-11.74-.04-11.74-11.87-11.74-11.87v-.99c-.06.28-.09.52-.1.68-.01.12-.01.65-.01.65-.03.6-.15,1.95-.61,3.52-1.03,3.48-3.77,8.04-11.04,8.02-11.74-.04-11.74-11.87-11.74-11.87v-.99c-.06.28-.09.52-.1.68,0,.12,0,.65,0,.65-.03.6-.15,1.95-.61,3.52-1.03,3.48-3.77,8.04-11.04,8.02-11.74-.04-11.74-11.87-11.74-11.87v-.99c-.06.28-.09.52-.1.68-.01.12-.01.65-.01.65-.03.6-.14,1.95-.61,3.52-1.03,3.48-3.77,8.04-11.04,8.02-10.16-.03-11.53-8.9-11.71-11.28v-1.65l-.17,1.86c-.06.7-.21,1.81-.58,3.06-1.03,3.48-3.77,8.04-11.04,8.02-11.74-.04-11.74-11.87-11.74-11.87v-.99c-.06.28-.09.52-.1.68-.01.12-.01.65-.01.65-.03.6-.15,1.95-.61,3.52-1.03,3.48-3.77,8.04-11.04,8.02-11.74-.04-11.74-11.87-11.74-11.87v-.99c-.06.28-.09.52-.1.68-.01.12-.01.65-.01.65-.03.6-.15,1.95-.61,3.52-1.03,3.48-3.76,8.04-11.04,8.02-11.74-.04-11.74-11.87-11.74-11.87v-.99c-.06.28-.09.52-.1.68-.01.12-.01.65-.01.65-.03.6-.15,1.95-.61,3.52-1.03,3.48-3.77,8.04-11.04,8.02-11.74-.04-11.74-11.87-11.74-11.87v-.99c-.06.28-.09.52-.1.68,0,.12,0,.65,0,.65-.03.6-.15,1.95-.61,3.52-.83,2.8-2.77,6.31-7.3,7.56V12.1c0,.17,0,.27,0,.27v12.96c.05-.21.08-.43.1-.66,0-.09.01-.18.01-.27v-12.37c.03-.6.15-1.95.61-3.52,1.03-3.48,3.77-8.04,11.04-8.02,11.74.04,11.74,11.87,11.74,11.87v12.96c.05-.21.08-.43.1-.66,0-.09.01-.18.01-.27v-12.37c.03-.6.15-1.95.61-3.52,1.03-3.48,3.77-8.04,11.04-8.02,11.74.04,11.74,11.87,11.74,11.87v12.96c.05-.21.08-.43.1-.66,0-.09.01-.18.01-.27v-12.37c.03-.6.15-1.95.61-3.52,1.03-3.48,3.77-8.04,11.04-8.02,11.74.04,11.74,11.87,11.74,11.87v12.96c.05-.21.08-.43.1-.66,0-.09.01-.18.01-.27v-12.37c.03-.6.15-1.95.61-3.52,1.03-3.48,3.77-8.04,11.04-8.02,11.74.04,11.74,11.87,11.74,11.87v12.83l.11-1.86v-11.3c.03-.6.15-1.95.61-3.52,1.03-3.48,3.77-8.04,11.04-8.02,11.74.04,11.74,11.87,11.74,11.87v12.96c.05-.21.08-.43.1-.66,0-.09,0-.18,0-.27v-12.37c.03-.6.15-1.95.61-3.52,1.03-3.48,3.77-8.04,11.04-8.02,11.74.04,11.74,11.87,11.74,11.87v12.96c.05-.21.08-.43.1-.66,0-.09,0-.18,0-.27v-12.37c.03-.6.15-1.95.61-3.52,1.03-3.48,3.76-8.04,11.04-8.02,11.74.04,11.74,11.87,11.74,11.87v12.96c.05-.21.08-.43.1-.66,0-.09.01-.18.01-.27v-12.37c.03-.6.15-1.95.61-3.52,1.03-3.48,3.77-8.04,11.04-8.02,11.74.04,11.74,11.87,11.74,11.87v12.96c.05-.21.08-.43.1-.66,0-.09.01-.18.01-.27v-12.37c.03-.6.15-1.95.61-3.52,1.03-3.48,3.77-8.04,11.04-8.02,11.74.04,11.74,11.87,11.74,11.87l-.46,23.41Z"/>
  <path class="cls-1" d="M2067.73,35.78c-1.12.32-1.83.5-3.29.5-11.74-.04-11.74-11.87-11.74-11.87v-.99c-.06.28-.09.52-.1.68-.01.12-.01.65-.01.65-.03.6-.15,1.95-.61,3.52-1.03,3.48-3.77,8.04-11.04,8.02-11.74-.04-11.74-11.87-11.74-11.87v-.99c-.06.28-.09.52-.1.68-.01.12-.01.65-.01.65-.03.6-.15,1.95-.61,3.52-1.03,3.48-3.77,8.04-11.04,8.02-11.74-.04-11.74-11.87-11.74-11.87v-.99c-.06.28-.09.52-.1.68-.01.12-.01.65-.01.65-.03.6-.15,1.95-.61,3.52-1.03,3.48-3.77,8.04-11.04,8.02-11.74-.04-11.74-11.87-11.74-11.87v-.99c-.06.28-.09.52-.1.68,0,.12,0,.65,0,.65-.03.6-.15,1.95-.61,3.52-1.03,3.48-3.77,8.04-11.04,8.02-10.16-.03-11.53-8.9-11.71-11.28v-1.65l-.17,1.86c-.06.7-.21,1.81-.58,3.06-1.03,3.48-3.77,8.04-11.04,8.02-11.74-.04-11.74-11.87-11.74-11.87v-.99c-.06.28-.09.52-.1.68-.01.12-.01.65-.01.65-.03.6-.15,1.95-.61,3.52-1.03,3.48-3.77,8.04-11.04,8.02-11.74-.04-11.74-11.87-11.74-11.87v-.99c-.06.28-.09.52-.1.68-.01.12-.01.65-.01.65-.03.6-.15,1.95-.61,3.52-1.03,3.48-3.76,8.04-11.04,8.02-11.74-.04-11.74-11.87-11.74-11.87v-.99c-.06.28-.09.52-.1.68-.01.12-.01.65-.01.65-.03.6-.15,1.95-.61,3.52-1.03,3.48-3.77,8.04-11.04,8.02-11.74-.04-11.74-11.87-11.74-11.87v-.99c-.06.28-.09.52-.1.68,0,.12,0,.65,0,.65-.03.6-.15,1.95-.61,3.52-.83,2.8-2.77,6.31-7.3,7.56V12.1c0,.17,0,.27,0,.27v12.96c.05-.21.08-.43.1-.66,0-.09.01-.18.01-.27v-12.37c.03-.6.15-1.95.61-3.52,1.03-3.48,3.77-8.04,11.04-8.02,11.74.04,11.74,11.87,11.74,11.87v12.96c.05-.21.08-.43.1-.66,0-.09.01-.18.01-.27v-12.37c.03-.6.15-1.95.61-3.52,1.03-3.48,3.77-8.04,11.04-8.02,11.74.04,11.74,11.87,11.74,11.87v12.96c.05-.21.08-.43.1-.66,0-.09.01-.18.01-.27v-12.37c.03-.6.15-1.95.61-3.52,1.03-3.48,3.77-8.04,11.04-8.02,11.74.04,11.74,11.87,11.74,11.87v12.96c.05-.21.08-.43.1-.66,0-.09.01-.18.01-.27v-12.37c.03-.6.15-1.95.61-3.52,1.03-3.48,3.77-8.04,11.04-8.02,11.74.04,11.74,11.87,11.74,11.87v12.83l.11-1.86v-11.3c.03-.6.15-1.95.61-3.52,1.03-3.48,3.77-8.04,11.04-8.02,11.74.04,11.74,11.87,11.74,11.87v12.96c.05-.21.08-.43.1-.66,0-.09.01-.18.01-.27v-12.37c.03-.6.14-1.95.61-3.52,1.03-3.48,3.77-8.04,11.04-8.02,11.74.04,11.74,11.87,11.74,11.87v12.96c.05-.21.08-.43.1-.66,0-.09,0-.18,0-.27v-12.37c.03-.6.15-1.95.61-3.52,1.03-3.48,3.76-8.04,11.04-8.02,11.74.04,11.74,11.87,11.74,11.87v12.96c.05-.21.08-.43.1-.66,0-.09.01-.18.01-.27v-12.37c.03-.6.15-1.95.61-3.52,1.03-3.48,3.77-8.04,11.04-8.02,11.74.04,11.74,11.87,11.74,11.87v12.96c.05-.21.08-.43.1-.66,0-.09.01-.18.01-.27v-12.37c.03-.6.15-1.95.61-3.52,1.03-3.48,3.77-8.04,11.04-8.02,11.74.04,11.74,11.87,11.74,11.87l-.46,23.41Z"/>
  <path class="cls-2" d="M2067.73,35.78c-1.12.32-1.83.5-3.29.5-11.74-.04-11.74-11.87-11.74-11.87v-.99c-.06.28-.09.52-.1.68-.01.12-.01.65-.01.65-.03.6-.15,1.95-.61,3.52-1.03,3.48-3.77,8.04-11.04,8.02-11.74-.04-11.74-11.87-11.74-11.87v-.99c-.06.28-.09.52-.1.68-.01.12-.01.65-.01.65-.03.6-.15,1.95-.61,3.52-1.03,3.48-3.77,8.04-11.04,8.02-11.74-.04-11.74-11.87-11.74-11.87v-.99c-.06.28-.09.52-.1.68-.01.12-.01.65-.01.65-.03.6-.15,1.95-.61,3.52-1.03,3.48-3.77,8.04-11.04,8.02-11.74-.04-11.74-11.87-11.74-11.87v-.99c-.06.28-.09.52-.1.68,0,.12,0,.65,0,.65-.03.6-.15,1.95-.61,3.52-1.03,3.48-3.77,8.04-11.04,8.02-10.16-.03-11.53-8.9-11.71-11.28v-1.65l-.17,1.86c-.06.7-.21,1.81-.58,3.06-1.03,3.48-3.77,8.04-11.04,8.02-11.74-.04-11.74-11.87-11.74-11.87v-.99c-.06.28-.09.52-.1.68-.01.12-.01.65-.01.65-.03.6-.15,1.95-.61,3.52-1.03,3.48-3.77,8.04-11.04,8.02-11.74-.04-11.74-11.87-11.74-11.87v-.99c-.06.28-.09.52-.1.68-.01.12-.01.65-.01.65-.03.6-.15,1.95-.61,3.52-1.03,3.48-3.76,8.04-11.04,8.02-11.74-.04-11.74-11.87-11.74-11.87v-.99c-.06.28-.09.52-.1.68-.01.12-.01.65-.01.65-.03.6-.15,1.95-.61,3.52-1.03,3.48-3.77,8.04-11.04,8.02-11.74-.04-11.74-11.87-11.74-11.87v-.99c-.06.28-.09.52-.1.68,0,.12,0,.65,0,.65-.03.6-.15,1.95-.61,3.52-.83,2.8-2.77,6.31-7.3,7.56V12.1c0,.17,0,.27,0,.27v12.96c.05-.21.08-.43.1-.66,0-.09.01-.18.01-.27v-12.37c.03-.6.15-1.95.61-3.52,1.03-3.48,3.77-8.04,11.04-8.02,11.74.04,11.74,11.87,11.74,11.87v12.96c.05-.21.08-.43.1-.66,0-.09.01-.18.01-.27v-12.37c.03-.6.15-1.95.61-3.52,1.03-3.48,3.77-8.04,11.04-8.02,11.74.04,11.74,11.87,11.74,11.87v12.96c.05-.21.08-.43.1-.66,0-.09.01-.18.01-.27v-12.37c.03-.6.15-1.95.61-3.52,1.03-3.48,3.77-8.04,11.04-8.02,11.74.04,11.74,11.87,11.74,11.87v12.96c.05-.21.08-.43.1-.66,0-.09.01-.18.01-.27v-12.37c.03-.6.15-1.95.61-3.52,1.03-3.48,3.77-8.04,11.04-8.02,11.74.04,11.74,11.87,11.74,11.87v12.83l.11-1.86v-11.3c.03-.6.15-1.95.61-3.52,1.03-3.48,3.77-8.04,11.04-8.02,11.74.04,11.74,11.87,11.74,11.87v12.96c.05-.21.08-.43.1-.66,0-.09.01-.18.01-.27v-12.37c.03-.6.14-1.95.61-3.52,1.03-3.48,3.77-8.04,11.04-8.02,11.74.04,11.74,11.87,11.74,11.87v12.96c.05-.21.08-.43.1-.66,0-.09,0-.18,0-.27v-12.37c.03-.6.15-1.95.61-3.52,1.03-3.48,3.76-8.04,11.04-8.02,11.74.04,11.74,11.87,11.74,11.87v12.96c.05-.21.08-.43.1-.66,0-.09.01-.18.01-.27v-12.37c.03-.6.15-1.95.61-3.52,1.03-3.48,3.77-8.04,11.04-8.02,11.74.04,11.74,11.87,11.74,11.87v12.96c.05-.21.08-.43.1-.66,0-.09.01-.18.01-.27v-12.37c.03-.6.15-1.95.61-3.52,1.03-3.48,3.77-8.04,11.04-8.02,11.74.04,11.74,11.87,11.74,11.87l-.46,23.41Z"/>
  <path class="cls-1" d="M845.98,25.2v10.58c-1.12.32-2.4.5-3.87.5-11.74-.04-11.74-11.87-11.74-11.87v-.99c-.06.28-.09.52-.1.68,0,.12,0,.65,0,.65-.03.6-.15,1.95-.61,3.52-1.03,3.48-3.76,8.04-11.04,8.02-11.74-.04-11.74-11.87-11.74-11.87v-.99c-.06.28-.09.52-.1.68,0,.12,0,.65,0,.65-.03.6-.15,1.95-.61,3.52-1.03,3.48-3.77,8.04-11.04,8.02-11.74-.04-11.74-11.87-11.74-11.87v-.99c-.06.28-.09.52-.1.68,0,.12,0,.65,0,.65-.03.6-.15,1.95-.61,3.52-1.03,3.48-3.77,8.04-11.04,8.02-11.74-.04-11.74-11.87-11.74-11.87v-.99c-.06.28-.09.52-.1.68-.01.12-.01.65-.01.65-.03.6-.14,1.95-.61,3.52-1.03,3.48-3.76,8.04-11.04,8.02-10.16-.03-11.53-8.9-11.71-11.28v-1.65l-.17,1.86c-.06.7-.21,1.81-.58,3.06-1.03,3.48-3.76,8.04-11.04,8.02-11.74-.04-11.74-11.87-11.74-11.87v-.99c-.06.28-.09.52-.1.68-.01.12-.01.65-.01.65-.03.6-.14,1.95-.61,3.52-1.03,3.48-3.76,8.04-11.04,8.02-11.74-.04-11.74-11.87-11.74-11.87v-.99c-.06.28-.09.52-.1.68-.01.12-.01.65-.01.65-.03.6-.14,1.95-.61,3.52-1.03,3.48-3.76,8.04-11.04,8.02-11.74-.04-11.74-11.87-11.74-11.87v-.99c-.06.28-.09.52-.1.68-.01.12-.01.65-.01.65-.03.6-.15,1.95-.61,3.52-1.03,3.48-3.77,8.04-11.04,8.02-11.74-.04-11.74-11.87-11.74-11.87v-.99c-.06.28-.09.52-.1.68,0,.12,0,.65,0,.65-.03.6-.15,1.95-.61,3.52-.83,2.8-2.77,6.31-7.3,7.56V12.1c0,.17,0,.27,0,.27v12.96c.05-.21.08-.43.1-.66,0-.09,0-.18,0-.27v-12.37c.03-.6.14-1.95.61-3.52,1.03-3.48,3.76-8.04,11.04-8.02,11.74.04,11.74,11.87,11.74,11.87v12.96c.05-.21.08-.43.1-.66,0-.09,0-.18,0-.27v-12.37c.03-.6.15-1.95.61-3.52,1.03-3.48,3.76-8.04,11.04-8.02,11.74.04,11.74,11.87,11.74,11.87v12.96c.05-.21.08-.43.1-.66,0-.09,0-.18,0-.27v-12.37c.03-.6.15-1.95.61-3.52,1.03-3.48,3.76-8.04,11.04-8.02,11.74.04,11.74,11.87,11.74,11.87v12.96c.05-.21.08-.43.1-.66,0-.09,0-.18,0-.27v-12.37c.03-.6.15-1.95.61-3.52,1.03-3.48,3.76-8.04,11.04-8.02,11.74.04,11.74,11.87,11.74,11.87v12.83l.11-1.86v-11.3c.03-.6.14-1.95.61-3.52,1.03-3.48,3.77-8.04,11.04-8.02,11.74.04,11.74,11.87,11.74,11.87v12.96c.05-.21.08-.43.1-.66,0-.09,0-.18,0-.27v-12.37c.03-.6.14-1.95.61-3.52,1.03-3.48,3.76-8.04,11.04-8.02,11.74.04,11.74,11.87,11.74,11.87v12.96c.05-.21.08-.43.1-.66,0-.09.01-.18.01-.27v-12.37c.03-.6.15-1.95.61-3.52,1.03-3.48,3.76-8.04,11.04-8.02,11.74.04,11.74,11.87,11.74,11.87v12.96c.05-.21.08-.43.1-.66,0-.09.01-.18.01-.27v-12.37c.03-.6.15-1.95.61-3.52,1.03-3.48,3.76-8.04,11.04-8.02,11.74.04,11.74,11.87,11.74,11.87v12.96c.05-.21.08-.43.1-.66,0-.09.01-.18.01-.27v-12.37c.03-.6.15-1.95.61-3.52,1.03-3.48,3.76-8.04,11.04-8.02,11.74.04,11.74,11.87,11.74,11.87v12.83h.11Z"/>
  <path class="cls-1" d="M845.98,25.2v10.58c-1.12.32-2.4.5-3.87.5-11.74-.04-11.74-11.87-11.74-11.87v-.99c-.06.28-.09.52-.1.68,0,.12,0,.65,0,.65-.03.6-.15,1.95-.61,3.52-1.03,3.48-3.76,8.04-11.04,8.02-11.74-.04-11.74-11.87-11.74-11.87v-.99c-.06.28-.09.52-.1.68,0,.12,0,.65,0,.65-.03.6-.15,1.95-.61,3.52-1.03,3.48-3.77,8.04-11.04,8.02-11.74-.04-11.74-11.87-11.74-11.87v-.99c-.06.28-.09.52-.1.68,0,.12,0,.65,0,.65-.03.6-.15,1.95-.61,3.52-1.03,3.48-3.77,8.04-11.04,8.02-11.74-.04-11.74-11.87-11.74-11.87v-.99c-.06.28-.09.52-.1.68-.01.12-.01.65-.01.65-.03.6-.14,1.95-.61,3.52-1.03,3.48-3.76,8.04-11.04,8.02-10.16-.03-11.53-8.9-11.71-11.28v-1.65l-.17,1.86c-.06.7-.21,1.81-.58,3.06-1.03,3.48-3.76,8.04-11.04,8.02-11.74-.04-11.74-11.87-11.74-11.87v-.99c-.06.28-.09.52-.1.68-.01.12-.01.65-.01.65-.03.6-.14,1.95-.61,3.52-1.03,3.48-3.76,8.04-11.04,8.02-11.74-.04-11.74-11.87-11.74-11.87v-.99c-.06.28-.09.52-.1.68-.01.12-.01.65-.01.65-.03.6-.14,1.95-.61,3.52-1.03,3.48-3.76,8.04-11.04,8.02-11.74-.04-11.74-11.87-11.74-11.87v-.99c-.06.28-.09.52-.1.68-.01.12-.01.65-.01.65-.03.6-.15,1.95-.61,3.52-1.03,3.48-3.77,8.04-11.04,8.02-11.74-.04-11.74-11.87-11.74-11.87v-.99c-.06.28-.09.52-.1.68,0,.12,0,.65,0,.65-.03.6-.15,1.95-.61,3.52-.83,2.8-2.77,6.31-7.3,7.56V12.1c0,.17,0,.27,0,.27v12.96c.05-.21.08-.43.1-.66,0-.09,0-.18,0-.27v-12.37c.03-.6.14-1.95.61-3.52,1.03-3.48,3.76-8.04,11.04-8.02,11.74.04,11.74,11.87,11.74,11.87v12.96c.05-.21.08-.43.1-.66,0-.09,0-.18,0-.27v-12.37c.03-.6.15-1.95.61-3.52,1.03-3.48,3.76-8.04,11.04-8.02,11.74.04,11.74,11.87,11.74,11.87v12.96c.05-.21.08-.43.1-.66,0-.09,0-.18,0-.27v-12.37c.03-.6.15-1.95.61-3.52,1.03-3.48,3.76-8.04,11.04-8.02,11.74.04,11.74,11.87,11.74,11.87v12.96c.05-.21.08-.43.1-.66,0-.09,0-.18,0-.27v-12.37c.03-.6.15-1.95.61-3.52,1.03-3.48,3.76-8.04,11.04-8.02,11.74.04,11.74,11.87,11.74,11.87v12.83l.11-1.86v-11.3c.03-.6.14-1.95.61-3.52,1.03-3.48,3.77-8.04,11.04-8.02,11.74.04,11.74,11.87,11.74,11.87v12.96c.05-.21.08-.43.1-.66,0-.09,0-.18,0-.27v-12.37c.03-.6.14-1.95.61-3.52,1.03-3.48,3.76-8.04,11.04-8.02,11.74.04,11.74,11.87,11.74,11.87v12.96c.05-.21.08-.43.1-.66,0-.09.01-.18.01-.27v-12.37c.03-.6.15-1.95.61-3.52,1.03-3.48,3.76-8.04,11.04-8.02,11.74.04,11.74,11.87,11.74,11.87v12.96c.05-.21.08-.43.1-.66,0-.09.01-.18.01-.27v-12.37c.03-.6.15-1.95.61-3.52,1.03-3.48,3.76-8.04,11.04-8.02,11.74.04,11.74,11.87,11.74,11.87v12.96c.05-.21.08-.43.1-.66,0-.09.01-.18.01-.27v-12.37c.03-.6.15-1.95.61-3.52,1.03-3.48,3.76-8.04,11.04-8.02,11.74.04,11.74,11.87,11.74,11.87v12.83h.11Z"/>
  <path class="cls-1" d="M1010.2,35.78c-1.12.32-1.83.5-3.29.5-11.74-.04-11.74-11.87-11.74-11.87v-.99c-.06.28-.09.52-.1.68,0,.12,0,.65,0,.65-.03.6-.15,1.95-.61,3.52-1.03,3.48-3.76,8.04-11.04,8.02-11.74-.04-11.74-11.87-11.74-11.87v-.99c-.06.28-.09.52-.1.68-.01.12-.01.65-.01.65-.03.6-.14,1.95-.61,3.52-1.03,3.48-3.77,8.04-11.04,8.02-11.74-.04-11.74-11.87-11.74-11.87v-.99c-.06.28-.09.52-.1.68,0,.12,0,.65,0,.65-.03.6-.15,1.95-.61,3.52-1.03,3.48-3.77,8.04-11.04,8.02-11.74-.04-11.74-11.87-11.74-11.87v-.99c-.06.28-.09.52-.1.68,0,.12,0,.65,0,.65-.03.6-.14,1.95-.61,3.52-1.03,3.48-3.77,8.04-11.04,8.02-10.16-.03-11.53-8.9-11.71-11.28v-1.65l-.17,1.86c-.06.7-.21,1.81-.58,3.06-1.03,3.48-3.76,8.04-11.04,8.02-11.74-.04-11.74-11.87-11.74-11.87v-.99c-.06.28-.09.52-.1.68-.01.12-.01.65-.01.65-.03.6-.14,1.95-.61,3.52-1.03,3.48-3.76,8.04-11.04,8.02-11.74-.04-11.74-11.87-11.74-11.87v-.99c-.06.28-.09.52-.1.68-.01.12-.01.65-.01.65-.03.6-.14,1.95-.61,3.52-1.03,3.48-3.76,8.04-11.04,8.02-11.74-.04-11.74-11.87-11.74-11.87v-.99c-.06.28-.09.52-.1.68-.01.12-.01.65-.01.65-.03.6-.14,1.95-.61,3.52-1.03,3.48-3.76,8.04-11.04,8.02-11.74-.04-11.74-11.87-11.74-11.87v-.99c-.06.28-.09.52-.1.68,0,.12,0,.65,0,.65-.03.6-.14,1.95-.61,3.52-.83,2.8-2.77,6.31-7.3,7.56V12.1c0,.17,0,.27,0,.27v12.96c.05-.21.08-.43.1-.66,0-.09,0-.18,0-.27v-12.37c.03-.6.15-1.95.61-3.52,1.03-3.48,3.76-8.04,11.04-8.02,11.74.04,11.74,11.87,11.74,11.87v12.96c.05-.21.08-.43.1-.66,0-.09,0-.18,0-.27v-12.37c.03-.6.15-1.95.61-3.52,1.03-3.48,3.76-8.04,11.04-8.02,11.74.04,11.74,11.87,11.74,11.87v12.96c.05-.21.08-.43.1-.66,0-.09,0-.18,0-.27v-12.37c.03-.6.15-1.95.61-3.52,1.03-3.48,3.76-8.04,11.04-8.02,11.74.04,11.74,11.87,11.74,11.87v12.96c.05-.21.08-.43.1-.66,0-.09,0-.18,0-.27v-12.37c.03-.6.15-1.95.61-3.52,1.03-3.48,3.76-8.04,11.04-8.02,11.74.04,11.74,11.87,11.74,11.87v12.83l.11-1.86v-11.3c.03-.6.15-1.95.61-3.52,1.03-3.48,3.77-8.04,11.04-8.02,11.74.04,11.74,11.87,11.74,11.87v12.96c.05-.21.08-.43.1-.66,0-.09.01-.18.01-.27v-12.37c.03-.6.14-1.95.61-3.52,1.03-3.48,3.77-8.04,11.04-8.02,11.74.04,11.74,11.87,11.74,11.87v12.96c.05-.21.08-.43.1-.66,0-.09,0-.18,0-.27v-12.37c.03-.6.15-1.95.61-3.52,1.03-3.48,3.76-8.04,11.04-8.02,11.74.04,11.74,11.87,11.74,11.87v12.96c.05-.21.08-.43.1-.66,0-.09.01-.18.01-.27v-12.37c.03-.6.14-1.95.61-3.52,1.03-3.48,3.77-8.04,11.04-8.02,11.74.04,11.74,11.87,11.74,11.87v12.96c.05-.21.08-.43.1-.66,0-.09,0-.18,0-.27v-12.37c.03-.6.15-1.95.61-3.52,1.03-3.48,3.76-8.04,11.04-8.02,11.74.04,11.74,11.87,11.74,11.87l-.46,23.41Z"/>
  <path class="cls-2" d="M1010.2,35.78c-1.12.32-1.83.5-3.29.5-11.74-.04-11.74-11.87-11.74-11.87v-.99c-.06.28-.09.52-.1.68,0,.12,0,.65,0,.65-.03.6-.15,1.95-.61,3.52-1.03,3.48-3.76,8.04-11.04,8.02-11.74-.04-11.74-11.87-11.74-11.87v-.99c-.06.28-.09.52-.1.68-.01.12-.01.65-.01.65-.03.6-.14,1.95-.61,3.52-1.03,3.48-3.77,8.04-11.04,8.02-11.74-.04-11.74-11.87-11.74-11.87v-.99c-.06.28-.09.52-.1.68,0,.12,0,.65,0,.65-.03.6-.15,1.95-.61,3.52-1.03,3.48-3.77,8.04-11.04,8.02-11.74-.04-11.74-11.87-11.74-11.87v-.99c-.06.28-.09.52-.1.68,0,.12,0,.65,0,.65-.03.6-.14,1.95-.61,3.52-1.03,3.48-3.77,8.04-11.04,8.02-10.16-.03-11.53-8.9-11.71-11.28v-1.65l-.17,1.86c-.06.7-.21,1.81-.58,3.06-1.03,3.48-3.76,8.04-11.04,8.02-11.74-.04-11.74-11.87-11.74-11.87v-.99c-.06.28-.09.52-.1.68-.01.12-.01.65-.01.65-.03.6-.14,1.95-.61,3.52-1.03,3.48-3.76,8.04-11.04,8.02-11.74-.04-11.74-11.87-11.74-11.87v-.99c-.06.28-.09.52-.1.68-.01.12-.01.65-.01.65-.03.6-.14,1.95-.61,3.52-1.03,3.48-3.76,8.04-11.04,8.02-11.74-.04-11.74-11.87-11.74-11.87v-.99c-.06.28-.09.52-.1.68-.01.12-.01.65-.01.65-.03.6-.14,1.95-.61,3.52-1.03,3.48-3.76,8.04-11.04,8.02-11.74-.04-11.74-11.87-11.74-11.87v-.99c-.06.28-.09.52-.1.68,0,.12,0,.65,0,.65-.03.6-.14,1.95-.61,3.52-.83,2.8-2.77,6.31-7.3,7.56V12.1c0,.17,0,.27,0,.27v12.96c.05-.21.08-.43.1-.66,0-.09,0-.18,0-.27v-12.37c.03-.6.15-1.95.61-3.52,1.03-3.48,3.76-8.04,11.04-8.02,11.74.04,11.74,11.87,11.74,11.87v12.96c.05-.21.08-.43.1-.66,0-.09,0-.18,0-.27v-12.37c.03-.6.15-1.95.61-3.52,1.03-3.48,3.76-8.04,11.04-8.02,11.74.04,11.74,11.87,11.74,11.87v12.96c.05-.21.08-.43.1-.66,0-.09,0-.18,0-.27v-12.37c.03-.6.15-1.95.61-3.52,1.03-3.48,3.76-8.04,11.04-8.02,11.74.04,11.74,11.87,11.74,11.87v12.96c.05-.21.08-.43.1-.66,0-.09,0-.18,0-.27v-12.37c.03-.6.15-1.95.61-3.52,1.03-3.48,3.76-8.04,11.04-8.02,11.74.04,11.74,11.87,11.74,11.87v12.83l.11-1.86v-11.3c.03-.6.15-1.95.61-3.52,1.03-3.48,3.77-8.04,11.04-8.02,11.74.04,11.74,11.87,11.74,11.87v12.96c.05-.21.08-.43.1-.66,0-.09.01-.18.01-.27v-12.37c.03-.6.14-1.95.61-3.52,1.03-3.48,3.77-8.04,11.04-8.02,11.74.04,11.74,11.87,11.74,11.87v12.96c.05-.21.08-.43.1-.66,0-.09,0-.18,0-.27v-12.37c.03-.6.15-1.95.61-3.52,1.03-3.48,3.76-8.04,11.04-8.02,11.74.04,11.74,11.87,11.74,11.87v12.96c.05-.21.08-.43.1-.66,0-.09.01-.18.01-.27v-12.37c.03-.6.14-1.95.61-3.52,1.03-3.48,3.77-8.04,11.04-8.02,11.74.04,11.74,11.87,11.74,11.87v12.96c.05-.21.08-.43.1-.66,0-.09,0-.18,0-.27v-12.37c.03-.6.15-1.95.61-3.52,1.03-3.48,3.76-8.04,11.04-8.02,11.74.04,11.74,11.87,11.74,11.87l-.46,23.41Z"/>
  <path class="cls-1" d="M1198.52,35.78c-1.12.32-1.83.5-3.29.5-11.74-.04-11.74-11.87-11.74-11.87v-.99c-.06.28-.09.52-.1.68,0,.12,0,.65,0,.65-.03.6-.15,1.95-.61,3.52-1.03,3.48-3.77,8.04-11.04,8.02-11.74-.04-11.74-11.87-11.74-11.87v-.99c-.06.28-.09.52-.1.68-.01.12-.01.65-.01.65-.03.6-.15,1.95-.61,3.52-1.03,3.48-3.77,8.04-11.04,8.02-11.74-.04-11.74-11.87-11.74-11.87v-.99c-.06.28-.09.52-.1.68,0,.12,0,.65,0,.65-.03.6-.15,1.95-.61,3.52-1.03,3.48-3.76,8.04-11.04,8.02-11.74-.04-11.74-11.87-11.74-11.87v-.99c-.06.28-.09.52-.1.68-.01.12-.01.65-.01.65-.03.6-.14,1.95-.61,3.52-1.03,3.48-3.77,8.04-11.04,8.02-10.16-.03-11.53-8.9-11.71-11.28v-1.65l-.17,1.86c-.06.7-.21,1.81-.58,3.06-1.03,3.48-3.76,8.04-11.04,8.02-11.74-.04-11.74-11.87-11.74-11.87v-.99c-.06.28-.09.52-.1.68-.01.12-.01.65-.01.65-.03.6-.14,1.95-.61,3.52-1.03,3.48-3.77,8.04-11.04,8.02-11.74-.04-11.74-11.87-11.74-11.87v-.99c-.06.28-.09.52-.1.68-.01.12-.01.65-.01.65-.03.6-.14,1.95-.61,3.52-1.03,3.48-3.76,8.04-11.04,8.02-11.74-.04-11.74-11.87-11.74-11.87v-.99c-.06.28-.09.52-.1.68-.01.12-.01.65-.01.65-.03.6-.14,1.95-.61,3.52-1.03,3.48-3.77,8.04-11.04,8.02-11.74-.04-11.74-11.87-11.74-11.87v-.99c-.06.28-.09.52-.1.68,0,.12,0,.65,0,.65-.03.6-.14,1.95-.61,3.52-.83,2.8-2.77,6.31-7.3,7.56V12.1c0,.17,0,.27,0,.27v12.96c.05-.21.08-.43.1-.66,0-.09,0-.18,0-.27v-12.37c.03-.6.14-1.95.61-3.52,1.03-3.48,3.76-8.04,11.04-8.02,11.74.04,11.74,11.87,11.74,11.87v12.96c.05-.21.08-.43.1-.66,0-.09.01-.18.01-.27v-12.37c.03-.6.14-1.95.61-3.52,1.03-3.48,3.77-8.04,11.04-8.02,11.74.04,11.74,11.87,11.74,11.87v12.96c.05-.21.08-.43.1-.66,0-.09,0-.18,0-.27v-12.37c.03-.6.15-1.95.61-3.52,1.03-3.48,3.76-8.04,11.04-8.02,11.74.04,11.74,11.87,11.74,11.87v12.96c.05-.21.08-.43.1-.66,0-.09.01-.18.01-.27v-12.37c.03-.6.14-1.95.61-3.52,1.03-3.48,3.77-8.04,11.04-8.02,11.74.04,11.74,11.87,11.74,11.87v12.83l.11-1.86v-11.3c.03-.6.15-1.95.61-3.52,1.03-3.48,3.76-8.04,11.04-8.02,11.74.04,11.74,11.87,11.74,11.87v12.96c.05-.21.08-.43.1-.66,0-.09,0-.18,0-.27v-12.37c.03-.6.14-1.95.61-3.52,1.03-3.48,3.77-8.04,11.04-8.02,11.74.04,11.74,11.87,11.74,11.87v12.96c.05-.21.08-.43.1-.66,0-.09,0-.18,0-.27v-12.37c.03-.6.15-1.95.61-3.52,1.03-3.48,3.76-8.04,11.04-8.02,11.74.04,11.74,11.87,11.74,11.87v12.96c.05-.21.08-.43.1-.66,0-.09.01-.18.01-.27v-12.37c.03-.6.14-1.95.61-3.52,1.03-3.48,3.77-8.04,11.04-8.02,11.74.04,11.74,11.87,11.74,11.87v12.96c.05-.21.08-.43.1-.66,0-.09.01-.18.01-.27v-12.37c.03-.6.15-1.95.61-3.52,1.03-3.48,3.77-8.04,11.04-8.02,11.74.04,11.74,11.87,11.74,11.87l-.46,23.41Z"/>
  <path class="cls-2" d="M1198.52,35.78c-1.12.32-1.83.5-3.29.5-11.74-.04-11.74-11.87-11.74-11.87v-.99c-.06.28-.09.52-.1.68,0,.12,0,.65,0,.65-.03.6-.15,1.95-.61,3.52-1.03,3.48-3.77,8.04-11.04,8.02-11.74-.04-11.74-11.87-11.74-11.87v-.99c-.06.28-.09.52-.1.68-.01.12-.01.65-.01.65-.03.6-.15,1.95-.61,3.52-1.03,3.48-3.77,8.04-11.04,8.02-11.74-.04-11.74-11.87-11.74-11.87v-.99c-.06.28-.09.52-.1.68,0,.12,0,.65,0,.65-.03.6-.15,1.95-.61,3.52-1.03,3.48-3.76,8.04-11.04,8.02-11.74-.04-11.74-11.87-11.74-11.87v-.99c-.06.28-.09.52-.1.68-.01.12-.01.65-.01.65-.03.6-.14,1.95-.61,3.52-1.03,3.48-3.77,8.04-11.04,8.02-10.16-.03-11.53-8.9-11.71-11.28v-1.65l-.17,1.86c-.06.7-.21,1.81-.58,3.06-1.03,3.48-3.76,8.04-11.04,8.02-11.74-.04-11.74-11.87-11.74-11.87v-.99c-.06.28-.09.52-.1.68-.01.12-.01.65-.01.65-.03.6-.14,1.95-.61,3.52-1.03,3.48-3.77,8.04-11.04,8.02-11.74-.04-11.74-11.87-11.74-11.87v-.99c-.06.28-.09.52-.1.68-.01.12-.01.65-.01.65-.03.6-.14,1.95-.61,3.52-1.03,3.48-3.76,8.04-11.04,8.02-11.74-.04-11.74-11.87-11.74-11.87v-.99c-.06.28-.09.52-.1.68-.01.12-.01.65-.01.65-.03.6-.14,1.95-.61,3.52-1.03,3.48-3.77,8.04-11.04,8.02-11.74-.04-11.74-11.87-11.74-11.87v-.99c-.06.28-.09.52-.1.68,0,.12,0,.65,0,.65-.03.6-.14,1.95-.61,3.52-.83,2.8-2.77,6.31-7.3,7.56V12.1c0,.17,0,.27,0,.27v12.96c.05-.21.08-.43.1-.66,0-.09,0-.18,0-.27v-12.37c.03-.6.14-1.95.61-3.52,1.03-3.48,3.76-8.04,11.04-8.02,11.74.04,11.74,11.87,11.74,11.87v12.96c.05-.21.08-.43.1-.66,0-.09.01-.18.01-.27v-12.37c.03-.6.14-1.95.61-3.52,1.03-3.48,3.77-8.04,11.04-8.02,11.74.04,11.74,11.87,11.74,11.87v12.96c.05-.21.08-.43.1-.66,0-.09,0-.18,0-.27v-12.37c.03-.6.15-1.95.61-3.52,1.03-3.48,3.76-8.04,11.04-8.02,11.74.04,11.74,11.87,11.74,11.87v12.96c.05-.21.08-.43.1-.66,0-.09.01-.18.01-.27v-12.37c.03-.6.14-1.95.61-3.52,1.03-3.48,3.77-8.04,11.04-8.02,11.74.04,11.74,11.87,11.74,11.87v12.83l.11-1.86v-11.3c.03-.6.15-1.95.61-3.52,1.03-3.48,3.76-8.04,11.04-8.02,11.74.04,11.74,11.87,11.74,11.87v12.96c.05-.21.08-.43.1-.66,0-.09,0-.18,0-.27v-12.37c.03-.6.14-1.95.61-3.52,1.03-3.48,3.77-8.04,11.04-8.02,11.74.04,11.74,11.87,11.74,11.87v12.96c.05-.21.08-.43.1-.66,0-.09,0-.18,0-.27v-12.37c.03-.6.15-1.95.61-3.52,1.03-3.48,3.76-8.04,11.04-8.02,11.74.04,11.74,11.87,11.74,11.87v12.96c.05-.21.08-.43.1-.66,0-.09.01-.18.01-.27v-12.37c.03-.6.14-1.95.61-3.52,1.03-3.48,3.77-8.04,11.04-8.02,11.74.04,11.74,11.87,11.74,11.87v12.96c.05-.21.08-.43.1-.66,0-.09.01-.18.01-.27v-12.37c.03-.6.15-1.95.61-3.52,1.03-3.48,3.77-8.04,11.04-8.02,11.74.04,11.74,11.87,11.74,11.87l-.46,23.41Z"/>
  <path class="cls-1" d="M1362.78,35.78c-1.12.32-1.83.5-3.29.5-11.74-.04-11.74-11.87-11.74-11.87v-.99c-.06.28-.09.52-.1.68,0,.12,0,.65,0,.65-.03.6-.15,1.95-.61,3.52-1.03,3.48-3.76,8.04-11.04,8.02-11.74-.04-11.74-11.87-11.74-11.87v-.99c-.06.28-.09.52-.1.68-.01.12-.01.65-.01.65-.03.6-.15,1.95-.61,3.52-1.03,3.48-3.77,8.04-11.04,8.02-11.74-.04-11.74-11.87-11.74-11.87v-.99c-.06.28-.09.52-.1.68,0,.12,0,.65,0,.65-.03.6-.15,1.95-.61,3.52-1.03,3.48-3.77,8.04-11.04,8.02-11.74-.04-11.74-11.87-11.74-11.87v-.99c-.06.28-.09.52-.1.68,0,.12,0,.65,0,.65-.03.6-.14,1.95-.61,3.52-1.03,3.48-3.77,8.04-11.04,8.02-10.16-.03-11.53-8.9-11.71-11.28v-1.65l-.17,1.86c-.06.7-.21,1.81-.58,3.06-1.03,3.48-3.77,8.04-11.04,8.02-11.74-.04-11.74-11.87-11.74-11.87v-.99c-.06.28-.09.52-.1.68-.01.12-.01.65-.01.65-.03.6-.14,1.95-.61,3.52-1.03,3.48-3.77,8.04-11.04,8.02-11.74-.04-11.74-11.87-11.74-11.87v-.99c-.06.28-.09.52-.1.68-.01.12-.01.65-.01.65-.03.6-.15,1.95-.61,3.52-1.03,3.48-3.76,8.04-11.04,8.02-11.74-.04-11.74-11.87-11.74-11.87v-.99c-.06.28-.09.52-.1.68-.01.12-.01.65-.01.65-.03.6-.15,1.95-.61,3.52-1.03,3.48-3.77,8.04-11.04,8.02-11.74-.04-11.74-11.87-11.74-11.87v-.99c-.06.28-.09.52-.1.68,0,.12,0,.65,0,.65-.03.6-.14,1.95-.61,3.52-.83,2.8-2.77,6.31-7.3,7.56V12.1c0,.17,0,.27,0,.27v12.96c.05-.21.08-.43.1-.66,0-.09,0-.18,0-.27v-12.37c.03-.6.15-1.95.61-3.52,1.03-3.48,3.76-8.04,11.04-8.02,11.74.04,11.74,11.87,11.74,11.87v12.96c.05-.21.08-.43.1-.66,0-.09.01-.18.01-.27v-12.37c.03-.6.15-1.95.61-3.52,1.03-3.48,3.77-8.04,11.04-8.02,11.74.04,11.74,11.87,11.74,11.87v12.96c.05-.21.08-.43.1-.66,0-.09.01-.18.01-.27v-12.37c.03-.6.15-1.95.61-3.52,1.03-3.48,3.77-8.04,11.04-8.02,11.74.04,11.74,11.87,11.74,11.87v12.96c.05-.21.08-.43.1-.66,0-.09.01-.18.01-.27v-12.37c.03-.6.14-1.95.61-3.52,1.03-3.48,3.77-8.04,11.04-8.02,11.74.04,11.74,11.87,11.74,11.87v12.83l.11-1.86v-11.3c.03-.6.15-1.95.61-3.52,1.03-3.48,3.77-8.04,11.04-8.02,11.74.04,11.74,11.87,11.74,11.87v12.96c.05-.21.08-.43.1-.66,0-.09,0-.18,0-.27v-12.37c.03-.6.15-1.95.61-3.52,1.03-3.48,3.77-8.04,11.04-8.02,11.74.04,11.74,11.87,11.74,11.87v12.96c.05-.21.08-.43.1-.66,0-.09,0-.18,0-.27v-12.37c.03-.6.15-1.95.61-3.52,1.03-3.48,3.76-8.04,11.04-8.02,11.74.04,11.74,11.87,11.74,11.87v12.96c.05-.21.09-.43.1-.66,0-.09.01-.18.01-.27v-12.37c.03-.6.15-1.95.61-3.52,1.03-3.48,3.77-8.04,11.04-8.02,11.74.04,11.74,11.87,11.74,11.87v12.96c.05-.21.08-.43.1-.66,0-.09.01-.18.01-.27v-12.37c.03-.6.15-1.95.61-3.52,1.03-3.48,3.77-8.04,11.04-8.02,11.74.04,11.74,11.87,11.74,11.87l-.46,23.41Z"/>
  <path class="cls-2" d="M1362.78,35.78c-1.12.32-1.83.5-3.29.5-11.74-.04-11.74-11.87-11.74-11.87v-.99c-.06.28-.09.52-.1.68,0,.12,0,.65,0,.65-.03.6-.15,1.95-.61,3.52-1.03,3.48-3.76,8.04-11.04,8.02-11.74-.04-11.74-11.87-11.74-11.87v-.99c-.06.28-.09.52-.1.68-.01.12-.01.65-.01.65-.03.6-.15,1.95-.61,3.52-1.03,3.48-3.77,8.04-11.04,8.02-11.74-.04-11.74-11.87-11.74-11.87v-.99c-.06.28-.09.52-.1.68,0,.12,0,.65,0,.65-.03.6-.15,1.95-.61,3.52-1.03,3.48-3.77,8.04-11.04,8.02-11.74-.04-11.74-11.87-11.74-11.87v-.99c-.06.28-.09.52-.1.68,0,.12,0,.65,0,.65-.03.6-.14,1.95-.61,3.52-1.03,3.48-3.77,8.04-11.04,8.02-10.16-.03-11.53-8.9-11.71-11.28v-1.65l-.17,1.86c-.06.7-.21,1.81-.58,3.06-1.03,3.48-3.77,8.04-11.04,8.02-11.74-.04-11.74-11.87-11.74-11.87v-.99c-.06.28-.09.52-.1.68-.01.12-.01.65-.01.65-.03.6-.14,1.95-.61,3.52-1.03,3.48-3.77,8.04-11.04,8.02-11.74-.04-11.74-11.87-11.74-11.87v-.99c-.06.28-.09.52-.1.68-.01.12-.01.65-.01.65-.03.6-.15,1.95-.61,3.52-1.03,3.48-3.76,8.04-11.04,8.02-11.74-.04-11.74-11.87-11.74-11.87v-.99c-.06.28-.09.52-.1.68-.01.12-.01.65-.01.65-.03.6-.15,1.95-.61,3.52-1.03,3.48-3.77,8.04-11.04,8.02-11.74-.04-11.74-11.87-11.74-11.87v-.99c-.06.28-.09.52-.1.68,0,.12,0,.65,0,.65-.03.6-.14,1.95-.61,3.52-.83,2.8-2.77,6.31-7.3,7.56V12.1c0,.17,0,.27,0,.27v12.96c.05-.21.08-.43.1-.66,0-.09,0-.18,0-.27v-12.37c.03-.6.15-1.95.61-3.52,1.03-3.48,3.76-8.04,11.04-8.02,11.74.04,11.74,11.87,11.74,11.87v12.96c.05-.21.08-.43.1-.66,0-.09.01-.18.01-.27v-12.37c.03-.6.15-1.95.61-3.52,1.03-3.48,3.77-8.04,11.04-8.02,11.74.04,11.74,11.87,11.74,11.87v12.96c.05-.21.08-.43.1-.66,0-.09.01-.18.01-.27v-12.37c.03-.6.15-1.95.61-3.52,1.03-3.48,3.77-8.04,11.04-8.02,11.74.04,11.74,11.87,11.74,11.87v12.96c.05-.21.08-.43.1-.66,0-.09.01-.18.01-.27v-12.37c.03-.6.14-1.95.61-3.52,1.03-3.48,3.77-8.04,11.04-8.02,11.74.04,11.74,11.87,11.74,11.87v12.83l.11-1.86v-11.3c.03-.6.15-1.95.61-3.52,1.03-3.48,3.77-8.04,11.04-8.02,11.74.04,11.74,11.87,11.74,11.87v12.96c.05-.21.08-.43.1-.66,0-.09,0-.18,0-.27v-12.37c.03-.6.15-1.95.61-3.52,1.03-3.48,3.77-8.04,11.04-8.02,11.74.04,11.74,11.87,11.74,11.87v12.96c.05-.21.08-.43.1-.66,0-.09,0-.18,0-.27v-12.37c.03-.6.15-1.95.61-3.52,1.03-3.48,3.76-8.04,11.04-8.02,11.74.04,11.74,11.87,11.74,11.87v12.96c.05-.21.09-.43.1-.66,0-.09.01-.18.01-.27v-12.37c.03-.6.15-1.95.61-3.52,1.03-3.48,3.77-8.04,11.04-8.02,11.74.04,11.74,11.87,11.74,11.87v12.96c.05-.21.08-.43.1-.66,0-.09.01-.18.01-.27v-12.37c.03-.6.15-1.95.61-3.52,1.03-3.48,3.77-8.04,11.04-8.02,11.74.04,11.74,11.87,11.74,11.87l-.46,23.41Z"/>
  <path class="cls-1" d="M211.64,25.2v10.58c-1.12.32-2.4.5-3.87.5-11.74-.04-11.74-11.87-11.74-11.87v-.99c-.06.28-.09.52-.1.68,0,.12,0,.65,0,.65-.03.6-.15,1.95-.61,3.52-1.03,3.48-3.76,8.04-11.04,8.02-11.74-.04-11.74-11.87-11.74-11.87v-.99c-.06.28-.09.52-.1.68-.01.12-.01.65-.01.65-.03.6-.15,1.95-.61,3.52-1.03,3.48-3.77,8.04-11.04,8.02-11.74-.04-11.74-11.87-11.74-11.87v-.99c-.06.28-.09.52-.1.68,0,.12,0,.65,0,.65-.03.6-.15,1.95-.61,3.52-1.03,3.48-3.76,8.04-11.04,8.02-11.74-.04-11.74-11.87-11.74-11.87v-.99c-.06.28-.09.52-.1.68-.01.12-.01.65-.01.65-.03.6-.14,1.95-.61,3.52-1.03,3.48-3.77,8.04-11.04,8.02-10.16-.03-11.53-8.9-11.71-11.28v-1.65l-.17,1.86c-.06.7-.21,1.81-.58,3.06-1.03,3.48-3.77,8.04-11.04,8.02-11.74-.04-11.74-11.87-11.74-11.87v-.99c-.06.28-.09.52-.1.68-.01.12-.01.65-.01.65-.03.6-.14,1.95-.61,3.52-1.03,3.48-3.77,8.04-11.04,8.02-11.74-.04-11.74-11.87-11.74-11.87v-.99c-.06.28-.09.52-.1.68-.01.12-.01.65-.01.65-.03.6-.15,1.95-.61,3.52-1.03,3.48-3.76,8.04-11.04,8.02-11.74-.04-11.74-11.87-11.74-11.87v-.99c-.06.28-.09.52-.1.68-.01.12-.01.65-.01.65-.03.6-.15,1.95-.61,3.52-1.03,3.48-3.77,8.04-11.04,8.02-11.74-.04-11.74-11.87-11.74-11.87v-.99c-.06.28-.09.52-.1.68,0,.12,0,.65,0,.65-.03.6-.15,1.95-.61,3.52-.83,2.8-2.77,6.31-7.3,7.56V12.1c0,.17,0,.27,0,.27v12.96c.05-.21.08-.43.1-.66,0-.09,0-.18,0-.27v-12.37c.03-.6.15-1.95.61-3.52C1.76,5.04,4.49.48,11.77.5c11.74.04,11.74,11.87,11.74,11.87v12.96c.05-.21.08-.43.1-.66,0-.09.01-.18.01-.27v-12.37c.03-.6.15-1.95.61-3.52,1.03-3.48,3.77-8.04,11.04-8.02,11.74.04,11.74,11.87,11.74,11.87v12.96c.05-.21.08-.43.1-.66,0-.09.01-.18.01-.27v-12.37c.03-.6.15-1.95.61-3.52,1.03-3.48,3.77-8.04,11.04-8.02,11.74.04,11.74,11.87,11.74,11.87v12.96c.05-.21.08-.43.1-.66,0-.09.01-.18.01-.27v-12.37c.03-.6.14-1.95.61-3.52,1.03-3.48,3.77-8.04,11.04-8.02,11.74.04,11.74,11.87,11.74,11.87v12.83l.11-1.86v-11.3c.03-.6.15-1.95.61-3.52,1.03-3.48,3.77-8.04,11.04-8.02,11.74.04,11.74,11.87,11.74,11.87v12.96c.05-.21.08-.43.1-.66,0-.09,0-.18,0-.27v-12.37c.03-.6.15-1.95.61-3.52,1.03-3.48,3.77-8.04,11.04-8.02,11.74.04,11.74,11.87,11.74,11.87v12.96c.05-.21.08-.43.1-.66,0-.09.01-.18.01-.27v-12.37c.03-.6.15-1.95.61-3.52,1.03-3.48,3.76-8.04,11.04-8.02,11.74.04,11.74,11.87,11.74,11.87v12.96c.05-.21.08-.43.1-.66,0-.09.01-.18.01-.27v-12.37c.03-.6.14-1.95.61-3.52,1.03-3.48,3.77-8.04,11.04-8.02,11.74.04,11.74,11.87,11.74,11.87v12.96c.05-.21.08-.43.1-.66,0-.09.01-.18.01-.27v-12.37c.03-.6.15-1.95.61-3.52,1.03-3.48,3.77-8.04,11.04-8.02,11.74.04,11.74,11.87,11.74,11.87v12.83h.11Z"/>
  <path class="cls-1" d="M375.86,35.78c-1.12.32-1.83.5-3.29.5-11.74-.04-11.74-11.87-11.74-11.87v-.99c-.06.28-.09.52-.1.68-.01.12-.01.65-.01.65-.03.6-.15,1.95-.61,3.52-1.03,3.48-3.77,8.04-11.04,8.02-11.74-.04-11.74-11.87-11.74-11.87v-.99c-.06.28-.09.52-.1.68-.01.12-.01.65-.01.65-.03.6-.15,1.95-.61,3.52-1.03,3.48-3.77,8.04-11.04,8.02-11.74-.04-11.74-11.87-11.74-11.87v-.99c-.06.28-.09.52-.1.68-.01.12-.01.65-.01.65-.03.6-.15,1.95-.61,3.52-1.03,3.48-3.77,8.04-11.04,8.02-11.74-.04-11.74-11.87-11.74-11.87v-.99c-.06.28-.09.52-.1.68,0,.12,0,.65,0,.65-.03.6-.14,1.95-.61,3.52-1.03,3.48-3.77,8.04-11.04,8.02-10.16-.03-11.53-8.9-11.71-11.28v-1.65l-.17,1.86c-.06.7-.21,1.81-.58,3.06-1.03,3.48-3.77,8.04-11.04,8.02-11.74-.04-11.74-11.87-11.74-11.87v-.99c-.06.28-.09.52-.1.68-.01.12-.01.65-.01.65-.03.6-.14,1.95-.61,3.52-1.03,3.48-3.77,8.04-11.04,8.02-11.74-.04-11.74-11.87-11.74-11.87v-.99c-.06.28-.09.52-.1.68-.01.12-.01.65-.01.65-.03.6-.15,1.95-.61,3.52-1.03,3.48-3.76,8.04-11.04,8.02-11.74-.04-11.74-11.87-11.74-11.87v-.99c-.06.28-.09.52-.1.68-.01.12-.01.65-.01.65-.03.6-.15,1.95-.61,3.52-1.03,3.48-3.77,8.04-11.04,8.02-11.74-.04-11.74-11.87-11.74-11.87v-.99c-.06.28-.09.52-.1.68-.01.12-.01.65-.01.65-.03.6-.14,1.95-.61,3.52-.83,2.8-2.77,6.31-7.3,7.56V12.1c0,.17,0,.27,0,.27v12.96c.05-.21.08-.43.1-.66,0-.09,0-.18,0-.27v-12.37c.03-.6.15-1.95.61-3.52,1.03-3.48,3.76-8.04,11.04-8.02,11.74.04,11.74,11.87,11.74,11.87v12.96c.05-.21.08-.43.1-.66,0-.09.01-.18.01-.27v-12.37c.03-.6.15-1.95.61-3.52,1.03-3.48,3.77-8.04,11.04-8.02,11.74.04,11.74,11.87,11.74,11.87v12.96c.05-.21.08-.43.1-.66,0-.09.01-.18.01-.27v-12.37c.03-.6.15-1.95.61-3.52,1.03-3.48,3.77-8.04,11.04-8.02,11.74.04,11.74,11.87,11.74,11.87v12.96c.05-.21.08-.43.1-.66,0-.09.01-.18.01-.27v-12.37c.03-.6.14-1.95.61-3.52,1.03-3.48,3.77-8.04,11.04-8.02,11.74.04,11.74,11.87,11.74,11.87v12.83l.11-1.86v-11.3c.03-.6.15-1.95.61-3.52,1.03-3.48,3.77-8.04,11.04-8.02,11.74.04,11.74,11.87,11.74,11.87v12.96c.05-.21.08-.43.1-.66,0-.09.01-.18.01-.27v-12.37c.03-.6.14-1.95.61-3.52,1.03-3.48,3.77-8.04,11.04-8.02,11.74.04,11.74,11.87,11.74,11.87v12.96c.05-.21.08-.43.1-.66,0-.09,0-.18,0-.27v-12.37c.03-.6.15-1.95.61-3.52,1.03-3.48,3.76-8.04,11.04-8.02,11.74.04,11.74,11.87,11.74,11.87v12.96c.05-.21.08-.43.1-.66,0-.09.01-.18.01-.27v-12.37c.03-.6.15-1.95.61-3.52,1.03-3.48,3.77-8.04,11.04-8.02,11.74.04,11.74,11.87,11.74,11.87v12.96c.05-.21.08-.43.1-.66,0-.09.01-.18.01-.27v-12.37c.03-.6.15-1.95.61-3.52,1.03-3.48,3.77-8.04,11.04-8.02,11.74.04,11.74,11.87,11.74,11.87l-.46,23.41Z"/>
  <path class="cls-1" d="M563.47,35.78c-1.12.32-1.83.5-3.29.5-11.74-.04-11.74-11.87-11.74-11.87v-.99c-.06.28-.09.52-.1.68-.01.12-.01.65-.01.65-.03.6-.15,1.95-.61,3.52-1.03,3.48-3.77,8.04-11.04,8.02-11.74-.04-11.74-11.87-11.74-11.87v-.99c-.06.28-.09.52-.1.68-.01.12-.01.65-.01.65-.03.6-.15,1.95-.61,3.52-1.03,3.48-3.77,8.04-11.04,8.02-11.74-.04-11.74-11.87-11.74-11.87v-.99c-.06.28-.09.52-.1.68,0,.12,0,.65,0,.65-.03.6-.15,1.95-.61,3.52-1.03,3.48-3.77,8.04-11.04,8.02-11.74-.04-11.74-11.87-11.74-11.87v-.99c-.06.28-.09.52-.1.68-.01.12-.01.65-.01.65-.03.6-.14,1.95-.61,3.52-1.03,3.48-3.77,8.04-11.04,8.02-10.16-.03-11.53-8.9-11.71-11.28v-1.65l-.17,1.86c-.06.7-.21,1.81-.58,3.06-1.03,3.48-3.77,8.04-11.04,8.02-11.74-.04-11.74-11.87-11.74-11.87v-.99c-.06.28-.09.52-.1.68-.01.12-.01.65-.01.65-.03.6-.15,1.95-.61,3.52-1.03,3.48-3.77,8.04-11.04,8.02-11.74-.04-11.74-11.87-11.74-11.87v-.99c-.06.28-.09.52-.1.68-.01.12-.01.65-.01.65-.03.6-.15,1.95-.61,3.52-1.03,3.48-3.76,8.04-11.04,8.02-11.74-.04-11.74-11.87-11.74-11.87v-.99c-.06.28-.09.52-.1.68-.01.12-.01.65-.01.65-.03.6-.15,1.95-.61,3.52-1.03,3.48-3.77,8.04-11.04,8.02-11.74-.04-11.74-11.87-11.74-11.87v-.99c-.06.28-.09.52-.1.68,0,.12,0,.65,0,.65-.03.6-.15,1.95-.61,3.52-.83,2.8-2.77,6.31-7.3,7.56V12.1c0,.17,0,.27,0,.27v12.96c.05-.21.08-.43.1-.66,0-.09.01-.18.01-.27v-12.37c.03-.6.15-1.95.61-3.52,1.03-3.48,3.77-8.04,11.04-8.02,11.74.04,11.74,11.87,11.74,11.87v12.96c.05-.21.08-.43.1-.66,0-.09.01-.18.01-.27v-12.37c.03-.6.15-1.95.61-3.52,1.03-3.48,3.77-8.04,11.04-8.02,11.74.04,11.74,11.87,11.74,11.87v12.96c.05-.21.08-.43.1-.66,0-.09.01-.18.01-.27v-12.37c.03-.6.15-1.95.61-3.52,1.03-3.48,3.77-8.04,11.04-8.02,11.74.04,11.74,11.87,11.74,11.87v12.96c.05-.21.08-.43.1-.66,0-.09.01-.18.01-.27v-12.37c.03-.6.15-1.95.61-3.52,1.03-3.48,3.77-8.04,11.04-8.02,11.74.04,11.74,11.87,11.74,11.87v12.83l.11-1.86v-11.3c.03-.6.15-1.95.61-3.52,1.03-3.48,3.77-8.04,11.04-8.02,11.74.04,11.74,11.87,11.74,11.87v12.96c.05-.21.08-.43.1-.66,0-.09,0-.18,0-.27v-12.37c.03-.6.15-1.95.61-3.52,1.03-3.48,3.77-8.04,11.04-8.02,11.74.04,11.74,11.87,11.74,11.87v12.96c.05-.21.08-.43.1-.66,0-.09,0-.18,0-.27v-12.37c.03-.6.15-1.95.61-3.52,1.03-3.48,3.76-8.04,11.04-8.02,11.74.04,11.74,11.87,11.74,11.87v12.96c.05-.21.08-.43.1-.66,0-.09.01-.18.01-.27v-12.37c.03-.6.15-1.95.61-3.52,1.03-3.48,3.77-8.04,11.04-8.02,11.74.04,11.74,11.87,11.74,11.87v12.96c.05-.21.08-.43.1-.66,0-.09.01-.18.01-.27v-12.37c.03-.6.15-1.95.61-3.52,1.03-3.48,3.77-8.04,11.04-8.02,11.74.04,11.74,11.87,11.74,11.87l-.46,23.41Z"/>
  <path class="cls-1" d="M727.73,35.78c-1.12.32-1.83.5-3.29.5-11.74-.04-11.74-11.87-11.74-11.87v-.99c-.06.28-.09.52-.1.68-.01.12-.01.65-.01.65-.03.6-.15,1.95-.61,3.52-1.03,3.48-3.77,8.04-11.04,8.02-11.74-.04-11.74-11.87-11.74-11.87v-.99c-.06.28-.09.52-.1.68-.01.12-.01.65-.01.65-.03.6-.15,1.95-.61,3.52-1.03,3.48-3.77,8.04-11.04,8.02-11.74-.04-11.74-11.87-11.74-11.87v-.99c-.06.28-.09.52-.1.68-.01.12-.01.65-.01.65-.03.6-.15,1.95-.61,3.52-1.03,3.48-3.77,8.04-11.04,8.02-11.74-.04-11.74-11.87-11.74-11.87v-.99c-.06.28-.09.52-.1.68,0,.12,0,.65,0,.65-.03.6-.15,1.95-.61,3.52-1.03,3.48-3.77,8.04-11.04,8.02-10.16-.03-11.53-8.9-11.71-11.28v-1.65l-.17,1.86c-.06.7-.21,1.81-.58,3.06-1.03,3.48-3.77,8.04-11.04,8.02-11.74-.04-11.74-11.87-11.74-11.87v-.99c-.06.28-.09.52-.1.68-.01.12-.01.65-.01.65-.03.6-.15,1.95-.61,3.52-1.03,3.48-3.77,8.04-11.04,8.02-11.74-.04-11.74-11.87-11.74-11.87v-.99c-.06.28-.09.52-.1.68-.01.12-.01.65-.01.65-.03.6-.15,1.95-.61,3.52-1.03,3.48-3.76,8.04-11.04,8.02-11.74-.04-11.74-11.87-11.74-11.87v-.99c-.06.28-.09.52-.1.68-.01.12-.01.65-.01.65-.03.6-.15,1.95-.61,3.52-1.03,3.48-3.77,8.04-11.04,8.02-11.74-.04-11.74-11.87-11.74-11.87v-.99c-.06.28-.09.52-.1.68,0,.12,0,.65,0,.65-.03.6-.15,1.95-.61,3.52-.83,2.8-2.77,6.31-7.3,7.56V12.1c0,.17,0,.27,0,.27v12.96c.05-.21.08-.43.1-.66,0-.09.01-.18.01-.27v-12.37c.03-.6.15-1.95.61-3.52,1.03-3.48,3.77-8.04,11.04-8.02,11.74.04,11.74,11.87,11.74,11.87v12.96c.05-.21.08-.43.1-.66,0-.09.01-.18.01-.27v-12.37c.03-.6.15-1.95.61-3.52,1.03-3.48,3.77-8.04,11.04-8.02,11.74.04,11.74,11.87,11.74,11.87v12.96c.05-.21.08-.43.1-.66,0-.09.01-.18.01-.27v-12.37c.03-.6.15-1.95.61-3.52,1.03-3.48,3.77-8.04,11.04-8.02,11.74.04,11.74,11.87,11.74,11.87v12.96c.05-.21.08-.43.1-.66,0-.09.01-.18.01-.27v-12.37c.03-.6.15-1.95.61-3.52,1.03-3.48,3.77-8.04,11.04-8.02,11.74.04,11.74,11.87,11.74,11.87v12.83l.11-1.86v-11.3c.03-.6.15-1.95.61-3.52,1.03-3.48,3.77-8.04,11.04-8.02,11.74.04,11.74,11.87,11.74,11.87v12.96c.05-.21.08-.43.1-.66,0-.09.01-.18.01-.27v-12.37c.03-.6.14-1.95.61-3.52,1.03-3.48,3.77-8.04,11.04-8.02,11.74.04,11.74,11.87,11.74,11.87v12.96c.05-.21.08-.43.1-.66,0-.09,0-.18,0-.27v-12.37c.03-.6.15-1.95.61-3.52,1.03-3.48,3.76-8.04,11.04-8.02,11.74.04,11.74,11.87,11.74,11.87v12.96c.05-.21.08-.43.1-.66,0-.09.01-.18.01-.27v-12.37c.03-.6.15-1.95.61-3.52,1.03-3.48,3.77-8.04,11.04-8.02,11.74.04,11.74,11.87,11.74,11.87v12.96c.05-.21.08-.43.1-.66,0-.09.01-.18.01-.27v-12.37c.03-.6.15-1.95.61-3.52,1.03-3.48,3.77-8.04,11.04-8.02,11.74.04,11.74,11.87,11.74,11.87l-.46,23.41Z"/>
</svg>