<?xml version="1.0" encoding="UTF-8"?>
<svg id="Calque_1" data-name="Calque 1" xmlns="http://www.w3.org/2000/svg" viewBox="0 0 1920 631.54">
  <g>
    <path d="M489.89,1.4c-130.46-.43-179.51,80-197.96,141.22-8.34,27.68-10.43,51.44-10.94,62v217.83c0,1.58-.06,3.16-.17,4.71-2.42,36.43-32.73,65.22-69.76,65.22s-69.93-31.3-69.93-69.93v-71.56H1.28v71.56s0,208.38,210.48,209.08c130.46.43,179.51-80.02,197.96-141.24,8.34-27.68,10.43-51.43,10.94-61.99,0,0,0-9.29.17-11.43,1.08-13.99,9.14-66.55,69.76-66.55,69.93,0,69.93,69.93,69.93,69.93v69.91h139.85V210.48S700.37,2.1,489.89,1.4ZM490.59,280.41c-37.03,0-67.34-28.8-69.76-65.22-.11-1.55-.17-3.13-.17-4.71s.06-3.16.17-4.71c2.42-36.43,32.73-65.22,69.76-65.22s69.93,31.3,69.93,69.93-31.3,69.93-69.93,69.93Z"/>
    <path d="M69.8,283.26C31.25,283.26,0,252.01,0,213.45s31.25-69.8,69.8-69.8,69.8,31.26,69.8,69.8-31.26,69.8-69.8,69.8Z"/>
  </g>
  <path d="M985.15,3.28h-40.48l-79.35,215.36h48.65l17.79-49.49h65.75l17.72,49.49h48.95L985.15,3.28ZM946.73,127.54l18.02-50.02,17.87,50.02h-35.89Z"/>
  <path d="M1198.83,130.59c.23-.15.53-.31.84-.46,11.68-6.19,20.54-14.66,26.27-25.28,5.57-10.23,8.4-21.61,8.4-33.76s-2.75-23.98-8.25-34.06c-5.65-10.39-14.36-18.79-25.89-24.9-11.15-5.88-25.35-8.86-42.16-8.86h-73.62v215.36h46.05v-79.5h20.93l39.1,79.5h53l-44.68-88.06ZM1156.14,45.75c11.84,0,20.39,2.29,24.74,6.64,4.51,4.51,6.65,10.69,6.65,18.94s-2.29,14.59-7.1,19.63c-4.58,4.73-12.68,7.18-24.06,7.18h-25.89v-52.39h25.66Z"/>
  <g>
    <path d="M1318.51,32.23c0,7.71-2.82,14.51-8.17,19.7-5.19,5.04-11.84,7.71-19.25,7.71s-14.36-2.75-19.47-7.87c-5.19-5.12-7.87-11.91-7.87-19.55s2.75-14.44,8.1-19.47c5.12-4.81,11.84-7.33,19.24-7.33s13.82,2.52,19.02,7.25c5.5,5.04,8.4,11.76,8.4,19.55Z"/>
    <rect x="1268.1" y="85.15" width="45.98" height="133.5"/>
  </g>
  <path d="M1544.26,53.77c-8.86-16.73-21.38-30.01-37.42-39.56-15.88-9.39-34.67-14.2-55.75-14.2s-39.48,4.81-55.45,14.2c-15.96,9.47-28.56,22.76-37.5,39.56-8.86,16.5-13.36,35.74-13.36,57.2s4.51,40.94,13.36,57.51c8.94,16.73,21.54,30.01,37.57,39.41,15.88,9.32,34.52,14.05,55.37,14.05s39.87-4.73,55.75-14.05c15.96-9.39,28.56-22.68,37.42-39.48,8.78-16.5,13.14-35.82,13.14-57.43s-4.35-40.63-13.14-57.2ZM1503.17,148.31c-5.04,9.85-11.76,17.26-20.62,22.45-9.01,5.35-19.32,7.94-31.46,7.94s-22.38-2.6-31.39-7.94c-8.86-5.19-15.66-12.6-20.62-22.45-5.12-10.16-7.71-22.76-7.71-37.35s2.6-27.19,7.71-37.34c4.96-9.85,11.68-17.18,20.54-22.3,8.94-5.19,19.47-7.79,31.47-7.79s22.61,2.6,31.54,7.79c8.86,5.12,15.58,12.45,20.54,22.3,5.12,10.16,7.71,22.68,7.71,37.34s-2.6,27.19-7.71,37.35Z"/>
  <path d="M1736.41,156.87c0,11.22-2.98,21.92-8.86,31.85-5.96,9.93-14.74,18.02-26.04,24.13-11.15,6.03-25.13,9.09-41.47,9.09s-29.86-2.98-41.85-8.86c-12.37-6.11-22.07-14.74-28.87-25.74-6.8-10.92-10.23-23.67-10.23-37.88v-11.46h47.04v11.46c0,5.57,1.3,10.62,3.82,15.2,2.44,4.51,6.03,7.94,10.84,10.69,4.89,2.75,11.38,4.12,19.24,4.12,6.95,0,12.76-1.07,17.34-3.13,4.2-1.99,7.18-4.43,9.24-7.56,1.98-3.05,2.98-6.49,2.98-10.54,0-5.27-.99-9.24-2.9-11.91-2.21-3.21-5.27-5.8-9.24-7.87-4.96-2.6-10.77-4.96-17.26-6.95-7.41-2.22-15.12-4.74-23.14-7.56-16.72-5.73-29.02-12.98-37.57-22.07-9.16-9.78-13.82-22.45-13.82-37.65,0-12.6,3.06-23.83,9.01-33.53,5.96-9.7,14.59-17.34,25.51-22.84,10.69-5.19,23.22-7.86,37.42-7.86s26.58,2.67,37.19,8.09c10.84,5.5,19.55,13.14,25.74,22.83,6.34,9.85,9.55,21.23,9.55,33.83v11.46h-47.12v-11.46c0-3.44-.92-6.8-2.75-10.23-1.76-3.36-4.51-6.11-8.33-8.4-3.74-2.29-8.86-3.44-15.12-3.44-5.42-.15-10,.69-13.75,2.37-3.51,1.6-6.03,3.74-7.87,6.49-1.83,2.67-2.67,6.11-2.67,10.46,0,3.82.69,6.72,1.99,8.63,1.6,2.29,4.05,4.35,7.41,6.11,4.43,2.37,9.78,4.51,15.96,6.57,6.8,2.22,14.36,4.66,22.61,7.41,10.16,3.36,19.32,7.64,27.34,12.53,8.78,5.5,15.81,12.6,20.85,21.08,5.19,8.78,7.79,19.7,7.79,32.54Z"/>
  <g>
    <path d="M1022.65,426.11c0,11.22-2.98,21.92-8.86,31.85-5.96,9.93-14.74,18.02-26.04,24.13-11.15,6.03-25.13,9.09-41.47,9.09s-29.86-2.98-41.85-8.86c-12.37-6.11-22.07-14.74-28.87-25.74-6.8-10.92-10.23-23.67-10.23-37.88v-11.46h47.04v11.46c0,5.57,1.3,10.62,3.82,15.2,2.44,4.51,6.03,7.94,10.84,10.69,4.89,2.75,11.38,4.12,19.25,4.12,6.95,0,12.75-1.07,17.34-3.13,4.2-1.99,7.18-4.43,9.24-7.56,1.99-3.05,2.98-6.49,2.98-10.54,0-5.27-.99-9.24-2.9-11.91-2.21-3.21-5.27-5.8-9.24-7.87-4.96-2.6-10.77-4.96-17.26-6.95-7.41-2.22-15.12-4.74-23.14-7.56-16.73-5.73-29.02-12.98-37.57-22.07-9.16-9.78-13.82-22.45-13.82-37.65,0-12.6,3.06-23.83,9.01-33.53,5.96-9.7,14.59-17.34,25.51-22.84,10.69-5.19,23.22-7.86,37.42-7.86s26.58,2.67,37.19,8.09c10.84,5.5,19.55,13.14,25.74,22.83,6.34,9.85,9.55,21.23,9.55,33.83v11.46h-47.12v-11.46c0-3.44-.92-6.8-2.75-10.23-1.76-3.36-4.51-6.11-8.33-8.4-3.74-2.29-8.86-3.44-15.12-3.44-5.5-.15-10,.69-13.75,2.37-3.51,1.6-6.03,3.74-7.87,6.49-1.83,2.67-2.67,6.11-2.67,10.46,0,3.82.69,6.72,1.99,8.63,1.6,2.29,4.05,4.35,7.41,6.11,4.43,2.37,9.78,4.51,15.96,6.57,6.8,2.22,14.36,4.66,22.61,7.41,10.16,3.36,19.32,7.64,27.34,12.53,8.78,5.5,15.81,12.6,20.85,21.08,5.19,8.78,7.79,19.7,7.79,32.54Z"/>
    <polygon points="1195.86 272.53 1195.86 314.38 1138.35 314.38 1138.35 487.89 1092.37 487.89 1092.37 314.38 1034.94 314.38 1034.94 272.53 1195.86 272.53"/>
    <path d="M1385.03,272.53v132.96c0,19.02-3.82,35.13-11.23,47.73-7.56,12.83-17.87,22.53-30.7,28.79-12.3,6.11-26.2,9.16-41.32,9.16s-28.72-3.05-40.93-9.16c-12.75-6.26-22.99-15.96-30.55-28.79-7.41-12.6-11.15-28.64-11.15-47.73v-132.96h45.98v133.27c0,10.54,1.68,19.02,4.89,25.2,2.98,5.73,6.95,9.78,12.14,12.37,5.73,2.83,12.52,4.28,20.16,4.28s14.59-1.45,20.09-4.2c5.04-2.6,8.86-6.64,11.76-12.37,3.21-6.19,4.81-14.74,4.81-25.28v-133.27h46.05Z"/>
    <path d="M1589.85,323.85c-8.09-16.5-20.7-29.4-37.42-38.34-16.34-8.63-36.89-12.98-61.25-12.98h-70.57v215.36h70.57c24.36,0,44.91-4.35,61.17-12.83,16.8-8.86,29.4-21.69,37.5-38.11,7.87-15.81,11.76-34.75,11.76-56.21s-3.89-40.93-11.76-56.9ZM1548.53,417.17c-3.74,9.09-9.93,15.89-18.71,20.77-9.39,5.19-22.53,7.79-39.18,7.79h-23.98v-131.05h23.98c16.65,0,29.79,2.67,39.1,7.87,8.86,4.96,14.97,11.84,18.79,21.08,4.2,10.08,6.26,22.61,6.26,37.12s-2.06,26.42-6.26,36.43Z"/>
    <rect x="1631.55" y="272.53" width="45.98" height="215.36"/>
    <path d="M1906.86,323.01c-8.86-16.73-21.46-30.01-37.42-39.56-15.89-9.39-34.67-14.2-55.75-14.2s-39.56,4.81-55.45,14.2c-15.96,9.47-28.64,22.76-37.57,39.56-8.78,16.5-13.29,35.74-13.29,57.2s4.51,40.94,13.29,57.51c9.01,16.73,21.61,30.01,37.57,39.41,15.96,9.32,34.6,14.05,55.45,14.05s39.79-4.73,55.75-14.05c15.96-9.39,28.56-22.68,37.42-39.48,8.71-16.5,13.14-35.82,13.14-57.43s-4.43-40.63-13.14-57.2ZM1865.78,417.56c-5.04,9.85-11.76,17.26-20.62,22.45-9.01,5.35-19.32,7.94-31.47,7.94s-22.38-2.6-31.39-7.94c-8.94-5.19-15.66-12.6-20.62-22.45-5.12-10.16-7.71-22.76-7.71-37.35s2.6-27.19,7.71-37.34c4.96-9.85,11.68-17.18,20.54-22.3,8.86-5.19,19.47-7.79,31.46-7.79s22.61,2.6,31.54,7.79c8.78,5.12,15.5,12.45,20.54,22.3,5.12,10.16,7.71,22.68,7.71,37.34s-2.6,27.19-7.71,37.35Z"/>
  </g>
</svg>