<?xml version="1.0" encoding="UTF-8"?>
<svg id="Calque_1" data-name="Calque 1" xmlns="http://www.w3.org/2000/svg" viewBox="0 0 1920 631.54">
  <defs>
    <style>
      .cls-1 {
        fill: #fff;
      }
    </style>
  </defs>
  <path class="cls-1" d="M700.37,490.17V210.48S700.37,2.1,489.89,1.4c-130.46-.43-179.51,80-197.96,141.22-8.34,27.68-10.43,51.44-10.94,62v217.83c0,1.58-.06,3.16-.17,4.71-2.42,36.43-32.73,65.22-69.76,65.22s-69.93-31.3-69.93-69.93v-71.56H1.28v71.56s0,208.38,210.48,209.08c130.46.43,179.51-80.02,197.96-141.24,8.34-27.68,10.43-51.43,10.94-61.99,0,0,0-9.29.17-11.43,1.08-13.99,9.14-66.55,69.76-66.55,69.93,0,69.93,69.93,69.93,69.93v69.91h139.85ZM490.59,280.41c-37.03,0-67.34-28.8-69.76-65.22-.11-1.55-.17-3.13-.17-4.71s.06-3.16.17-4.71c2.42-36.43,32.73-65.22,69.76-65.22s69.93,31.3,69.93,69.93-31.3,69.93-69.93,69.93Z"/>
  <path class="cls-1" d="M69.8,283.26c38.54,0,69.8-31.25,69.8-69.8s-31.26-69.8-69.8-69.8S0,174.91,0,213.45s31.25,69.8,69.8,69.8Z"/>
  <path class="cls-1" d="M931.77,169.16h65.75l17.72,49.49h48.95L985.15,3.28h-40.48l-79.35,215.36h48.65l17.79-49.49ZM964.76,77.52l17.87,50.02h-35.89l18.02-50.02Z"/>
  <path class="cls-1" d="M1130.48,139.15h20.93l39.1,79.5h53l-44.68-88.06c.23-.15.53-.31.84-.46,11.68-6.19,20.54-14.66,26.27-25.28,5.57-10.23,8.4-21.61,8.4-33.76s-2.75-23.98-8.25-34.06c-5.65-10.39-14.36-18.79-25.89-24.9-11.15-5.88-25.35-8.86-42.16-8.86h-73.62v215.36h46.05v-79.5ZM1130.48,45.75h25.66c11.84,0,20.39,2.29,24.74,6.64,4.51,4.51,6.65,10.69,6.65,18.94s-2.29,14.59-7.1,19.63c-4.58,4.73-12.68,7.18-24.06,7.18h-25.89v-52.39Z"/>
  <path class="cls-1" d="M1291.09,59.64c7.41,0,14.05-2.67,19.25-7.71,5.35-5.19,8.17-11.99,8.17-19.7s-2.9-14.51-8.4-19.55c-5.19-4.73-11.76-7.25-19.02-7.25s-14.13,2.52-19.24,7.33c-5.35,5.04-8.1,11.76-8.1,19.47s2.67,14.43,7.87,19.55c5.12,5.12,11.91,7.87,19.47,7.87Z"/>
  <rect class="cls-1" x="1268.1" y="85.15" width="45.98" height="133.5"/>
  <path class="cls-1" d="M1506.84,207.88c15.96-9.39,28.56-22.68,37.42-39.48,8.78-16.5,13.14-35.82,13.14-57.43s-4.35-40.63-13.14-57.2c-8.86-16.73-21.38-30.02-37.42-39.56-15.88-9.39-34.67-14.2-55.75-14.2s-39.48,4.81-55.44,14.2c-15.96,9.47-28.56,22.76-37.5,39.56-8.86,16.5-13.36,35.74-13.36,57.2s4.51,40.94,13.36,57.51c8.94,16.73,21.54,30.02,37.57,39.41,15.88,9.32,34.52,14.05,55.37,14.05s39.87-4.73,55.75-14.05ZM1399.08,148.31c-5.12-10.16-7.71-22.76-7.71-37.35s2.6-27.19,7.71-37.34c4.96-9.85,11.68-17.18,20.54-22.3,8.94-5.19,19.47-7.79,31.47-7.79s22.61,2.6,31.54,7.79c8.86,5.12,15.58,12.45,20.54,22.3,5.12,10.16,7.71,22.68,7.71,37.34s-2.6,27.19-7.71,37.35c-5.04,9.85-11.76,17.26-20.62,22.45-9.01,5.35-19.32,7.94-31.46,7.94s-22.38-2.6-31.39-7.94c-8.86-5.19-15.66-12.6-20.62-22.45Z"/>
  <path class="cls-1" d="M1618.18,213.07c11.99,5.88,26.04,8.86,41.85,8.86s30.32-3.05,41.47-9.09c11.3-6.11,20.09-14.21,26.04-24.13,5.88-9.93,8.86-20.62,8.86-31.85,0-12.83-2.6-23.75-7.79-32.54-5.04-8.48-12.07-15.58-20.85-21.08-8.02-4.89-17.18-9.17-27.34-12.53-8.25-2.75-15.81-5.19-22.61-7.41-6.19-2.06-11.53-4.2-15.96-6.57-3.36-1.76-5.8-3.82-7.41-6.11-1.3-1.91-1.99-4.81-1.99-8.63,0-4.35.84-7.79,2.67-10.46,1.83-2.75,4.35-4.89,7.87-6.49,3.74-1.68,8.33-2.52,13.75-2.37,6.26,0,11.38,1.15,15.12,3.44,3.82,2.29,6.57,5.04,8.33,8.4,1.83,3.44,2.75,6.8,2.75,10.23v11.46h47.12v-11.46c0-12.6-3.21-23.98-9.55-33.83-6.19-9.7-14.89-17.34-25.74-22.83-10.61-5.42-23.14-8.09-37.19-8.09s-26.73,2.67-37.42,7.86c-10.92,5.5-19.55,13.14-25.51,22.84-5.96,9.7-9.01,20.92-9.01,33.53,0,15.2,4.66,27.87,13.82,37.65,8.55,9.09,20.85,16.34,37.57,22.07,8.02,2.82,15.73,5.35,23.14,7.56,6.49,1.99,12.3,4.35,17.26,6.95,3.97,2.06,7.03,4.66,9.24,7.87,1.91,2.67,2.9,6.64,2.9,11.91,0,4.05-.99,7.48-2.98,10.54-2.06,3.13-5.04,5.58-9.24,7.56-4.58,2.06-10.39,3.13-17.34,3.13-7.87,0-14.36-1.38-19.24-4.12-4.81-2.75-8.4-6.19-10.84-10.69-2.52-4.58-3.82-9.62-3.82-15.2v-11.46h-47.04v11.46c0,14.21,3.44,26.96,10.23,37.88,6.8,11,16.5,19.63,28.87,25.74Z"/>
  <path class="cls-1" d="M994.01,372.5c-8.02-4.89-17.18-9.17-27.34-12.53-8.25-2.75-15.81-5.19-22.61-7.41-6.19-2.06-11.53-4.2-15.96-6.57-3.36-1.76-5.8-3.82-7.41-6.11-1.3-1.91-1.99-4.81-1.99-8.63,0-4.35.84-7.79,2.67-10.46,1.83-2.75,4.35-4.89,7.87-6.49,3.74-1.68,8.25-2.52,13.75-2.37,6.26,0,11.38,1.15,15.12,3.44,3.82,2.29,6.57,5.04,8.32,8.4,1.83,3.44,2.75,6.8,2.75,10.23v11.46h47.12v-11.46c0-12.6-3.21-23.98-9.55-33.83-6.19-9.7-14.89-17.34-25.74-22.83-10.61-5.42-23.14-8.09-37.19-8.09s-26.73,2.67-37.42,7.86c-10.92,5.5-19.55,13.14-25.51,22.84-5.96,9.7-9.01,20.92-9.01,33.53,0,15.2,4.66,27.87,13.82,37.65,8.55,9.09,20.85,16.34,37.57,22.07,8.02,2.82,15.73,5.35,23.14,7.56,6.49,1.99,12.3,4.35,17.26,6.95,3.97,2.06,7.03,4.66,9.24,7.87,1.91,2.67,2.9,6.64,2.9,11.91,0,4.05-.99,7.48-2.98,10.54-2.06,3.13-5.04,5.58-9.24,7.56-4.58,2.06-10.39,3.13-17.34,3.13-7.87,0-14.36-1.38-19.25-4.12-4.81-2.75-8.4-6.19-10.84-10.69-2.52-4.58-3.82-9.62-3.82-15.2v-11.46h-47.04v11.46c0,14.21,3.44,26.96,10.23,37.88,6.8,11,16.5,19.63,28.87,25.74,11.99,5.88,26.04,8.86,41.85,8.86s30.32-3.05,41.47-9.09c11.3-6.11,20.08-14.21,26.04-24.13,5.88-9.93,8.86-20.62,8.86-31.85,0-12.83-2.6-23.75-7.79-32.54-5.04-8.48-12.07-15.58-20.85-21.08Z"/>
  <polygon class="cls-1" points="1138.35 487.89 1138.35 314.38 1195.86 314.38 1195.86 272.53 1034.94 272.53 1034.94 314.38 1092.37 314.38 1092.37 487.89 1138.35 487.89"/>
  <path class="cls-1" d="M1373.8,453.22c7.41-12.6,11.23-28.72,11.23-47.73v-132.96h-46.05v133.27c0,10.54-1.6,19.09-4.81,25.28-2.9,5.73-6.72,9.78-11.76,12.37-5.5,2.75-12.22,4.2-20.09,4.2s-14.43-1.45-20.16-4.28c-5.19-2.6-9.16-6.64-12.14-12.37-3.21-6.19-4.89-14.66-4.89-25.2v-133.27h-45.98v132.96c0,19.09,3.74,35.13,11.15,47.73,7.56,12.83,17.79,22.53,30.55,28.79,12.22,6.11,26.04,9.16,40.93,9.16s29.02-3.05,41.32-9.16c12.83-6.26,23.14-15.96,30.7-28.79Z"/>
  <path class="cls-1" d="M1589.85,323.85c-8.09-16.5-20.7-29.4-37.42-38.34-16.34-8.63-36.89-12.98-61.25-12.98h-70.57v215.36h70.57c24.36,0,44.91-4.35,61.17-12.83,16.8-8.86,29.4-21.69,37.5-38.11,7.87-15.81,11.76-34.75,11.76-56.21s-3.89-40.93-11.76-56.9ZM1548.53,417.17c-3.74,9.09-9.93,15.89-18.71,20.77-9.39,5.19-22.53,7.79-39.18,7.79h-23.98v-131.05h23.98c16.65,0,29.79,2.67,39.1,7.87,8.86,4.96,14.97,11.84,18.79,21.08,4.2,10.08,6.26,22.61,6.26,37.11s-2.06,26.42-6.26,36.43Z"/>
  <rect class="cls-1" x="1631.55" y="272.53" width="45.98" height="215.36"/>
  <path class="cls-1" d="M1906.86,437.64c8.71-16.5,13.14-35.82,13.14-57.43s-4.43-40.63-13.14-57.2c-8.86-16.73-21.46-30.01-37.42-39.56-15.89-9.39-34.67-14.2-55.75-14.2s-39.56,4.81-55.44,14.2c-15.96,9.47-28.64,22.76-37.57,39.56-8.78,16.5-13.29,35.74-13.29,57.2s4.51,40.94,13.29,57.51c9.01,16.73,21.61,30.01,37.57,39.41,15.96,9.32,34.6,14.05,55.44,14.05s39.79-4.73,55.75-14.05c15.96-9.39,28.56-22.68,37.42-39.49ZM1845.16,440.01c-9.01,5.35-19.32,7.94-31.47,7.94s-22.38-2.6-31.39-7.94c-8.94-5.19-15.66-12.6-20.62-22.45-5.12-10.16-7.71-22.76-7.71-37.35s2.6-27.19,7.71-37.34c4.96-9.85,11.68-17.18,20.54-22.3,8.86-5.19,19.47-7.79,31.46-7.79s22.61,2.6,31.54,7.79c8.78,5.12,15.5,12.45,20.54,22.3,5.12,10.16,7.71,22.68,7.71,37.34s-2.6,27.19-7.71,37.35c-5.04,9.85-11.76,17.26-20.62,22.45Z"/>
  <path class="cls-1" d="M580.97,589.14c2.04-1.36,4.52-2.04,7.44-2.04,3.06,0,5.53.72,7.41,2.15,1.87,1.44,3.1,3.44,3.69,6.02h12.04c-.97-5.74-3.48-10.19-7.52-13.35-4.04-3.16-9.22-4.74-15.54-4.74-5.16,0-9.61,1.13-13.36,3.39-3.75,2.26-6.62,5.38-8.61,9.34-2,3.97-2.99,8.58-2.99,13.83s1,9.72,2.99,13.68c1.99,3.97,4.86,7.05,8.61,9.27,3.75,2.21,8.2,3.32,13.36,3.32,6.32,0,11.51-1.54,15.54-4.63,4.04-3.09,6.54-7.33,7.52-12.74h-12.04c-.58,2.43-1.81,4.29-3.69,5.58-1.87,1.29-4.34,1.93-7.41,1.93s-5.4-.67-7.44-2.01c-2.04-1.34-3.6-3.24-4.67-5.69-1.07-2.46-1.61-5.36-1.61-8.72s.53-6.41,1.61-8.87c1.07-2.46,2.63-4.37,4.67-5.73Z"/>
  <path class="cls-1" d="M660.88,580.53c-3.89-2.24-8.39-3.36-13.5-3.36s-9.52,1.12-13.39,3.36c-3.87,2.24-6.9,5.34-9.09,9.3-2.19,3.97-3.28,8.55-3.28,13.76s1.09,9.79,3.28,13.76c2.19,3.97,5.22,7.07,9.09,9.31,3.87,2.24,8.33,3.36,13.39,3.36s9.61-1.12,13.5-3.36c3.89-2.24,6.92-5.34,9.09-9.31,2.16-3.96,3.25-8.55,3.25-13.76s-1.08-9.79-3.25-13.76c-2.17-3.96-5.19-7.07-9.09-9.3ZM660.26,612.39c-1.19,2.46-2.88,4.37-5.07,5.73s-4.79,2.04-7.81,2.04-5.55-.68-7.74-2.04-3.88-3.27-5.07-5.73c-1.19-2.46-1.79-5.39-1.79-8.79s.6-6.34,1.79-8.79c1.19-2.46,2.88-4.35,5.07-5.69,2.19-1.34,4.77-2.01,7.74-2.01s5.62.67,7.81,2.01c2.19,1.34,3.88,3.24,5.07,5.69,1.19,2.46,1.79,5.39,1.79,8.79s-.6,6.34-1.79,8.79Z"/>
  <polygon class="cls-1" points="718.17 611.55 695.77 578.05 684.82 578.05 684.82 629.14 695.77 629.14 695.77 595.71 718.17 629.14 729.12 629.14 729.12 578.05 718.17 578.05 718.17 611.55"/>
  <path class="cls-1" d="M758.17,589.14c2.04-1.36,4.52-2.04,7.44-2.04,3.06,0,5.53.72,7.41,2.15,1.87,1.44,3.1,3.44,3.69,6.02h12.04c-.97-5.74-3.48-10.19-7.52-13.35-4.04-3.16-9.22-4.74-15.54-4.74-5.16,0-9.61,1.13-13.35,3.39-3.75,2.26-6.62,5.38-8.61,9.34-2,3.97-2.99,8.58-2.99,13.83s1,9.72,2.99,13.68c1.99,3.97,4.86,7.05,8.61,9.27,3.75,2.21,8.2,3.32,13.35,3.32,6.32,0,11.51-1.54,15.54-4.63,4.04-3.09,6.54-7.33,7.52-12.74h-12.04c-.58,2.43-1.81,4.29-3.69,5.58-1.87,1.29-4.34,1.93-7.41,1.93s-5.4-.67-7.44-2.01c-2.04-1.34-3.6-3.24-4.67-5.69-1.07-2.46-1.61-5.36-1.61-8.72s.53-6.41,1.61-8.87c1.07-2.46,2.63-4.37,4.67-5.73Z"/>
  <polygon class="cls-1" points="800.35 629.14 834.57 629.14 834.57 620.31 811.29 620.31 811.29 607.39 832.38 607.39 832.38 598.92 811.29 598.92 811.29 586.88 834.57 586.88 834.57 578.05 800.35 578.05 800.35 629.14"/>
  <path class="cls-1" d="M876.94,580.17c-2.75-1.41-6.19-2.12-10.33-2.12h-19.92v51.09h10.95v-18.97h8.98c4.28,0,7.8-.75,10.55-2.26,2.75-1.51,4.77-3.48,6.06-5.91,1.29-2.43,1.93-5.04,1.93-7.81,0-3.11-.68-5.88-2.04-8.28-1.36-2.41-3.42-4.32-6.17-5.73ZM872.08,599.43c-1.27,1.31-3.33,1.97-6.2,1.97h-8.25v-14.45h8.25c2.87,0,4.94.63,6.2,1.9,1.26,1.27,1.9,3.04,1.9,5.33s-.63,3.94-1.9,5.25Z"/>
  <polygon class="cls-1" points="892.74 586.88 907.55 586.88 907.55 629.14 918.5 629.14 918.5 586.88 933.31 586.88 933.31 578.05 892.74 578.05 892.74 586.88"/>
  <rect class="cls-1" x="943.53" y="578.05" width="10.95" height="51.09"/>
  <path class="cls-1" d="M1005.34,580.53c-3.89-2.24-8.39-3.36-13.5-3.36s-9.52,1.12-13.39,3.36c-3.87,2.24-6.9,5.34-9.09,9.3-2.19,3.97-3.28,8.55-3.28,13.76s1.09,9.79,3.28,13.76c2.19,3.97,5.22,7.07,9.09,9.31,3.87,2.24,8.33,3.36,13.39,3.36s9.61-1.12,13.5-3.36c3.89-2.24,6.92-5.34,9.09-9.31,2.16-3.96,3.25-8.55,3.25-13.76s-1.08-9.79-3.25-13.76c-2.17-3.96-5.19-7.07-9.09-9.3ZM1004.72,612.39c-1.19,2.46-2.88,4.37-5.07,5.73s-4.79,2.04-7.81,2.04-5.55-.68-7.74-2.04c-2.19-1.36-3.88-3.27-5.07-5.73-1.19-2.46-1.79-5.39-1.79-8.79s.6-6.34,1.79-8.79c1.19-2.46,2.88-4.35,5.07-5.69,2.19-1.34,4.77-2.01,7.74-2.01s5.62.67,7.81,2.01c2.19,1.34,3.88,3.24,5.07,5.69,1.19,2.46,1.79,5.39,1.79,8.79s-.6,6.34-1.79,8.79Z"/>
  <polygon class="cls-1" points="1062.63 611.55 1040.23 578.05 1029.28 578.05 1029.28 629.14 1040.23 629.14 1040.23 595.71 1062.63 629.14 1073.58 629.14 1073.58 578.05 1062.63 578.05 1062.63 611.55"/>
  <path class="cls-1" d="M1148.44,581.23c-3.89-2.12-8.78-3.17-14.67-3.17h-18.39v51.09h18.32c5.98,0,10.91-1.07,14.78-3.21,3.87-2.14,6.74-5.12,8.61-8.94,1.87-3.82,2.81-8.28,2.81-13.39s-.94-9.64-2.81-13.46c-1.87-3.82-4.76-6.79-8.65-8.9ZM1147.31,612.24c-.95,2.41-2.57,4.26-4.85,5.55-2.29,1.29-5.43,1.93-9.41,1.93h-6.71v-32.33h6.71c3.99,0,7.13.65,9.41,1.93,2.29,1.29,3.9,3.14,4.85,5.55s1.42,5.32,1.42,8.72-.47,6.24-1.42,8.65Z"/>
  <polygon class="cls-1" points="1172.18 572.84 1182.81 572.84 1184.07 550.42 1170.83 550.42 1172.18 572.84"/>
  <path class="cls-1" d="M1213.44,578.05l-18.61,51.09h11.46l3.85-11.17h19.01l3.85,11.17h11.6l-18.61-51.09h-12.55ZM1213.06,609.51l6.59-19.12,6.59,19.12h-13.18Z"/>
  <path class="cls-1" d="M1284.63,580.17c-2.75-1.41-6.19-2.12-10.33-2.12h-19.92v51.09h10.95v-18.97h8.98c4.28,0,7.8-.75,10.55-2.26,2.75-1.51,4.77-3.48,6.06-5.91,1.29-2.43,1.93-5.04,1.93-7.81,0-3.11-.68-5.88-2.04-8.28-1.36-2.41-3.42-4.32-6.17-5.73ZM1279.78,599.43c-1.27,1.31-3.33,1.97-6.2,1.97h-8.25v-14.45h8.25c2.87,0,4.94.63,6.2,1.9,1.26,1.27,1.9,3.04,1.9,5.33s-.63,3.94-1.9,5.25Z"/>
  <path class="cls-1" d="M1333.6,580.17c-2.75-1.41-6.19-2.12-10.33-2.12h-19.92v51.09h10.95v-18.97h8.98c4.28,0,7.8-.75,10.55-2.26,2.75-1.51,4.77-3.48,6.06-5.91,1.29-2.43,1.93-5.04,1.93-7.81,0-3.11-.68-5.88-2.04-8.28-1.36-2.41-3.42-4.32-6.17-5.73ZM1328.75,599.43c-1.27,1.31-3.33,1.97-6.2,1.97h-8.25v-14.45h8.25c2.87,0,4.94.63,6.2,1.9,1.26,1.27,1.9,3.04,1.9,5.33s-.63,3.94-1.9,5.25Z"/>
  <polygon class="cls-1" points="1363.27 578.05 1352.32 578.05 1352.32 629.14 1385.31 629.14 1385.31 620.67 1363.27 620.67 1363.27 578.05"/>
  <rect class="cls-1" x="1397.13" y="578.05" width="10.95" height="51.09"/>
  <path class="cls-1" d="M1437.12,589.14c2.04-1.36,4.52-2.04,7.44-2.04,3.07,0,5.53.72,7.41,2.15,1.87,1.44,3.1,3.44,3.69,6.02h12.04c-.97-5.74-3.48-10.19-7.52-13.35-4.04-3.16-9.22-4.74-15.54-4.74-5.16,0-9.61,1.13-13.35,3.39-3.75,2.26-6.62,5.38-8.61,9.34-2,3.97-2.99,8.58-2.99,13.83s1,9.72,2.99,13.68c1.99,3.97,4.86,7.05,8.61,9.27,3.75,2.21,8.2,3.32,13.35,3.32,6.32,0,11.51-1.54,15.54-4.63,4.04-3.09,6.54-7.33,7.52-12.74h-12.04c-.58,2.43-1.81,4.29-3.69,5.58-1.87,1.29-4.34,1.93-7.41,1.93s-5.4-.67-7.44-2.01c-2.04-1.34-3.6-3.24-4.67-5.69-1.07-2.46-1.61-5.36-1.61-8.72s.54-6.41,1.61-8.87c1.07-2.46,2.63-4.37,4.67-5.73Z"/>
  <path class="cls-1" d="M1494.26,578.05l-18.61,51.09h11.46l3.85-11.17h19.01l3.85,11.17h11.6l-18.61-51.09h-12.55ZM1493.88,609.51l6.59-19.12,6.59,19.12h-13.18Z"/>
  <polygon class="cls-1" points="1527.03 586.88 1541.85 586.88 1541.85 629.14 1552.79 629.14 1552.79 586.88 1567.61 586.88 1567.61 578.05 1527.03 578.05 1527.03 586.88"/>
  <rect class="cls-1" x="1577.82" y="578.05" width="10.95" height="51.09"/>
  <path class="cls-1" d="M1639.64,580.53c-3.89-2.24-8.39-3.36-13.5-3.36s-9.52,1.12-13.39,3.36c-3.87,2.24-6.9,5.34-9.09,9.3-2.19,3.97-3.28,8.55-3.28,13.76s1.09,9.79,3.28,13.76c2.19,3.97,5.22,7.07,9.09,9.31,3.87,2.24,8.33,3.36,13.39,3.36s9.61-1.12,13.5-3.36c3.89-2.24,6.92-5.34,9.09-9.31,2.16-3.96,3.25-8.55,3.25-13.76s-1.08-9.79-3.25-13.76c-2.17-3.96-5.19-7.07-9.09-9.3ZM1639.02,612.39c-1.19,2.46-2.88,4.37-5.07,5.73-2.19,1.36-4.79,2.04-7.81,2.04s-5.55-.68-7.74-2.04c-2.19-1.36-3.88-3.27-5.07-5.73-1.19-2.46-1.79-5.39-1.79-8.79s.6-6.34,1.79-8.79c1.19-2.46,2.88-4.35,5.07-5.69,2.19-1.34,4.77-2.01,7.74-2.01s5.62.67,7.81,2.01c2.19,1.34,3.88,3.24,5.07,5.69,1.19,2.46,1.79,5.39,1.79,8.79s-.6,6.34-1.79,8.79Z"/>
  <polygon class="cls-1" points="1696.92 611.55 1674.52 578.05 1663.57 578.05 1663.57 629.14 1674.52 629.14 1674.52 595.71 1696.92 629.14 1707.87 629.14 1707.87 578.05 1696.92 578.05 1696.92 611.55"/>
  <path class="cls-1" d="M1750.09,602.32c-2.17-1.19-4.54-2.23-7.12-3.1-1.61-.49-3.08-.97-4.41-1.46-1.34-.49-2.51-1.01-3.5-1.57-1-.56-1.78-1.24-2.34-2.04-.56-.8-.84-1.74-.84-2.81s.28-2.05.84-2.81c.56-.75,1.29-1.31,2.19-1.68.9-.36,1.91-.52,3.03-.47,1.26,0,2.37.27,3.32.8.95.54,1.7,1.24,2.26,2.12.56.88.86,1.85.91,2.92h11.75c-.1-3.11-.92-5.8-2.48-8.06-1.56-2.26-3.67-3.99-6.35-5.18-2.68-1.19-5.76-1.79-9.27-1.79s-6.45.58-9.12,1.75c-2.68,1.17-4.78,2.86-6.31,5.07-1.53,2.22-2.3,4.88-2.3,7.99,0,3.75,1.07,6.73,3.21,8.94,2.14,2.21,5.18,3.98,9.12,5.29,1.75.58,3.41,1.14,4.96,1.68,1.56.54,2.93,1.12,4.12,1.75,1.19.63,2.14,1.41,2.85,2.34.7.93,1.06,2.04,1.06,3.36,0,1.22-.29,2.23-.88,3.03-.58.8-1.38,1.41-2.37,1.82-1,.41-2.15.62-3.47.62-1.56,0-2.92-.3-4.09-.91s-2.09-1.45-2.77-2.52c-.68-1.07-1.05-2.31-1.09-3.72h-11.68c.15,3.55,1.07,6.54,2.77,8.98,1.7,2.43,4.03,4.27,6.97,5.51,2.94,1.24,6.24,1.86,9.89,1.86,3.99,0,7.33-.71,10.03-2.12,2.7-1.41,4.77-3.28,6.2-5.62,1.43-2.34,2.15-4.89,2.15-7.66,0-3.16-.67-5.7-2.01-7.63-1.34-1.92-3.09-3.48-5.25-4.67Z"/>
  <rect class="cls-1" x="1797.62" y="578.05" width="10.95" height="51.09"/>
  <path class="cls-1" d="M1859.44,580.53c-3.89-2.24-8.39-3.36-13.5-3.36s-9.52,1.12-13.39,3.36c-3.87,2.24-6.9,5.34-9.09,9.3-2.19,3.97-3.28,8.55-3.28,13.76s1.09,9.79,3.28,13.76c2.19,3.97,5.22,7.07,9.09,9.31,3.87,2.24,8.33,3.36,13.39,3.36s9.61-1.12,13.5-3.36c3.89-2.24,6.92-5.34,9.09-9.31,2.16-3.96,3.25-8.55,3.25-13.76s-1.08-9.79-3.25-13.76c-2.17-3.96-5.19-7.07-9.09-9.3ZM1858.82,612.39c-1.19,2.46-2.88,4.37-5.07,5.73-2.19,1.36-4.79,2.04-7.81,2.04s-5.55-.68-7.74-2.04c-2.19-1.36-3.88-3.27-5.07-5.73-1.19-2.46-1.79-5.39-1.79-8.79s.6-6.34,1.79-8.79c1.19-2.46,2.88-4.35,5.07-5.69,2.19-1.34,4.77-2.01,7.74-2.01s5.62.67,7.81,2.01c2.19,1.34,3.88,3.24,5.07,5.69,1.19,2.46,1.79,5.39,1.79,8.79s-.6,6.34-1.79,8.79Z"/>
  <path class="cls-1" d="M1912.46,602.32c-2.17-1.19-4.54-2.23-7.12-3.1-1.61-.49-3.08-.97-4.41-1.46-1.34-.49-2.51-1.01-3.5-1.57-1-.56-1.78-1.24-2.34-2.04-.56-.8-.84-1.74-.84-2.81s.28-2.05.84-2.81c.56-.75,1.29-1.31,2.19-1.68.9-.36,1.91-.52,3.03-.47,1.26,0,2.37.27,3.32.8.95.54,1.7,1.24,2.26,2.12.56.88.86,1.85.91,2.92h11.75c-.1-3.11-.92-5.8-2.48-8.06-1.56-2.26-3.67-3.99-6.35-5.18-2.68-1.19-5.76-1.79-9.27-1.79s-6.45.58-9.12,1.75c-2.68,1.17-4.78,2.86-6.31,5.07-1.53,2.22-2.3,4.88-2.3,7.99,0,3.75,1.07,6.73,3.21,8.94,2.14,2.21,5.18,3.98,9.12,5.29,1.75.58,3.41,1.14,4.96,1.68,1.56.54,2.93,1.12,4.12,1.75,1.19.63,2.14,1.41,2.85,2.34.7.93,1.06,2.04,1.06,3.36,0,1.22-.29,2.23-.88,3.03-.58.8-1.38,1.41-2.37,1.82-1,.41-2.15.62-3.47.62-1.56,0-2.92-.3-4.09-.91s-2.09-1.45-2.77-2.52c-.68-1.07-1.05-2.31-1.09-3.72h-11.68c.15,3.55,1.07,6.54,2.77,8.98,1.7,2.43,4.03,4.27,6.97,5.51,2.94,1.24,6.24,1.86,9.89,1.86,3.99,0,7.33-.71,10.03-2.12,2.7-1.41,4.77-3.28,6.2-5.62,1.43-2.34,2.15-4.89,2.15-7.66,0-3.16-.67-5.7-2.01-7.63-1.34-1.92-3.09-3.48-5.25-4.67Z"/>
</svg>