<?xml version="1.0" encoding="UTF-8"?>
<svg id="Calque_1" data-name="Calque 1" xmlns="http://www.w3.org/2000/svg" viewBox="0 0 760.35 1080">
  <defs>
    <style>
      .cls-1 {
        fill: #fff;
      }
    </style>
  </defs>
  <rect x="24.79" y="36.09" width="712" height="1007"/>
  <g>
    <path class="cls-1" d="M360.31,185.75v.19h27.85v-.19h-27.85ZM345.32,185.75h-32.12l.09.19h32.12l-.09-.19ZM249.02,185.75v.19h27.9v-.19h-27.9ZM236.69,185.75h-29.67l.07.19h29.67l-.07-.19ZM116.33,185.75l-.07.19h29.48l.07-.19h-29.48ZM156.08,892.06c-4.38,0-8.45.51-12.17,1.52h24.14c-3.67-1.02-7.69-1.52-11.98-1.52ZM589.86,892.06c-4.78,0-9.35.51-13.65,1.52h27.41c-4.33-1.01-8.93-1.52-13.76-1.52Z"/>
    <g>
      <polygon class="cls-1" points="187.34 130.74 165.59 130.74 176.51 100.43 187.34 130.74"/>
      <path class="cls-1" d="M311.49,96.68c0,4.99-1.39,8.84-4.3,11.89-2.77,2.87-7.68,4.35-14.58,4.35h-15.69v-31.74h15.55c7.17,0,12.36,1.39,14.99,4.03,2.73,2.73,4.03,6.48,4.03,11.48Z"/>
      <path class="cls-1" d="M507.42,120.69c0,8.84-1.58,16.47-4.68,22.63-3.06,5.97-7.13,10.45-12.5,13.6-5.45,3.24-11.71,4.82-19.06,4.82s-13.55-1.58-19.02-4.82c-5.37-3.15-9.49-7.63-12.5-13.6-3.1-6.16-4.67-13.79-4.67-22.63s1.57-16.47,4.67-22.63c3.01-5.97,7.09-10.41,12.45-13.51,5.41-3.15,11.8-4.72,19.06-4.72s13.7,1.57,19.11,4.72c5.37,3.1,9.44,7.55,12.45,13.51,3.1,6.16,4.68,13.74,4.68,22.63Z"/>
      <path class="cls-1" d="M24.04,209.44v.34h712.3v-.34H24.04Z"/>
      <path class="cls-1" d="M665.73,0H95.3C43.13,0,.68,42.45.68,94.62v91.13h-.32v684.47h-.35v115.15c0,52.17,42.45,94.62,94.62,94.62h570.43c52.17,0,94.62-42.45,94.62-94.62v-91.81h.35V209.77h.33v-115.15c0-52.17-42.45-94.62-94.62-94.62ZM548.74,137.08h28.5v6.94c0,3.38.79,6.44,2.31,9.21,1.48,2.73,3.66,4.81,6.57,6.48,2.96,1.66,6.9,2.5,11.67,2.5,4.21,0,7.73-.65,10.5-1.89,2.54-1.2,4.35-2.69,5.6-4.58,1.2-1.85,1.81-3.94,1.81-6.39,0-3.19-.6-5.6-1.76-7.22-1.34-1.94-3.19-3.52-5.6-4.76-3.01-1.58-6.52-3.01-10.46-4.21-4.49-1.35-9.16-2.88-14.02-4.58-10.13-3.47-17.58-7.87-22.76-13.38-5.56-5.92-8.38-13.6-8.38-22.81,0-7.63,1.85-14.43,5.46-20.31,3.61-5.87,8.84-10.5,15.46-13.84,6.48-3.15,14.07-4.76,22.68-4.76s16.11,1.62,22.53,4.91c6.57,3.33,11.85,7.96,15.6,13.83,3.84,5.98,5.78,12.87,5.78,20.5v6.94h-28.55v-6.94c0-2.08-.56-4.12-1.66-6.2-1.06-2.04-2.73-3.71-5.04-5.1-2.27-1.39-5.37-2.08-9.16-2.08-3.29-.09-6.06.41-8.33,1.43-2.13.97-3.66,2.27-4.77,3.93-1.11,1.62-1.62,3.7-1.62,6.34,0,2.31.42,4.07,1.2,5.22.97,1.39,2.45,2.64,4.49,3.7,2.69,1.43,5.92,2.73,9.67,3.99,4.12,1.34,8.7,2.82,13.7,4.49,6.16,2.04,11.71,4.63,16.57,7.59,5.33,3.34,9.58,7.64,12.63,12.78,3.15,5.32,4.72,11.94,4.72,19.71,0,6.8-1.81,13.28-5.37,19.29-3.61,6.02-8.93,10.92-15.78,14.62-2.52,1.36-5.28,2.48-8.26,3.33-.41.12-.83.24-1.25.34-4.7,1.22-9.92,1.84-15.62,1.84s-10.82-.62-15.65-1.84c-.43-.1-.86-.22-1.28-.34-2.97-.83-5.79-1.89-8.44-3.19-7.49-3.7-13.37-8.93-17.49-15.6-4.11-6.62-6.2-14.35-6.2-22.95v-6.94ZM414.87,86.03c5.41-10.18,13.05-18.23,22.72-23.97,9.67-5.69,20.96-8.61,33.59-8.61s24.16,2.92,33.78,8.61c9.72,5.79,17.31,13.84,22.68,23.97,5.32,10.04,7.96,21.7,7.96,34.66s-2.64,24.8-7.96,34.8c-5.37,10.18-13.01,18.24-22.68,23.93-4.76,2.79-9.97,4.91-15.55,6.33-.46.11-.93.23-1.39.34-5.29,1.22-10.91,1.84-16.84,1.84s-11.42-.62-16.67-1.84c-.46-.11-.93-.22-1.39-.34-5.54-1.43-10.72-3.54-15.49-6.33-9.72-5.69-17.35-13.74-22.76-23.88-5.37-10.04-8.1-21.75-8.1-34.84s2.73-24.67,8.1-34.66ZM362.58,61.19c3.1-2.92,7.17-4.44,11.66-4.44s8.38,1.52,11.52,4.39c3.33,3.05,5.09,7.13,5.09,11.85s-1.71,8.79-4.95,11.94c-3.15,3.05-7.17,4.68-11.66,4.68s-8.7-1.66-11.8-4.77c-3.15-3.1-4.76-7.21-4.76-11.84s1.66-8.75,4.91-11.8ZM388.16,105.06v80.88h-27.85v-80.88h27.85ZM249.02,55.45h44.61c10.18,0,18.79,1.81,25.54,5.37,6.99,3.7,12.27,8.8,15.69,15.09,3.33,6.1,4.99,13.05,4.99,20.63s-1.71,14.26-5.09,20.46c-3.47,6.43-8.84,11.57-15.92,15.32-.19.09-.37.18-.51.27l26.98,53.17.09.19h-32.12l-.09-.19-23.6-47.98h-12.68v48.17h-27.9V55.45ZM116.33,185.75l48.01-130.3h24.52l47.83,130.3.07.19h-29.67l-.07-.19-10.66-29.79h-39.84l-10.71,29.79-.07.19h-29.48l.07-.19ZM190.97,986.16c-2.97,4.95-7.36,8.99-12.99,12.04-5.56,3-12.53,4.53-20.68,4.53s-14.89-1.48-20.88-4.42c-6.16-3.05-11-7.35-14.39-12.83-3.39-5.45-5.1-11.81-5.1-18.89v-5.71h23.46v5.71c0,2.78.64,5.3,1.9,7.58,1.22,2.25,3.01,3.97,5.41,5.33,2.44,1.37,5.68,2.06,9.6,2.06,3.46,0,6.35-.53,8.64-1.56,2.1-.99,3.58-2.21,4.61-3.77.99-1.52,1.49-3.23,1.49-5.25,0-2.63-.5-4.61-1.45-5.94-1.1-1.6-2.63-2.9-4.61-3.92-2.48-1.29-5.37-2.48-8.61-3.46-3.69-1.1-7.55-2.36-11.54-3.77-8.34-2.86-14.47-6.48-18.74-11.01-4.57-4.87-6.9-11.2-6.9-18.77,0-6.29,1.52-11.88,4.49-16.72,2.97-4.84,7.27-8.65,12.72-11.39,1.68-.81,3.45-1.51,5.31-2.07.39-.12.78-.24,1.18-.34,3.72-1.01,7.78-1.52,12.17-1.52s8.3.5,11.98,1.52c.39.1.78.22,1.16.34,1.9.58,3.71,1.31,5.41,2.19,5.41,2.74,9.75,6.55,12.84,11.39,3.16,4.91,4.76,10.58,4.76,16.87v5.71h-23.49v-5.71c0-1.71-.46-3.39-1.37-5.1-.87-1.68-2.25-3.05-4.15-4.19-1.87-1.14-4.42-1.72-7.55-1.72-2.74-.07-4.99.34-6.85,1.18-1.75.8-3,1.87-3.92,3.23-.91,1.33-1.33,3.05-1.33,5.22,0,1.91.34,3.36.99,4.3.8,1.14,2.02,2.17,3.69,3.05,2.21,1.18,4.87,2.25,7.96,3.28,3.39,1.1,7.16,2.32,11.27,3.69,5.07,1.68,9.64,3.81,13.64,6.25,4.38,2.75,7.88,6.29,10.39,10.52,2.59,4.38,3.88,9.83,3.88,16.22,0,5.6-1.48,10.93-4.41,15.88ZM281.76,914.57h-28.68v86.52h-22.93v-86.52h-28.64v-20.88h80.24v20.88ZM376.09,960c0,9.48-1.9,17.52-5.6,23.8-3.77,6.4-8.91,11.23-15.31,14.36-6.13,3.05-13.06,4.57-20.6,4.57s-14.32-1.52-20.42-4.57c-6.36-3.13-11.46-7.96-15.23-14.36-3.69-6.28-5.56-14.28-5.56-23.8v-66.31h22.93v66.46c0,5.26.84,9.49,2.44,12.57,1.49,2.86,3.47,4.88,6.06,6.17,2.86,1.41,6.25,2.13,10.06,2.13s7.27-.72,10.01-2.09c2.52-1.3,4.42-3.32,5.87-6.17,1.6-3.09,2.4-7.35,2.4-12.61v-66.46h22.96v66.31ZM478.23,975.69c-4.03,8.19-10.32,14.59-18.7,19.01-8.11,4.22-18.36,6.39-30.5,6.39h-35.19v-107.4h35.19c2.19,0,4.33.07,6.4.22,9.39.64,17.47,2.73,24.14,6.26,8.34,4.46,14.62,10.89,18.66,19.12,3.92,7.96,5.87,17.49,5.87,28.37s-1.94,20.15-5.87,28.03ZM521.95,1001.09h-22.93v-107.4h22.93v107.4ZM636.32,976.03c-4.42,8.38-10.7,15.01-18.66,19.69-7.96,4.64-17.29,7-27.8,7s-19.69-2.36-27.65-7c-7.96-4.68-14.24-11.31-18.74-19.65-4.38-8.27-6.62-17.9-6.62-28.68s2.25-20.3,6.62-28.52c4.45-8.38,10.78-15.01,18.74-19.73,3.89-2.3,8.11-4.05,12.64-5.23.45-.12.9-.23,1.36-.34,4.3-1.01,8.86-1.52,13.65-1.52s9.43.51,13.76,1.52c.45.11.91.22,1.37.34,4.55,1.18,8.78,2.93,12.67,5.23,7.96,4.76,14.24,11.39,18.66,19.73,4.34,8.26,6.55,17.86,6.55,28.52s-2.21,20.41-6.55,28.64ZM736.34,869.89H24.04V209.44h712.3v660.45Z"/>
    </g>
    <g>
      <path class="cls-1" d="M169.21,893.91h-26.48c.39-.12.78-.24,1.18-.34,3.72-1.01,7.78-1.52,12.17-1.52s8.3.5,11.98,1.52c.39.1.78.22,1.16.34Z"/>
      <rect class="cls-1" x="201.52" y="893.69" width="80.24" height=".22"/>
      <rect class="cls-1" x="293.37" y="893.69" width="22.93" height=".22"/>
      <rect class="cls-1" x="353.13" y="893.69" width="22.96" height=".22"/>
      <path class="cls-1" d="M435.43,893.91h-41.59v-.22h35.19c2.19,0,4.33.07,6.4.22Z"/>
      <path class="cls-1" d="M460.75,947.66c0,7.08-1.03,13.18-3.12,18.17-1.87,4.53-4.95,7.92-9.33,10.36-4.68,2.59-11.23,3.88-19.54,3.88h-11.96v-65.35h11.96c8.3,0,14.85,1.33,19.5,3.93,4.42,2.48,7.46,5.9,9.37,10.51,2.09,5.03,3.12,11.27,3.12,18.51Z"/>
      <rect class="cls-1" x="499.03" y="893.69" width="22.93" height=".22"/>
      <path class="cls-1" d="M604.99,893.91h-30.14c.45-.12.9-.23,1.36-.34,4.3-1.01,8.86-1.52,13.65-1.52s9.43.51,13.76,1.52c.45.11.91.22,1.37.34Z"/>
      <path class="cls-1" d="M619.68,947.4c0,7.27-1.3,13.55-3.85,18.62-2.51,4.91-5.87,8.61-10.28,11.2-4.49,2.66-9.64,3.96-15.69,3.96s-11.16-1.3-15.65-3.96c-4.46-2.59-7.81-6.29-10.29-11.2-2.55-5.07-3.84-11.35-3.84-18.62s1.29-13.56,3.84-18.62c2.48-4.91,5.83-8.57,10.25-11.12,4.42-2.58,9.71-3.88,15.69-3.88s11.27,1.3,15.73,3.88c4.38,2.55,7.73,6.21,10.25,11.12,2.55,5.06,3.85,11.31,3.85,18.62Z"/>
      <path class="cls-1" d="M603.62,893.57c-4.33-1.01-8.93-1.52-13.76-1.52s-9.35.51-13.65,1.52c-.46.11-.91.22-1.36.34h30.14c-.45-.12-.91-.23-1.37-.34ZM499.03,893.69v.22h22.93v-.22h-22.93ZM429.03,893.69h-35.19v.22h41.59c-2.07-.15-4.21-.22-6.4-.22ZM353.13,893.69v.22h22.96v-.22h-22.96ZM293.37,893.69v.22h22.93v-.22h-22.93ZM201.52,893.69v.22h80.24v-.22h-80.24ZM168.06,893.57c-3.67-1.02-7.69-1.52-11.98-1.52s-8.45.51-12.17,1.52c-.4.1-.79.22-1.18.34h26.48c-.38-.12-.76-.24-1.16-.34Z"/>
    </g>
    <g>
      <path class="cls-1" d="M484.71,302.41c-98.22-.32-135.16,60.24-149.04,106.33-6.29,20.84-7.85,38.73-8.24,46.68v164.01c0,1.19-.04,2.38-.12,3.55-1.82,27.43-24.65,49.1-52.52,49.1s-52.65-23.57-52.65-52.65v-53.88h-105.29v53.88s0,156.89,158.47,157.42c98.22.32,135.16-60.25,149.04-106.34,6.29-20.85,7.85-38.72,8.24-46.68,0,0,0-7,.12-8.61.81-10.53,6.88-50.1,52.52-50.1,52.65,0,52.65,52.65,52.65,52.65v52.64h105.29v-210.59s0-156.9-158.47-157.43ZM485.24,512.48c-27.88,0-50.7-21.69-52.52-49.1-.08-1.17-.12-2.36-.12-3.55s.04-2.38.12-3.55c1.82-27.43,24.65-49.11,52.52-49.11s52.65,23.57,52.65,52.65-23.57,52.65-52.65,52.65Z"/>
      <path class="cls-1" d="M220.99,462.07c0,29.03-23.54,52.56-52.56,52.56s-52.56-23.53-52.56-52.56,23.53-52.55,52.56-52.55,52.56,23.54,52.56,52.55Z"/>
    </g>
    <g>
      <path class="cls-1" d="M169.21,893.91h-26.48c.39-.12.78-.24,1.18-.34,3.72-1.01,7.78-1.52,12.17-1.52s8.3.5,11.98,1.52c.39.1.78.22,1.16.34Z"/>
      <rect class="cls-1" x="201.52" y="893.69" width="80.24" height=".22"/>
      <g>
        <rect class="cls-1" x="293.37" y="893.69" width="22.93" height=".22"/>
        <rect class="cls-1" x="353.13" y="893.69" width="22.96" height=".22"/>
      </g>
      <path class="cls-1" d="M429.03,893.69h-35.19v.22h41.59c-2.07-.15-4.21-.22-6.4-.22Z"/>
      <rect class="cls-1" x="499.03" y="893.69" width="22.93" height=".22"/>
      <path class="cls-1" d="M603.62,893.57c-4.33-1.01-8.93-1.52-13.76-1.52s-9.35.51-13.65,1.52c-.46.11-.91.22-1.36.34h30.14c-.45-.12-.91-.23-1.37-.34Z"/>
    </g>
  </g>
</svg>