<?xml version="1.0" encoding="UTF-8"?>
<svg id="Calque_1" data-name="Calque 1" xmlns="http://www.w3.org/2000/svg" viewBox="0 0 1080 1080">
  <defs>
    <style>
      .cls-1 {
        fill: #fdf5ee;
      }
    </style>
  </defs>
  <path class="cls-1" d="M585.59,672.81c6.45-21.41,8.06-39.77,8.46-47.94,0,0,0-7.19.13-8.84.83-10.82,7.07-51.46,53.95-51.46,54.08,0,54.08,54.08,54.08,54.08v54.07h108.16v-216.3s0-161.15-162.77-161.69c-100.89-.34-138.82,61.87-153.09,109.21-6.45,21.41-8.06,39.78-8.46,47.95v168.46c0,1.22-.04,2.44-.13,3.64-1.87,28.17-25.31,50.44-53.95,50.44s-54.08-24.21-54.08-54.08v-55.34h-108.15v55.34s0,161.15,162.77,161.69c100.89.34,138.82-61.88,153.09-109.22ZM594.18,452.77c1.87-28.17,25.31-50.44,53.95-50.44s54.08,24.21,54.08,54.08-24.21,54.08-54.08,54.08-52.08-22.27-53.95-50.44c-.09-1.2-.13-2.42-.13-3.64s.04-2.44.13-3.64Z"/>
  <circle class="cls-1" cx="322.72" cy="458.71" r="53.98" transform="translate(-229.84 362.55) rotate(-45)"/>
  <path class="cls-1" d="M180.68,415.96l-18.09-16.22,14.25-33.82,24.24,1.63,10.68-25.34-115.31-5.72-10.95,25.98,84.62,78.55,10.57-25.06ZM120.65,362.15l34.23,2.3-8.68,20.6-25.55-22.9Z"/>
  <path class="cls-1" d="M231.65,318.36l-31.96-24.69,6.29-8.14,43.33,9.97,17.93-23.21-47.95-9.83c.22-.86.4-1.72.54-2.56,1.1-6.57.45-12.64-1.93-18.02-2.36-5.34-5.92-9.86-10.55-13.44-4.96-3.83-10.43-6.21-16.26-7.07-5.87-.86-11.92.11-17.99,2.91-6.02,2.78-11.78,7.69-17.13,14.6l-26.01,33.65,85.84,66.33,15.84-20.5ZM163.34,265.58l9.34-12.08c3.13-4.04,6.35-6.31,9.6-6.72,3.29-.42,6.45.59,9.68,3.08,3.31,2.56,5.14,5.41,5.6,8.74.45,3.27-.91,6.97-4.03,11.01l-9.34,12.08-20.84-16.1Z"/>
  <polygon class="cls-1" points="295.26 249.42 246.7 197.36 227.51 214.76 276.07 266.83 295.26 249.42"/>
  <path class="cls-1" d="M273.77,192.93c5.54,9.44,12.52,16.71,20.75,21.59,8.15,4.84,17.01,7.29,26.35,7.29.11,0,.22,0,.33,0,9.45-.06,18.91-2.82,28.1-8.22h0c9.28-5.45,16.37-12.39,21.08-20.63,4.71-8.26,6.95-17.3,6.65-26.86-.29-9.53-3.25-19.16-8.79-28.6-5.54-9.44-12.49-16.71-20.67-21.62-8.2-4.92-17.19-7.36-26.7-7.29-9.5.09-19.01,2.89-28.29,8.33-9.19,5.39-16.22,12.3-20.88,20.53-4.66,8.23-6.9,17.26-6.65,26.85.25,9.56,3.19,19.2,8.73,28.64ZM293.63,148.4c2.33-4.35,6.03-8.04,11-10.95,4.91-2.88,9.83-4.34,14.63-4.34.14,0,.28,0,.42,0,4.92.09,9.64,1.61,14.01,4.53,4.44,2.96,8.41,7.4,11.81,13.19,3.4,5.79,5.33,11.42,5.76,16.74.41,5.25-.54,10.14-2.85,14.52-2.3,4.39-6.03,8.12-11.08,11.08-4.96,2.91-10,4.32-14.95,4.2-4.95-.13-9.68-1.68-14.07-4.6-4.43-2.96-8.41-7.39-11.81-13.19-3.4-5.79-5.34-11.43-5.76-16.74-.41-5.24.55-10.1,2.88-14.45Z"/>
  <path class="cls-1" d="M395.4,124.82c5.64,3.38,12.95,5.36,21.72,5.88,3.73.22,7.34.45,10.74.69,3.28.23,6.26.65,8.86,1.24,2.45.56,4.55,1.51,6.24,2.81,1.61,1.24,2.69,2.94,3.29,5.2.56,2.08.54,3.86-.07,5.44-.62,1.63-1.67,2.98-3.19,4.15-1.57,1.21-3.58,2.15-5.96,2.79-2.82.76-5.44.87-7.8.35-2.34-.52-4.38-1.57-6.07-3.12-1.69-1.55-2.93-3.58-3.68-6.05l-.48-1.57-26.49,7.11.53,1.69c2.27,7.26,5.91,13.03,10.82,17.15,4.91,4.12,10.84,6.68,17.64,7.61,2.11.29,4.27.44,6.46.44,4.78,0,9.75-.69,14.85-2.05h0c8.15-2.19,14.72-5.54,19.52-9.95,4.82-4.43,8.12-9.56,9.8-15.24,1.69-5.69,1.76-11.51.2-17.3-1.77-6.59-4.66-11.62-8.6-14.94-3.87-3.26-8.45-5.55-13.62-6.83-5.02-1.23-10.43-2.04-16.14-2.42-3.38-.11-6.57-.29-9.46-.54-2.81-.24-5.34-.65-7.53-1.2-2.02-.51-3.72-1.34-5.05-2.47-1.28-1.08-2.14-2.48-2.62-4.28-.5-1.88-.47-3.5.11-4.97.6-1.52,1.55-2.75,2.9-3.77,1.39-1.05,3.11-1.81,5.11-2.26l.07-.02c2.22-.59,4.29-.65,6.16-.17,1.92.49,3.52,1.35,4.9,2.61,1.37,1.25,2.32,2.75,2.9,4.58l.49,1.54,26.6-7.14-.51-1.67c-1.94-6.42-5.22-11.64-9.75-15.5-4.52-3.85-9.97-6.3-16.21-7.29-6.16-.97-12.92-.49-20.07,1.43-6.96,1.87-12.95,4.78-17.81,8.66-4.92,3.93-8.41,8.7-10.38,14.2-1.97,5.52-2.09,11.62-.35,18.11,2.11,7.85,6.12,13.59,11.91,17.06Z"/>
  <path class="cls-1" d="M542.56,157.57c6.07,2.99,13.04,4.74,20.73,5.2,1.32.08,2.61.12,3.87.12,6.8,0,12.77-1.14,17.79-3.39,5.97-2.68,10.72-6.5,14.12-11.36,3.4-4.86,5.3-10.36,5.66-16.34.4-6.81-.75-12.5-3.44-16.89-2.64-4.31-6.26-7.94-10.76-10.78-4.37-2.75-9.25-5.23-14.55-7.39-3.19-1.18-6.15-2.35-8.8-3.5-2.59-1.12-4.86-2.3-6.76-3.52-1.75-1.12-3.1-2.45-4.02-3.94-.87-1.43-1.25-3.02-1.13-4.89.12-1.94.66-3.47,1.67-4.68,1.05-1.25,2.34-2.12,3.94-2.66,1.65-.56,3.52-.73,5.56-.52h.07c2.29.14,4.28.74,5.9,1.79,1.66,1.07,2.92,2.39,3.83,4.02.89,1.59,1.33,3.36,1.3,5.26l-.02,1.62,27.49,1.63.05-1.75c.19-6.71-1.28-12.69-4.36-17.79-3.07-5.08-7.47-9.13-13.08-12.04-5.54-2.87-12.1-4.55-19.5-4.99-7.2-.43-13.8.44-19.63,2.59-5.91,2.17-10.73,5.6-14.33,10.19-3.62,4.62-5.65,10.36-6.05,17.08-.48,8.11,1.51,14.83,5.91,19.95,4.28,4.99,10.59,9.18,18.75,12.44,3.42,1.37,6.78,2.73,9.97,4.05,3.04,1.25,5.73,2.59,8.02,3.98,2.15,1.31,3.84,2.87,5.04,4.64,1.13,1.69,1.62,3.64,1.48,5.98-.13,2.15-.71,3.83-1.78,5.14-1.11,1.35-2.53,2.31-4.34,2.93-1.88.65-4.08.91-6.54.76-2.91-.17-5.44-.89-7.51-2.13-2.06-1.23-3.66-2.87-4.78-4.88-1.11-2-1.65-4.32-1.58-6.91l.04-1.64-27.38-1.62-.03,1.77c-.14,7.61,1.49,14.23,4.85,19.69,3.35,5.45,8.18,9.76,14.34,12.8Z"/>
  <polygon class="cls-1" points="635.52 172.28 660.35 179.7 685.22 96.41 714.42 105.13 720.59 84.47 637.36 59.62 631.19 80.27 660.39 88.99 635.52 172.28"/>
  <path class="cls-1" d="M709.48,178.4c-.02,7.64,2.04,14.69,6.13,20.97,4.04,6.21,9.63,11.48,16.61,15.65,6.97,4.17,14.29,6.63,21.76,7.32,1.22.11,2.44.17,3.65.17,6.25,0,12.31-1.48,18.08-4.42,6.89-3.51,12.96-9.59,18.03-18.08l33.79-56.46-22.23-13.31-33.87,56.59c-2.27,3.79-4.86,6.66-7.7,8.52-2.79,1.83-5.67,2.65-8.8,2.52-3.17-.14-6.56-1.28-10.07-3.38-3.35-2-5.86-4.4-7.48-7.13-1.6-2.7-2.24-5.62-1.94-8.95.3-3.38,1.6-7.02,3.87-10.82l33.87-56.59-22.23-13.31-33.79,56.46c-5.07,8.47-7.65,16.63-7.67,24.24Z"/>
  <path class="cls-1" d="M808.2,272.17c8.68,9.06,17.6,15.06,26.52,17.84,4.53,1.41,9.05,2.11,13.52,2.11s8.75-.68,13.03-2.04c8.55-2.72,16.81-7.86,24.55-15.27,7.81-7.48,13.34-15.54,16.43-23.97,3.12-8.52,3.44-17.45.97-26.54-2.46-9.03-8.03-18.13-16.56-27.04l-27.34-28.55-78.35,75.03,27.23,28.44ZM815.32,246.71l45.59-43.65,8.38,8.75c5.44,5.68,8.84,11.06,10.1,15.99,1.25,4.89.85,9.46-1.23,13.97-2.13,4.62-5.68,9.33-10.57,14.01-4.81,4.61-9.64,7.92-14.34,9.85-4.54,1.86-9.25,2.07-14.01.63-4.86-1.47-10.09-5.1-15.53-10.79l-8.38-8.75Z"/>
  <rect class="cls-1" x="849.09" y="291.61" width="108.48" height="25.91" transform="translate(-21.06 537.53) rotate(-32.78)"/>
  <path class="cls-1" d="M979.11,340.04c-7.35-5.96-15.89-9.66-25.38-10.99-9.47-1.33-19.46-.02-29.69,3.88-10.23,3.91-18.54,9.59-24.72,16.9-6.19,7.32-10.09,15.77-11.59,25.12-1.5,9.33-.33,19.11,3.47,29.07,3.84,10.05,9.52,18.19,16.88,24.19,7.37,6.01,15.91,9.71,25.4,11,2.32.31,4.68.47,7.06.47,7.31,0,14.88-1.48,22.59-4.43,10.22-3.91,18.55-9.57,24.74-16.82,6.21-7.28,10.11-15.73,11.59-25.13,1.48-9.38.29-19.23-3.55-29.28-3.8-9.96-9.46-18.03-16.8-23.98ZM975.47,388.09c-.9,4.84-3.18,9.24-6.78,13.08-3.65,3.89-8.68,7.07-14.96,9.47-6.27,2.4-12.15,3.38-17.46,2.92-5.25-.46-9.91-2.21-13.86-5.2-3.95-3-7.01-7.29-9.1-12.76h0c-2.05-5.38-2.62-10.57-1.67-15.44.94-4.86,3.25-9.28,6.86-13.12,3.65-3.89,8.68-7.07,14.96-9.47,5.27-2.01,10.25-3.03,14.86-3.03.88,0,1.75.04,2.6.11,5.24.46,9.87,2.21,13.77,5.22,3.91,3.02,6.93,7.28,8.99,12.66,2.09,5.47,2.69,10.71,1.79,15.56Z"/>
  <path class="cls-1" d="M109.81,497.58c-1.91-1.23-4.08-1.89-6.5-2-2.35-.1-4.53.37-6.54,1.43-2.01,1.05-3.63,2.54-4.85,4.45-1.23,1.91-1.89,4-1.99,6.29-.11,2.42.37,4.64,1.42,6.65,1.05,2.01,2.54,3.63,4.45,4.85,1.91,1.22,4.04,1.89,6.39,1.99,2.42.11,4.64-.37,6.65-1.42,2.01-1.06,3.63-2.54,4.85-4.45,1.23-1.91,1.89-4.08,2-6.5.1-2.28-.38-4.43-1.43-6.44-1.06-2.01-2.54-3.63-4.45-4.85Z"/>
  <path class="cls-1" d="M105.88,623.63c-2.33-.24-4.21-1.14-5.64-2.72-1.43-1.57-2.34-3.78-2.72-6.62-.37-2.71-.06-5.09.93-7.15.98-2.06,2.55-3.74,4.69-5.04,2.14-1.3,4.77-2.16,7.88-2.58,3.2-.43,6.01-.31,8.42.37,2.41.68,4.38,1.89,5.9,3.61,1.52,1.72,2.46,3.94,2.83,6.64.38,2.84.03,5.22-1.07,7.14-1.1,1.92-2.8,3.31-5.12,4.17l1.51,11.16c5.2-1.62,9.01-4.5,11.43-8.64,2.42-4.14,3.24-9.14,2.44-15-.65-4.78-2.25-8.76-4.82-11.95-2.57-3.19-5.81-5.46-9.74-6.81-3.93-1.35-8.32-1.7-13.19-1.04-4.78.65-8.88,2.14-12.31,4.49-3.43,2.35-5.93,5.39-7.51,9.15-1.58,3.75-2.05,8.01-1.4,12.79.79,5.86,2.88,10.47,6.25,13.83,3.37,3.35,7.62,5.14,12.75,5.37l-1.51-11.16Z"/>
  <path class="cls-1" d="M130.54,690.56c4.7-1.29,8.56-3.4,11.6-6.33,3.04-2.93,5.09-6.43,6.14-10.5,1.05-4.06.95-8.4-.31-13.01-1.25-4.56-3.37-8.31-6.34-11.25-2.98-2.93-6.52-4.9-10.64-5.89-4.12-.99-8.53-.85-13.22.44-4.7,1.29-8.56,3.41-11.6,6.37-3.03,2.96-5.08,6.46-6.14,10.5-1.06,4.04-.97,8.35.29,12.91,1.26,4.61,3.39,8.39,6.37,11.35,2.98,2.96,6.53,4.92,10.64,5.89,4.11.97,8.52.81,13.21-.48ZM109.21,671.35c-.73-2.68-.76-5.17-.07-7.48.69-2.31,1.99-4.31,3.91-5.99,1.92-1.68,4.42-2.95,7.49-3.79,3.07-.84,5.86-1.03,8.37-.56,2.51.47,4.64,1.52,6.39,3.17,1.75,1.64,2.99,3.8,3.73,6.48.75,2.72.79,5.23.12,7.54-.67,2.31-1.96,4.3-3.88,5.98-1.92,1.68-4.42,2.95-7.49,3.79-3.07.84-5.86,1.03-8.37.56-2.51-.47-4.65-1.52-6.42-3.16-1.77-1.64-3.03-3.82-3.78-6.54Z"/>
  <polygon class="cls-1" points="168.85 721.2 140 733.42 160.68 701.9 156.68 692.47 112.69 711.11 116.68 720.54 145.47 708.34 124.85 739.83 128.85 749.26 172.84 730.63 168.85 721.2"/>
  <path class="cls-1" d="M165.73,783.92c-2.24.68-4.32.56-6.25-.34-1.92-.91-3.61-2.59-5.06-5.07-1.38-2.36-2.01-4.68-1.89-6.96.12-2.28.91-4.43,2.39-6.46,1.48-2.02,3.57-3.83,6.29-5.41,2.79-1.63,5.43-2.59,7.92-2.89,2.49-.29,4.77.06,6.83,1.07,2.06,1.01,3.79,2.69,5.16,5.05,1.45,2.48,2.03,4.81,1.76,7-.28,2.19-1.32,4.13-3.12,5.82l5.68,9.72c4.18-3.49,6.59-7.62,7.24-12.37.65-4.75-.52-9.68-3.5-14.79-2.43-4.17-5.45-7.23-9.04-9.18-3.6-1.96-7.46-2.81-11.61-2.55-4.14.26-8.34,1.63-12.58,4.11-4.17,2.43-7.38,5.39-9.64,8.87-2.26,3.48-3.4,7.26-3.42,11.33-.02,4.07,1.19,8.19,3.62,12.35,2.98,5.11,6.68,8.56,11.08,10.37,4.4,1.8,9.01,1.82,13.83.06l-5.68-9.72Z"/>
  <polygon class="cls-1" points="188.79 809.16 200.63 824.94 206.96 820.19 195.12 804.41 204.13 797.65 217.2 815.07 223.81 810.11 204.6 784.51 166.38 813.18 185.59 838.79 192.19 833.83 179.13 816.41 188.79 809.16"/>
  <path class="cls-1" d="M247.61,847.31c.79-2.47.79-5.09,0-7.87-.78-2.78-2.49-5.59-5.12-8.43l-12.67-13.66-35.03,32.49,6.96,7.51,13.01-12.07,5.71,6.16c2.72,2.93,5.48,4.87,8.26,5.79,2.78.93,5.42,1.06,7.91.39,2.49-.66,4.68-1.88,6.59-3.64,2.13-1.98,3.6-4.2,4.38-6.67ZM236.13,846.32c-1.5,1.39-3.11,2.07-4.81,2.04-1.71-.03-3.47-1.03-5.3-3l-5.25-5.66,9.91-9.19,5.25,5.66c1.83,1.97,2.71,3.79,2.64,5.46-.06,1.67-.88,3.23-2.45,4.69Z"/>
  <polygon class="cls-1" points="281.18 878.48 286.61 872.26 258.01 847.31 252.58 853.53 263.02 862.64 237.04 892.42 244.75 899.15 270.73 869.37 281.18 878.48"/>
  <rect class="cls-1" x="258.96" y="893.82" width="47.78" height="10.24" transform="translate(-607.28 589.49) rotate(-53.36)"/>
  <path class="cls-1" d="M338.35,909.62c-2.03-3.68-5.08-6.76-9.16-9.24-4.05-2.46-8.16-3.73-12.34-3.82-4.18-.09-8.11.92-11.78,3.03-3.68,2.11-6.78,5.24-9.3,9.4s-3.88,8.36-4.05,12.59c-.17,4.23.74,8.18,2.75,11.85,2.01,3.67,5.03,6.73,9.08,9.18,4.08,2.48,8.22,3.77,12.42,3.87,4.2.1,8.12-.91,11.78-3.03,3.65-2.12,6.75-5.26,9.27-9.42,2.53-4.16,3.89-8.35,4.08-12.57.19-4.22-.72-8.17-2.75-11.85ZM330.93,920.73c-.24,2.54-1.19,5.18-2.84,7.9-1.65,2.72-3.55,4.78-5.7,6.16-2.15,1.39-4.42,2.09-6.84,2.12-2.41.03-4.82-.69-7.23-2.16-2.37-1.44-4.1-3.24-5.19-5.39-1.09-2.15-1.51-4.5-1.27-7.04.24-2.54,1.19-5.18,2.84-7.9,1.65-2.72,3.55-4.78,5.7-6.16,2.14-1.38,4.42-2.08,6.82-2.09,2.4,0,4.79.71,7.16,2.15,2.41,1.46,4.17,3.26,5.27,5.4,1.1,2.13,1.53,4.47,1.29,7.01Z"/>
  <polygon class="cls-1" points="373.28 958.71 366.68 921.6 357.31 917.48 338.1 961.23 347.48 965.35 360.04 936.72 366.66 973.77 376.04 977.89 395.24 934.14 385.87 930.02 373.28 958.71"/>
  <path class="cls-1" d="M457.77,954.87c-3.1-2.75-7.34-4.74-12.7-5.97l-16.76-3.86-10.73,46.56,16.7,3.85c5.45,1.26,10.17,1.32,14.14.18,3.97-1.14,7.22-3.25,9.73-6.34,2.51-3.09,4.3-6.96,5.37-11.62,1.08-4.7,1.17-8.99.27-12.86-.91-3.87-2.91-7.18-6.01-9.93ZM453.34,975.32c-.7,3.06-1.74,5.59-3.11,7.58-1.37,2-3.23,3.34-5.59,4.04-2.36.7-5.35.62-8.99-.21l-6.12-1.41,6.79-29.47,6.12,1.41c3.64.84,6.36,2.08,8.17,3.74,1.81,1.66,2.9,3.68,3.26,6.07.36,2.39.18,5.14-.53,8.25Z"/>
  <polygon class="cls-1" points="479.15 950.57 489 951.93 493.03 931.32 480.76 929.62 479.15 950.57"/>
  <path class="cls-1" d="M514.41,959.2l-19.62,46.91,10.7.5,4.08-10.26,17.76.83,3.11,10.6,10.84.51-15.15-48.54-11.73-.55ZM512.67,988.57l6.99-17.58,5.32,18.15-12.31-.58Z"/>
  <path class="cls-1" d="M585.08,965.17c-1.42-2.16-3.46-3.81-6.11-4.96-2.65-1.14-5.91-1.59-9.77-1.33l-18.59,1.25,3.19,47.67,10.22-.68-1.19-17.71,8.38-.56c3.99-.27,7.23-1.19,9.7-2.77,2.47-1.58,4.23-3.54,5.28-5.9,1.05-2.35,1.49-4.82,1.32-7.41-.19-2.91-1-5.44-2.42-7.6ZM575.64,978.49c-1.1,1.31-2.99,2.05-5.67,2.23l-7.7.52-.9-13.49,7.7-.52c2.68-.18,4.65.28,5.91,1.38,1.26,1.1,1.96,2.72,2.1,4.85.14,2.04-.34,3.72-1.44,5.02Z"/>
  <path class="cls-1" d="M629.13,957.96c-1.65-2-3.85-3.42-6.61-4.28-2.76-.85-6.05-.94-9.86-.27l-18.35,3.23,8.29,47.06,10.08-1.78-3.08-17.48,8.27-1.46c3.94-.69,7.06-1.96,9.35-3.8,2.29-1.83,3.83-3.98,4.62-6.43.79-2.45.96-4.95.51-7.51-.51-2.87-1.58-5.3-3.23-7.3ZM621.18,972.22c-.95,1.42-2.75,2.36-5.39,2.82l-7.6,1.34-2.35-13.31,7.6-1.34c2.64-.47,4.65-.22,6.02.74,1.37.96,2.24,2.49,2.61,4.6.35,2.02.06,3.73-.9,5.15Z"/>
  <polygon class="cls-1" points="658.17 983.93 647.23 945.6 637.38 948.41 650.5 994.35 680.17 985.89 677.99 978.27 658.17 983.93"/>
  <rect class="cls-1" x="683.7" y="933.41" width="10.24" height="47.78" transform="translate(-288.83 297.68) rotate(-20.26)"/>
  <path class="cls-1" d="M738.23,945.11c.48,2.29.19,4.36-.87,6.2-1.06,1.84-2.89,3.38-5.48,4.61-2.47,1.17-4.83,1.61-7.09,1.3-2.26-.31-4.34-1.29-6.23-2.93-1.89-1.64-3.51-3.89-4.86-6.72-1.39-2.92-2.12-5.63-2.21-8.13-.08-2.5.47-4.74,1.64-6.72,1.18-1.97,3-3.54,5.47-4.72,2.59-1.23,4.96-1.62,7.12-1.16,2.16.46,4,1.66,5.53,3.6l10.17-4.84c-3.13-4.46-7.03-7.21-11.71-8.26-4.68-1.05-9.69-.3-15.03,2.24-4.36,2.07-7.66,4.82-9.92,8.23-2.26,3.42-3.43,7.2-3.52,11.35-.09,4.15.92,8.44,3.03,12.88,2.07,4.36,4.75,7.81,8.03,10.36,3.28,2.55,6.94,4,11,4.37,4.05.37,8.26-.49,12.61-2.56,5.34-2.54,9.1-5.93,11.27-10.16,2.17-4.23,2.58-8.82,1.23-13.78l-10.17,4.84Z"/>
  <path class="cls-1" d="M753.93,899.07l11.12,49.62,9.02-5.78-2.6-10.73,14.97-9.59,8.66,6.85,9.14-5.85-40.43-30.84-9.89,6.33ZM779.87,917.39l-10.38,6.65-4.46-18.38,14.84,11.73Z"/>
  <polygon class="cls-1" points="812.85 866.24 807.71 859.77 778.01 883.41 783.15 889.87 794 881.24 818.61 912.16 826.62 905.79 802.01 874.86 812.85 866.24"/>
  <rect class="cls-1" x="828.15" y="844.4" width="10.24" height="47.78" transform="translate(-368.29 800.97) rotate(-42.97)"/>
  <path class="cls-1" d="M877.57,821.37c-3.64-3.24-7.51-5.33-11.63-6.29-4.12-.95-8.17-.77-12.15.56-3.98,1.33-7.56,3.77-10.74,7.34-3.15,3.53-5.14,7.35-5.98,11.44-.84,4.09-.56,8.14.85,12.13,1.41,4,3.93,7.61,7.57,10.85,3.64,3.24,7.52,5.33,11.65,6.26,4.13.94,8.18.75,12.15-.56,3.97-1.31,7.53-3.73,10.67-7.27,3.18-3.57,5.2-7.41,6.05-11.52.86-4.11.58-8.15-.85-12.13-1.42-3.98-3.95-7.59-7.59-10.83ZM876.5,842.99c-.41,2.38-1.55,4.62-3.43,6.73-1.85,2.07-3.93,3.45-6.24,4.13-2.31.68-4.7.67-7.16-.02-2.46-.7-4.88-2.1-7.25-4.22-2.38-2.12-4.06-4.36-5.03-6.72-.97-2.36-1.25-4.72-.82-7.08.43-2.36,1.56-4.58,3.41-6.65,1.88-2.11,3.96-3.51,6.26-4.21,2.3-.7,4.67-.7,7.13,0,2.46.7,4.88,2.1,7.25,4.22,2.38,2.12,4.06,4.36,5.03,6.72.97,2.36,1.26,4.73.85,7.11Z"/>
  <polygon class="cls-1" points="882.49 772.59 908.41 790.19 870.72 789.92 864.97 798.39 904.5 825.23 910.25 816.76 884.39 799.2 922.02 799.42 927.78 790.95 888.25 764.12 882.49 772.59"/>
  <path class="cls-1" d="M939.34,740.8c-2.62-1.37-5.02-1.91-7.19-1.63-2.17.28-4.22,1.06-6.15,2.34-1.92,1.28-3.81,2.8-5.65,4.56-1.1,1.12-2.14,2.13-3.12,3.03-.98.9-1.92,1.64-2.82,2.23-.89.59-1.8.94-2.7,1.05-.91.12-1.81-.05-2.69-.52-.93-.48-1.58-1.12-1.97-1.91-.38-.79-.53-1.64-.45-2.54.09-.9.39-1.81.92-2.72.55-1.05,1.25-1.85,2.1-2.41.85-.56,1.76-.88,2.73-.96.97-.08,1.91.08,2.82.51l5.08-9.75c-2.62-1.26-5.21-1.74-7.76-1.43-2.55.31-4.9,1.32-7.04,3.03-2.14,1.7-3.97,4.01-5.49,6.92-1.47,2.83-2.3,5.6-2.49,8.32-.19,2.72.31,5.2,1.48,7.43,1.17,2.23,3.05,4.01,5.63,5.36,3.11,1.62,6.04,2.02,8.8,1.2,2.76-.82,5.54-2.58,8.33-5.28,1.24-1.2,2.42-2.33,3.54-3.39,1.12-1.06,2.2-1.95,3.24-2.66,1.04-.72,2.1-1.17,3.17-1.35,1.07-.18,2.15,0,3.24.57,1.01.53,1.72,1.2,2.13,2.04.41.83.58,1.75.49,2.76-.09,1.01-.42,2.05-.98,3.14-.67,1.29-1.51,2.29-2.52,3-1.01.71-2.1,1.11-3.29,1.21-1.18.1-2.37-.13-3.56-.7l-5.05,9.69c3.01,1.41,5.89,1.94,8.64,1.58,2.75-.36,5.28-1.49,7.58-3.4,2.3-1.91,4.24-4.37,5.82-7.4,1.72-3.31,2.58-6.39,2.58-9.24,0-2.85-.66-5.37-1.98-7.57-1.32-2.2-3.13-3.9-5.43-5.1Z"/>
  <rect class="cls-1" x="940.72" y="673.13" width="10.24" height="47.78" transform="translate(-27.22 1355.5) rotate(-70.47)"/>
  <path class="cls-1" d="M975.15,640.97c-3.1-2.87-7.02-4.89-11.74-6.08-4.72-1.19-9.13-1.25-13.22-.19-4.09,1.06-7.59,3.1-10.51,6.12-2.92,3.02-4.96,6.85-6.12,11.48-1.15,4.59-1.15,8.89,0,12.91,1.15,4.02,3.27,7.47,6.37,10.36,3.1,2.89,7.01,4.93,11.73,6.11,4.72,1.19,9.13,1.24,13.23.16,4.1-1.08,7.6-3.12,10.51-6.12,2.91-3,4.94-6.79,6.1-11.38,1.16-4.63,1.17-8.97.03-13.01-1.14-4.04-3.27-7.49-6.37-10.36ZM972.56,662.1c-.68,2.69-1.88,4.88-3.62,6.55-1.73,1.68-3.85,2.77-6.35,3.3-2.5.52-5.3.39-8.39-.38-3.09-.78-5.61-1.98-7.57-3.63-1.96-1.64-3.29-3.61-4.01-5.9-.71-2.29-.73-4.78-.06-7.48.69-2.74,1.89-4.94,3.6-6.63,1.71-1.68,3.82-2.78,6.32-3.3,2.5-.52,5.3-.39,8.38.38,3.09.78,5.61,1.99,7.57,3.63,1.96,1.64,3.31,3.61,4.04,5.91.74,2.3.76,4.81.07,7.55Z"/>
  <path class="cls-1" d="M986.42,593.68c-2-1.6-4.29-2.57-6.86-2.89-2.93-.37-5.37-.04-7.31.98-1.94,1.02-3.59,2.46-4.95,4.33-1.36,1.87-2.59,3.95-3.71,6.24-.64,1.43-1.26,2.74-1.87,3.93-.61,1.19-1.23,2.21-1.86,3.07-.63.86-1.36,1.5-2.17,1.93-.81.43-1.71.58-2.71.45-1.04-.13-1.88-.5-2.51-1.11-.63-.61-1.07-1.35-1.3-2.23-.23-.88-.26-1.83-.09-2.87.15-1.17.52-2.17,1.13-2.99.61-.82,1.35-1.44,2.23-1.85.88-.42,1.82-.59,2.81-.51l1.37-10.9c-2.9-.27-5.49.18-7.77,1.37-2.28,1.18-4.13,2.95-5.55,5.29-1.42,2.35-2.33,5.14-2.74,8.39-.4,3.16-.21,6.05.57,8.67.77,2.62,2.1,4.77,3.97,6.45,1.88,1.68,4.26,2.7,7.15,3.06,3.48.44,6.37-.21,8.67-1.94,2.3-1.73,4.29-4.35,5.97-7.85.75-1.56,1.46-3.03,2.13-4.41.68-1.38,1.38-2.59,2.1-3.62.73-1.03,1.56-1.82,2.5-2.37.94-.55,2.02-.74,3.24-.59,1.13.14,2.03.53,2.71,1.16.68.63,1.15,1.44,1.42,2.41.27.97.33,2.07.17,3.29-.18,1.45-.62,2.67-1.32,3.69-.7,1.01-1.59,1.77-2.66,2.28-1.07.51-2.27.7-3.58.58l-1.36,10.84c3.31.28,6.2-.23,8.65-1.53,2.46-1.3,4.43-3.24,5.92-5.83,1.49-2.59,2.45-5.57,2.88-8.96.46-3.7.2-6.89-.8-9.56-1-2.67-2.49-4.81-4.49-6.41Z"/>
  <path class="cls-1" d="M970.46,521.46c2.01,1.06,4.22,1.54,6.65,1.45,2.35-.09,4.49-.75,6.4-1.97,1.92-1.22,3.4-2.83,4.47-4.84,1.06-2.01,1.55-4.15,1.45-6.43-.1-2.42-.76-4.59-1.97-6.51-1.22-1.91-2.83-3.4-4.84-4.46-2.01-1.06-4.19-1.55-6.54-1.45-2.42.1-4.59.76-6.51,1.98-1.91,1.22-3.4,2.83-4.46,4.84-1.06,2.01-1.54,4.22-1.45,6.65.09,2.28.75,4.38,1.97,6.29,1.22,1.92,2.83,3.4,4.84,4.46Z"/>
  <path class="cls-1" d="M1037.56,329.8c-27.2-64.3-66.13-122.05-115.72-171.64-49.59-49.59-107.34-88.52-171.64-115.72C683.61,14.28,612.89,0,540,0s-143.61,14.28-210.2,42.44c-64.3,27.2-122.05,66.13-171.64,115.72-49.59,49.59-88.52,107.34-115.72,171.64C14.28,396.39,0,467.11,0,540s14.28,143.61,42.44,210.2c27.2,64.3,66.13,122.05,115.72,171.64,49.59,49.59,107.34,88.52,171.64,115.72,66.58,28.16,137.3,42.44,210.2,42.44s143.61-14.28,210.2-42.44c64.3-27.2,122.05-66.13,171.64-115.72,49.59-49.59,88.52-107.34,115.72-171.64,28.16-66.58,42.44-137.3,42.44-210.2s-14.28-143.61-42.44-210.2ZM1015.7,740.95c-26,61.48-63.23,116.69-110.65,164.11-47.42,47.42-102.63,84.64-164.11,110.65-63.64,26.92-131.25,40.57-200.95,40.57s-137.31-13.65-200.95-40.57c-61.48-26-116.69-63.23-164.11-110.65s-84.64-102.63-110.65-164.11c-26.92-63.64-40.57-131.25-40.57-200.95s13.65-137.31,40.57-200.95c26-61.48,63.23-116.69,110.65-164.11s102.63-84.64,164.11-110.65c63.64-26.92,131.25-40.57,200.95-40.57s137.31,13.65,200.95,40.57c61.48,26,116.69,63.23,164.11,110.65,47.42,47.42,84.64,102.63,110.65,164.11,26.92,63.64,40.57,131.25,40.57,200.95s-13.65,137.31-40.57,200.95Z"/>
  <path class="cls-1" d="M679.67,870.63c42.73-18.07,81.1-43.95,114.06-76.9,32.95-32.95,58.82-71.33,76.9-114.06,18.71-44.24,28.2-91.23,28.2-139.67s-9.49-95.43-28.2-139.67c-18.07-42.73-43.95-81.1-76.9-114.06-32.95-32.95-71.33-58.82-114.06-76.9-44.24-18.71-91.23-28.2-139.67-28.2s-95.43,9.49-139.67,28.2c-42.73,18.07-81.1,43.95-114.06,76.9-32.95,32.95-58.82,71.33-76.9,114.06-18.71,44.24-28.2,91.23-28.2,139.67s9.49,95.43,28.2,139.67c18.07,42.73,43.94,81.1,76.9,114.06,32.95,32.95,71.33,58.82,114.06,76.9,44.24,18.71,91.23,28.2,139.67,28.2s95.43-9.49,139.67-28.2ZM293.46,786.54c-32.02-32.02-57.16-69.31-74.72-110.83-18.18-42.98-27.4-88.64-27.4-135.71s9.22-92.73,27.4-135.71c17.56-41.52,42.7-78.8,74.72-110.83,32.02-32.02,69.31-57.16,110.83-74.72,42.98-18.18,88.64-27.4,135.71-27.4s92.73,9.22,135.71,27.4c41.52,17.56,78.8,42.7,110.83,74.72,32.02,32.02,57.16,69.31,74.72,110.83,18.18,42.98,27.4,88.64,27.4,135.71s-9.22,92.73-27.4,135.71c-17.56,41.52-42.7,78.8-74.72,110.83-32.02,32.02-69.31,57.16-110.83,74.72-42.98,18.18-88.64,27.4-135.71,27.4s-92.73-9.22-135.71-27.4c-41.52-17.56-78.8-42.7-110.83-74.72Z"/>
</svg>