<?xml version="1.0" encoding="UTF-8"?>
<svg id="Calque_1" data-name="Calque 1" xmlns="http://www.w3.org/2000/svg" viewBox="0 0 913.2 1080">
  <defs>
    <style>
      .cls-1 {
        fill: #fdf5ee;
      }
    </style>
  </defs>
  <g>
    <path class="cls-1" d="M576.25,0c-111.01-.37-152.74,68.07-168.44,120.16-7.1,23.55-8.87,43.77-9.31,52.76v185.35c0,1.34-.05,2.69-.14,4.01-2.06,31-27.85,55.49-59.36,55.49s-59.5-26.63-59.5-59.5v-60.89h-119v60.89s0,177.31,179.09,177.9c111.01.37,152.74-68.08,168.44-120.18,7.1-23.55,8.87-43.76,9.31-52.75,0,0,0-7.91.14-9.73.92-11.9,7.78-56.62,59.36-56.62,59.5,0,59.5,59.5,59.5,59.5v59.49h119v-237.99S755.34.6,576.25,0ZM576.84,237.41c-31.51,0-57.3-24.51-59.36-55.49-.1-1.32-.14-2.66-.14-4.01s.05-2.69.14-4.01c2.06-31,27.85-55.49,59.36-55.49s59.5,26.63,59.5,59.5-26.63,59.5-59.5,59.5Z"/>
    <circle class="cls-1" cx="218.81" cy="180.43" r="59.39"/>
  </g>
  <g>
    <path class="cls-1" d="M183.24,655.22h-35.05l-68.71,186.47h42.12l15.41-42.85h56.93l15.34,42.85h42.39l-68.44-186.47ZM149.97,762.81l15.61-43.31,15.47,43.31h-31.08Z"/>
    <path class="cls-1" d="M368.26,765.45c.2-.13.46-.26.73-.4,10.12-5.36,17.79-12.7,22.75-21.89,4.83-8.86,7.27-18.71,7.27-29.23s-2.38-20.76-7.14-29.49c-4.89-8.99-12.43-16.27-22.42-21.56-9.65-5.09-21.95-7.67-36.5-7.67h-63.74v186.47h39.87v-68.84h18.12l33.86,68.84h45.89l-38.68-76.24ZM331.29,691.99c10.25,0,17.66,1.98,21.42,5.75,3.9,3.9,5.75,9.26,5.75,16.4s-1.98,12.63-6.15,16.99c-3.97,4.1-10.98,6.22-20.83,6.22h-22.42v-45.36h22.22Z"/>
    <g>
      <path class="cls-1" d="M471.87,680.28c0,6.68-2.45,12.56-7.08,17.06-4.5,4.37-10.25,6.68-16.66,6.68s-12.43-2.38-16.86-6.81c-4.5-4.43-6.81-10.31-6.81-16.93s2.38-12.5,7.01-16.86c4.43-4.17,10.25-6.35,16.66-6.35s11.97,2.18,16.47,6.28c4.76,4.36,7.27,10.18,7.27,16.93Z"/>
      <rect class="cls-1" x="428.23" y="726.11" width="39.81" height="115.59"/>
    </g>
    <path class="cls-1" d="M667.34,698.93c-7.67-14.48-18.52-25.99-32.4-34.25-13.75-8.13-30.02-12.3-48.27-12.3s-34.19,4.17-48.01,12.3c-13.82,8.2-24.73,19.71-32.47,34.25-7.67,14.28-11.57,30.95-11.57,49.53s3.9,35.44,11.57,49.79c7.74,14.48,18.65,25.99,32.53,34.12,13.75,8.07,29.89,12.17,47.94,12.17s34.52-4.1,48.27-12.17c13.82-8.13,24.73-19.64,32.4-34.19,7.6-14.28,11.37-31.01,11.37-49.73s-3.77-35.18-11.37-49.53ZM631.77,780.79c-4.36,8.53-10.18,14.94-17.85,19.44-7.8,4.63-16.73,6.88-27.24,6.88s-19.38-2.25-27.18-6.88c-7.67-4.5-13.56-10.91-17.85-19.44-4.43-8.8-6.68-19.71-6.68-32.34s2.25-23.54,6.68-32.33c4.3-8.53,10.12-14.88,17.79-19.31,7.74-4.5,16.86-6.74,27.24-6.74s19.57,2.25,27.31,6.74c7.67,4.43,13.49,10.78,17.79,19.31,4.43,8.8,6.68,19.64,6.68,32.33s-2.25,23.54-6.68,32.34Z"/>
    <path class="cls-1" d="M833.72,788.2c0,9.72-2.58,18.98-7.67,27.57-5.16,8.6-12.76,15.6-22.55,20.9-9.65,5.22-21.75,7.87-35.91,7.87s-25.85-2.58-36.24-7.67c-10.71-5.29-19.11-12.76-25-22.29-5.88-9.46-8.86-20.5-8.86-32.8v-9.92h40.73v9.92c0,4.83,1.12,9.19,3.31,13.16,2.12,3.9,5.22,6.88,9.39,9.26,4.23,2.38,9.85,3.57,16.66,3.57,6.02,0,11.04-.93,15.01-2.71,3.64-1.72,6.22-3.84,8-6.55,1.72-2.64,2.58-5.62,2.58-9.12,0-4.56-.86-8-2.51-10.32-1.92-2.78-4.56-5.03-8-6.81-4.3-2.25-9.32-4.3-14.94-6.02-6.41-1.92-13.09-4.1-20.04-6.55-14.48-4.96-25.13-11.24-32.53-19.11-7.93-8.46-11.97-19.44-11.97-32.6,0-10.91,2.65-20.63,7.8-29.03,5.16-8.4,12.63-15.01,22.09-19.77,9.26-4.5,20.1-6.81,32.4-6.81s23.01,2.31,32.2,7.01c9.39,4.76,16.93,11.37,22.29,19.77,5.49,8.53,8.27,18.38,8.27,29.29v9.92h-40.8v-9.92c0-2.98-.79-5.89-2.38-8.86-1.52-2.91-3.9-5.29-7.21-7.27-3.24-1.98-7.67-2.98-13.09-2.98-4.69-.13-8.66.6-11.9,2.05-3.04,1.39-5.22,3.24-6.81,5.62-1.59,2.31-2.31,5.29-2.31,9.06,0,3.31.59,5.82,1.72,7.47,1.39,1.98,3.5,3.77,6.41,5.29,3.84,2.05,8.46,3.9,13.82,5.69,5.89,1.92,12.43,4.03,19.57,6.41,8.79,2.91,16.73,6.61,23.67,10.85,7.61,4.76,13.69,10.91,18.05,18.25,4.5,7.61,6.74,17.06,6.74,28.17Z"/>
  </g>
  <g>
    <path class="cls-1" d="M136.22,1023.66c0,9.72-2.58,18.98-7.67,27.57-5.16,8.6-12.76,15.6-22.55,20.9-9.65,5.22-21.76,7.87-35.91,7.87s-25.86-2.58-36.24-7.67c-10.71-5.29-19.11-12.76-25-22.29-5.89-9.46-8.86-20.5-8.86-32.8v-9.92h40.73v9.92c0,4.83,1.12,9.19,3.31,13.16,2.12,3.9,5.22,6.88,9.39,9.26,4.23,2.38,9.85,3.57,16.66,3.57,6.02,0,11.04-.93,15.01-2.71,3.64-1.72,6.22-3.84,8-6.55,1.72-2.64,2.58-5.62,2.58-9.12,0-4.56-.86-8-2.51-10.32-1.92-2.78-4.56-5.03-8-6.81-4.3-2.25-9.32-4.3-14.94-6.02-6.41-1.92-13.09-4.1-20.04-6.55-14.48-4.96-25.13-11.24-32.53-19.11-7.93-8.46-11.97-19.44-11.97-32.6,0-10.91,2.65-20.63,7.8-29.03,5.16-8.4,12.63-15.01,22.09-19.77,9.26-4.5,20.1-6.81,32.4-6.81s23.01,2.31,32.2,7.01c9.39,4.76,16.93,11.37,22.29,19.77,5.49,8.53,8.27,18.38,8.27,29.29v9.92h-40.8v-9.92c0-2.98-.79-5.89-2.38-8.86-1.52-2.91-3.9-5.29-7.21-7.27-3.24-1.98-7.67-2.98-13.09-2.98-4.76-.13-8.66.6-11.9,2.05-3.04,1.39-5.22,3.24-6.81,5.62-1.59,2.31-2.31,5.29-2.31,9.06,0,3.31.59,5.82,1.72,7.47,1.39,1.98,3.5,3.77,6.41,5.29,3.84,2.05,8.46,3.9,13.82,5.69,5.88,1.92,12.43,4.03,19.57,6.41,8.79,2.91,16.73,6.61,23.67,10.85,7.6,4.76,13.69,10.91,18.05,18.25,4.5,7.61,6.74,17.06,6.74,28.17Z"/>
    <polygon class="cls-1" points="286.19 890.68 286.19 926.92 236.4 926.92 236.4 1077.16 196.59 1077.16 196.59 926.92 146.87 926.92 146.87 890.68 286.19 890.68"/>
    <path class="cls-1" d="M449.99,890.68v115.12c0,16.47-3.31,30.42-9.72,41.33-6.55,11.11-15.47,19.51-26.58,24.93-10.65,5.29-22.68,7.93-35.78,7.93s-24.86-2.64-35.44-7.93c-11.04-5.42-19.9-13.82-26.45-24.93-6.41-10.91-9.65-24.8-9.65-41.33v-115.12h39.81v115.39c0,9.12,1.45,16.47,4.23,21.82,2.58,4.96,6.02,8.46,10.51,10.71,4.96,2.45,10.84,3.7,17.46,3.7s12.63-1.26,17.39-3.64c4.36-2.25,7.67-5.75,10.18-10.71,2.78-5.36,4.17-12.76,4.17-21.89v-115.39h39.87Z"/>
    <path class="cls-1" d="M627.34,935.12c-7.01-14.28-17.92-25.46-32.4-33.2-14.15-7.47-31.94-11.24-53.03-11.24h-61.1v186.47h61.1c21.09,0,38.88-3.77,52.97-11.11,14.55-7.67,25.46-18.78,32.47-33,6.81-13.69,10.18-30.09,10.18-48.67s-3.37-35.44-10.18-49.26ZM591.56,1015.92c-3.24,7.87-8.6,13.75-16.2,17.99-8.13,4.5-19.51,6.74-33.92,6.74h-20.76v-113.47h20.76c14.42,0,25.79,2.31,33.86,6.81,7.67,4.3,12.96,10.25,16.27,18.25,3.64,8.73,5.42,19.57,5.42,32.14s-1.79,22.88-5.42,31.54Z"/>
    <rect class="cls-1" x="663.44" y="890.68" width="39.81" height="186.47"/>
    <path class="cls-1" d="M901.83,934.39c-7.67-14.48-18.58-25.99-32.4-34.25-13.75-8.13-30.02-12.3-48.27-12.3s-34.25,4.17-48.01,12.3c-13.82,8.2-24.8,19.71-32.53,34.25-7.6,14.28-11.51,30.95-11.51,49.53s3.9,35.44,11.51,49.79c7.8,14.48,18.71,25.99,32.53,34.12,13.82,8.07,29.96,12.17,48.01,12.17s34.45-4.1,48.27-12.17c13.82-8.13,24.73-19.64,32.4-34.19,7.54-14.28,11.37-31.01,11.37-49.73s-3.84-35.18-11.37-49.53ZM866.25,1016.26c-4.36,8.53-10.18,14.94-17.85,19.44-7.8,4.63-16.73,6.88-27.24,6.88s-19.37-2.25-27.18-6.88c-7.74-4.5-13.56-10.91-17.85-19.44-4.43-8.8-6.68-19.71-6.68-32.34s2.25-23.54,6.68-32.33c4.3-8.53,10.12-14.88,17.79-19.31,7.67-4.5,16.86-6.74,27.24-6.74s19.57,2.25,27.31,6.74c7.6,4.43,13.42,10.78,17.79,19.31,4.43,8.8,6.68,19.64,6.68,32.33s-2.25,23.54-6.68,32.34Z"/>
  </g>
</svg>