<?xml version="1.0" encoding="UTF-8"?>
<svg id="Calque_1" data-name="Calque 1" xmlns="http://www.w3.org/2000/svg" viewBox="0 0 1200.36 1080">
  <defs>
    <style>
      .cls-1 {
        fill: #fff;
      }
    </style>
  </defs>
  <path class="cls-1" d="M839.62,0c-223.6-.74-307.67,137.12-339.28,242.04-14.3,47.45-17.87,88.16-18.75,106.27v373.34c0,2.71-.1,5.41-.29,8.07-4.14,62.44-56.09,111.78-119.56,111.78s-119.85-53.65-119.85-119.85v-122.65H2.19v122.65s0,357.15,360.74,358.35c223.6.74,307.67-137.14,339.28-242.07,14.3-47.45,17.87-88.14,18.75-106.24,0,0,0-15.93.29-19.59,1.84-23.97,15.66-114.05,119.56-114.05,119.85,0,119.85,119.85,119.85,119.85v119.82h239.7v-479.37S1200.36,1.2,839.62,0ZM840.82,478.2c-63.47,0-115.42-49.36-119.56-111.78-.19-2.66-.29-5.37-.29-8.07s.1-5.41.29-8.07c4.14-62.44,56.09-111.78,119.56-111.78s119.85,53.65,119.85,119.85-53.65,119.85-119.85,119.85Z"/>
  <path class="cls-1" d="M119.64,483.08C53.55,483.08,0,429.52,0,363.44s53.55-119.64,119.64-119.64,119.64,53.58,119.64,119.64-53.58,119.64-119.64,119.64Z"/>
</svg>