<?xml version="1.0" encoding="UTF-8"?>
<svg id="Calque_1" data-name="Calque 1" xmlns="http://www.w3.org/2000/svg" viewBox="0 0 1023.42 1080">
  <defs>
    <style>
      .cls-1 {
        fill: #fff;
      }
    </style>
  </defs>
  <path class="cls-1" d="M694.93,186.11c-185.07-.61-254.65,113.49-280.82,200.33-11.83,39.27-14.79,72.97-15.52,87.96v309c0,2.24-.08,4.48-.24,6.68-3.43,51.68-46.43,92.51-98.96,92.51s-99.2-44.4-99.2-99.2v-101.51H1.82v101.51s0,295.6,298.58,296.59c185.07.61,254.65-113.51,280.82-200.35,11.83-39.27,14.79-72.95,15.52-87.94,0,0,0-13.18.24-16.22,1.53-19.84,12.96-94.4,98.96-94.4,99.2,0,99.2,99.2,99.2,99.2v99.18h198.39v-396.76s0-295.6-298.58-296.59ZM695.92,581.9c-52.53,0-95.53-40.86-98.96-92.51-.16-2.2-.24-4.44-.24-6.68s.08-4.48.24-6.68c3.43-51.68,46.43-92.51,98.96-92.51s99.2,44.4,99.2,99.2-44.4,99.2-99.2,99.2Z"/>
  <path class="cls-1" d="M99.02,585.94c54.68,0,99.02-44.33,99.02-99.02s-44.35-99.02-99.02-99.02S0,432.25,0,486.92s44.33,99.02,99.02,99.02Z"/>
  <path class="cls-1" d="M380.97,163.58c7.6,1.76,16.53,1.33,26.55-1.26,4.25-1.1,8.26-2.12,12.05-3.06,3.63-.9,7.01-1.49,10.02-1.76,2.73-.24,5.22.03,7.39.81,1.97.71,3.57,2.05,4.9,4.1,1.22,1.88,1.77,3.62,1.68,5.32-.1,1.8-.7,3.47-1.83,5.12-1.22,1.77-2.98,3.41-5.25,4.88-2.67,1.73-5.35,2.74-7.95,2.98-2.59.24-4.95-.14-7.21-1.17-2.25-1.03-4.13-2.65-5.75-4.97l-1.72-2.46-28.56,18.51,1.87,2.64c5.22,7.37,11.45,12.56,18.53,15.42,4.72,1.92,9.71,2.87,14.89,2.87,2.58,0,5.21-.24,7.87-.71,7.86-1.4,15.7-4.61,23.31-9.54,8.35-5.41,14.52-11.57,18.32-18.3,3.83-6.78,5.68-13.8,5.51-20.86-.17-7.08-2.23-13.71-6.12-19.71-4.42-6.83-9.58-11.48-15.32-13.82-5.58-2.27-11.61-3.19-17.94-2.75-6.02.43-12.34,1.48-18.86,3.13-3.77,1.09-7.31,2.02-10.55,2.76-3.12.72-5.99,1.17-8.53,1.33-2.23.15-4.22-.13-5.94-.83-1.57-.64-2.83-1.73-3.88-3.34-1.09-1.68-1.57-3.25-1.47-4.81.1-1.67.64-3.17,1.64-4.6,1.06-1.51,2.56-2.85,4.46-3.97l.11-.07c2.06-1.33,4.14-2.08,6.17-2.2,2.09-.12,3.99.21,5.78,1.03,1.76.8,3.19,1.99,4.36,3.63l1.73,2.42,28.65-18.57-1.83-2.64c-4.55-6.56-10.19-11.27-16.76-13.99-6.54-2.71-13.63-3.5-21.06-2.33-7.29,1.15-14.7,4.14-22.03,8.89-7.13,4.62-12.8,10.08-16.85,16.2-4.14,6.25-6.34,12.96-6.56,19.92-.21,7.02,1.89,13.99,6.25,20.72,5.28,8.15,11.98,13.21,19.9,15.04Z"/>
  <polygon class="cls-1" points="490.36 66.49 524.28 161.16 554.66 150.27 520.74 55.6 553.93 43.7 544.74 18.06 447.97 52.74 457.16 78.38 490.36 66.49"/>
  <path class="cls-1" d="M597.17,115.36c5.36,7.32,12.29,12.61,20.61,15.73,6.33,2.38,13.14,3.58,20.32,3.58,2.1,0,4.24-.1,6.4-.31,9.53-.91,18.2-3.69,25.78-8.26,7.68-4.64,13.66-11.14,17.77-19.34,4.11-8.19,5.63-18.23,4.53-29.83l-7.33-76.93-32.13,3.06,7.35,77.1c.47,4.92.04,9.2-1.27,12.72-1.26,3.39-3.24,5.95-6.04,7.83-2.89,1.94-6.65,3.14-11.17,3.57-4.3.41-8.1-.07-11.3-1.43-3.11-1.32-5.54-3.46-7.41-6.55-1.95-3.2-3.18-7.33-3.65-12.25l-7.35-77.1-32.13,3.06,7.33,76.93c1.1,11.58,4.36,21.14,9.69,28.42Z"/>
  <path class="cls-1" d="M771.15,137.08c7.57,0,14.45-1.06,20.56-3.17,10.51-3.63,19.04-9.87,25.35-18.55,6.21-8.54,10.45-19.15,12.62-31.54,2.18-12.5,1.79-23.98-1.16-34.12-3-10.31-8.95-19.05-17.69-25.98-8.63-6.85-20.24-11.59-34.49-14.07l-46.18-8.06-21.97,125.9,46.01,8.03c5.98,1.04,11.64,1.56,16.95,1.56ZM757.06,35.16l12.68,2.21c8.77,1.53,15.45,4.13,19.85,7.73,4.31,3.53,6.93,7.85,8.03,13.21,1.15,5.62,1.07,12.31-.25,19.87-1.3,7.45-3.48,13.71-6.47,18.61-2.85,4.67-6.79,7.85-12.03,9.71-5.35,1.9-12.52,2.08-21.29.55l-12.68-2.21,12.16-69.68Z"/>
  <rect class="cls-1" x="801.35" y="83.21" width="127.81" height="32.27" transform="translate(464.05 872.38) rotate(-69.12)"/>
  <path class="cls-1" d="M1016.71,115.6c-5.14-9.94-13.15-18.45-23.78-25.29-10.54-6.78-21.53-10.49-32.67-11.01-11.16-.53-21.84,1.93-31.79,7.3-9.91,5.35-18.47,13.54-25.42,24.36-6.96,10.82-10.87,22-11.63,33.24-.76,11.28,1.44,22.03,6.55,31.95,5.09,9.91,13.02,18.37,23.57,25.16h0c10.64,6.84,21.7,10.59,32.88,11.15,1.04.05,2.07.08,3.1.08,10.08,0,19.72-2.48,28.71-7.38,9.86-5.38,18.38-13.59,25.34-24.4,6.95-10.81,10.89-21.98,11.7-33.18.81-11.25-1.4-22.01-6.55-31.98ZM991.25,144.42c-.72,5.96-3.16,12.21-7.27,18.6-4.11,6.39-8.79,11.21-13.9,14.33-5.02,3.06-10.34,4.57-15.87,4.48-5.52-.08-11.11-1.92-16.63-5.47-5.42-3.49-9.36-7.78-11.73-12.77-2.36-4.98-3.2-10.46-2.5-16.3.72-5.95,3.16-12.2,7.27-18.59,4.11-6.39,8.79-11.21,13.9-14.33,5-3.05,10.29-4.54,15.79-4.41,5.5.13,11.04,1.96,16.46,5.45,5.52,3.55,9.53,7.86,11.93,12.81,2.38,4.92,3.24,10.38,2.54,16.2Z"/>
</svg>