<?xml version="1.0" encoding="UTF-8"?>
<svg id="Calque_1" data-name="Calque 1" xmlns="http://www.w3.org/2000/svg" viewBox="0 0 1031.46 1080">
  <defs>
    <style>
      .cls-1 {
        fill: #fff;
      }
    </style>
  </defs>
  <path class="cls-1" d="M634.53,579.58c60.99,0,60.99,60.99,60.99,60.99v60.98h121.98v-243.94s0-181.75-183.57-182.35c-113.79-.38-156.57,69.78-172.65,123.17-7.28,24.14-9.09,44.86-9.54,54.08v189.98c0,1.38-.05,2.75-.15,4.11-2.11,31.77-28.54,56.88-60.84,56.88s-60.99-27.3-60.99-60.99v-62.41h-121.98v62.41s0,181.74,183.57,182.35c113.79.38,156.57-69.79,172.65-123.18,7.28-24.14,9.09-44.85,9.54-54.07,0,0,0-8.1.15-9.97.94-12.2,7.97-58.04,60.84-58.04ZM573.69,461.71c-.1-1.35-.15-2.73-.15-4.11s.05-2.75.15-4.11c2.11-31.77,28.54-56.88,60.84-56.88s60.99,27.3,60.99,60.99-27.3,60.99-60.99,60.99-58.73-25.12-60.84-56.88Z"/>
  <circle class="cls-1" cx="267.54" cy="460.19" r="60.88"/>
  <path class="cls-1" d="M107.34,411.97l-20.4-18.29,16.07-38.14,27.34,1.83,12.05-28.58-130.05-6.45-12.35,29.3,95.43,88.59,11.92-28.27ZM39.65,351.29l38.61,2.59-9.79,23.24-28.81-25.83Z"/>
  <path class="cls-1" d="M164.83,301.91l-36.04-27.85,7.09-9.18,48.87,11.24,20.22-26.17-54.08-11.08c.25-.97.45-1.94.61-2.89,1.24-7.41.51-14.25-2.18-20.32-2.67-6.02-6.67-11.12-11.9-15.16-5.59-4.32-11.76-7.01-18.34-7.98-6.62-.97-13.45.13-20.29,3.28-6.79,3.13-13.29,8.67-19.31,16.47l-29.33,37.95,96.81,74.81,17.87-23.12ZM87.79,242.38l10.53-13.63c3.53-4.56,7.17-7.11,10.82-7.58,3.71-.48,7.28.66,10.91,3.47,3.73,2.88,5.79,6.11,6.31,9.86.51,3.68-1.02,7.86-4.54,12.42l-10.53,13.63-23.5-18.16Z"/>
  <polygon class="cls-1" points="214.93 243.78 236.58 224.15 179.27 163.84 157.63 183.47 214.93 243.78"/>
  <path class="cls-1" d="M212.33,160.44c6.25,10.65,14.12,18.84,23.4,24.35,9.19,5.46,19.19,8.22,29.72,8.22.12,0,.25,0,.37,0,10.66-.06,21.32-3.18,31.69-9.27h0c10.47-6.14,18.46-13.97,23.77-23.27,5.31-9.31,7.84-19.51,7.51-30.29-.33-10.75-3.67-21.6-9.91-32.25-6.24-10.64-14.09-18.85-23.32-24.39-9.25-5.55-19.38-8.3-30.11-8.22-10.71.1-21.44,3.26-31.91,9.4-10.37,6.08-18.29,13.87-23.55,23.15-5.26,9.28-7.79,19.47-7.5,30.28.28,10.79,3.59,21.65,9.84,32.3ZM234.73,110.23c2.63-4.91,6.8-9.07,12.4-12.35,5.54-3.25,11.09-4.89,16.5-4.89.16,0,.32,0,.48,0,5.55.1,10.87,1.82,15.81,5.11,5.01,3.34,9.49,8.35,13.32,14.88,3.83,6.53,6.02,12.88,6.49,18.88.47,5.93-.61,11.44-3.21,16.38-2.6,4.95-6.8,9.15-12.5,12.5-5.6,3.28-11.27,4.88-16.86,4.73-5.59-.14-10.92-1.89-15.86-5.19-5-3.33-9.48-8.34-13.31-14.87-3.83-6.53-6.02-12.88-6.49-18.88-.47-5.91.62-11.4,3.25-16.29Z"/>
  <path class="cls-1" d="M349.51,83.64c6.36,3.81,14.6,6.05,24.49,6.64,4.1.24,8.17.5,12.11.78,3.69.26,7.06.73,10,1.4,2.76.64,5.13,1.7,7.04,3.17,1.81,1.4,3.03,3.32,3.71,5.87.63,2.35.6,4.35-.08,6.13-.7,1.83-1.88,3.36-3.6,4.68-1.78,1.36-4.04,2.42-6.72,3.14-3.17.85-6.13.99-8.8.39-2.64-.58-4.94-1.77-6.85-3.52-1.91-1.74-3.3-4.04-4.15-6.83l-.54-1.77-29.87,8.02.59,1.9c2.56,8.19,6.67,14.7,12.21,19.34,5.53,4.64,12.23,7.53,19.9,8.58,2.38.33,4.81.49,7.29.49,5.39,0,11-.77,16.75-2.32h0c9.2-2.47,16.6-6.24,22.01-11.22,5.43-5,9.15-10.78,11.06-17.18,1.9-6.41,1.98-12.98.23-19.51-2-7.43-5.26-13.1-9.7-16.85-4.36-3.67-9.53-6.26-15.36-7.7-5.66-1.39-11.76-2.3-18.2-2.72-3.82-.12-7.4-.32-10.67-.61-3.16-.27-6.02-.73-8.49-1.36-2.28-.58-4.19-1.51-5.7-2.78-1.44-1.21-2.41-2.79-2.96-4.82-.57-2.12-.53-3.95.12-5.6.68-1.71,1.74-3.1,3.27-4.26,1.57-1.18,3.5-2.04,5.76-2.54l.08-.02c2.5-.67,4.84-.73,6.95-.19,2.16.56,3.97,1.52,5.53,2.94,1.52,1.39,2.62,3.13,3.27,5.16l.55,1.74,30-8.05-.57-1.89c-2.19-7.24-5.89-13.13-11-17.48-5.1-4.34-11.25-7.11-18.28-8.22-6.95-1.1-14.57-.56-22.64,1.61-7.85,2.11-14.61,5.39-20.08,9.76-5.55,4.43-9.49,9.82-11.7,16.01-2.23,6.23-2.36,13.1-.39,20.43,2.38,8.85,6.9,15.33,13.44,19.24Z"/>
  <path class="cls-1" d="M515.47,120.56c6.84,3.38,14.71,5.35,23.38,5.86,1.49.09,2.94.13,4.37.13,7.67,0,14.41-1.28,20.06-3.82,6.74-3.03,12.09-7.34,15.92-12.81,3.83-5.48,5.98-11.69,6.38-18.43.46-7.68-.85-14.09-3.88-19.05-2.98-4.86-7.06-8.95-12.14-12.16-4.93-3.1-10.43-5.9-16.41-8.34-3.59-1.32-6.93-2.65-9.93-3.95-2.92-1.26-5.48-2.59-7.62-3.97-1.98-1.27-3.5-2.76-4.53-4.44-.99-1.61-1.4-3.41-1.28-5.51.13-2.19.75-3.92,1.89-5.28,1.18-1.41,2.63-2.39,4.45-3,1.86-.63,3.97-.83,6.27-.59h.08c2.58.16,4.82.84,6.66,2.02,1.88,1.21,3.29,2.7,4.32,4.54,1,1.8,1.5,3.79,1.47,5.93l-.02,1.83,31,1.84.05-1.97c.21-7.57-1.44-14.31-4.91-20.06-3.46-5.73-8.43-10.3-14.75-13.58-6.25-3.24-13.64-5.13-21.99-5.62-8.12-.49-15.56.5-22.14,2.92-6.66,2.45-12.1,6.32-16.16,11.5-4.08,5.21-6.37,11.69-6.82,19.26-.54,9.15,1.7,16.72,6.67,22.5,4.83,5.63,11.94,10.35,21.14,14.04,3.83,1.54,7.62,3.07,11.25,4.56,3.42,1.41,6.46,2.92,9.04,4.49,2.42,1.48,4.33,3.24,5.68,5.23,1.28,1.9,1.82,4.11,1.67,6.74-.14,2.43-.8,4.32-2.01,5.79-1.23,1.5-2.88,2.61-4.89,3.31-2.12.74-4.6,1.03-7.37.86-3.28-.19-6.13-1-8.47-2.41-2.32-1.39-4.13-3.24-5.39-5.5-1.26-2.25-1.86-4.88-1.78-7.79l.05-1.85-30.87-1.83-.04,1.99c-.16,8.58,1.69,16.05,5.47,22.21,3.78,6.15,9.22,11.01,16.17,14.43Z"/>
  <polygon class="cls-1" points="620.31 137.16 648.31 145.52 676.36 51.59 709.3 61.42 716.25 38.13 622.38 10.1 615.43 33.39 648.36 43.23 620.31 137.16"/>
  <path class="cls-1" d="M703.72,144.06c-.02,8.61,2.31,16.57,6.91,23.65,4.56,7.01,10.86,12.94,18.73,17.65,7.86,4.71,16.12,7.48,24.54,8.25,1.38.13,2.75.19,4.12.19,7.04,0,13.88-1.67,20.39-4.99,7.77-3.96,14.61-10.82,20.34-20.39l38.11-63.68-25.07-15.01-38.2,63.82c-2.56,4.28-5.48,7.51-8.69,9.61-3.15,2.06-6.4,3-9.93,2.84-3.57-.16-7.39-1.44-11.36-3.81-3.77-2.26-6.61-4.96-8.44-8.04-1.81-3.04-2.52-6.34-2.19-10.09.34-3.81,1.8-7.92,4.37-12.2l38.2-63.82-25.07-15.01-38.11,63.68c-5.72,9.56-8.63,18.75-8.65,27.34Z"/>
  <path class="cls-1" d="M815.06,249.81c9.79,10.22,19.85,16.99,29.91,20.12,5.11,1.59,10.2,2.38,15.25,2.38s9.87-.77,14.7-2.3c9.64-3.07,18.96-8.86,27.69-17.22,8.81-8.43,15.04-17.53,18.53-27.04,3.52-9.6,3.88-19.68,1.09-29.94-2.77-10.18-9.06-20.44-18.68-30.5l-30.83-32.2-88.37,84.61,30.71,32.08ZM823.09,221.09l51.42-49.23,9.45,9.87c6.14,6.41,9.97,12.48,11.39,18.03,1.41,5.51.95,10.67-1.39,15.76-2.4,5.21-6.41,10.53-11.92,15.8-5.43,5.19-10.87,8.93-16.18,11.1-5.12,2.09-10.43,2.33-15.8.71-5.48-1.66-11.38-5.75-17.52-12.17l-9.45-9.87Z"/>
  <rect class="cls-1" x="861.17" y="271.74" width="122.34" height="29.22" transform="translate(-8.17 544.93) rotate(-32.78)"/>
  <path class="cls-1" d="M1026.76,353.4c-4.29-11.23-10.66-20.33-18.95-27.05-8.29-6.72-17.92-10.89-28.63-12.39-10.68-1.5-21.95-.03-33.48,4.38-11.54,4.41-20.91,10.82-27.87,19.06-6.98,8.26-11.38,17.79-13.07,28.33-1.69,10.52-.38,21.56,3.91,32.79h0c4.33,11.34,10.73,20.51,19.03,27.28,8.31,6.78,17.95,10.95,28.64,12.4,2.62.36,5.27.53,7.96.53,8.24,0,16.78-1.67,25.48-4.99,11.53-4.4,20.92-10.79,27.9-18.97,7-8.21,11.4-17.74,13.08-28.34,1.67-10.58.32-21.69-4.01-33.02ZM1003.7,380.54c-1.01,5.46-3.59,10.42-7.65,14.75-4.12,4.39-9.8,7.98-16.87,10.68-7.08,2.7-13.7,3.81-19.69,3.29-5.92-.52-11.18-2.49-15.63-5.87-4.45-3.38-7.91-8.22-10.26-14.39-2.32-6.06-2.95-11.92-1.89-17.41,1.06-5.49,3.67-10.46,7.73-14.79,4.11-4.38,9.79-7.97,16.87-10.68,5.94-2.27,11.56-3.41,16.76-3.41.99,0,1.97.04,2.93.13,5.91.51,11.13,2.5,15.53,5.89,4.41,3.4,7.82,8.21,10.14,14.27,2.36,6.17,3.04,12.08,2.02,17.55Z"/>
  <path class="cls-1" d="M27.42,504.02c-2.16-1.38-4.6-2.13-7.33-2.25-2.65-.12-5.11.42-7.38,1.61-2.27,1.19-4.09,2.86-5.47,5.02-1.38,2.15-2.13,4.52-2.24,7.09-.12,2.73.41,5.23,1.6,7.5,1.19,2.27,2.86,4.09,5.02,5.47,2.15,1.38,4.56,2.13,7.21,2.25,2.73.12,5.23-.42,7.5-1.6,2.27-1.19,4.09-2.86,5.47-5.02,1.38-2.16,2.13-4.6,2.25-7.33.11-2.57-.43-4.99-1.62-7.26-1.19-2.27-2.86-4.09-5.02-5.47Z"/>
  <path class="cls-1" d="M22.99,646.19c-2.63-.27-4.75-1.29-6.36-3.06-1.61-1.78-2.64-4.26-3.07-7.47-.41-3.05-.07-5.74,1.04-8.06,1.11-2.33,2.87-4.22,5.29-5.69,2.42-1.47,5.38-2.44,8.89-2.91,3.61-.49,6.78-.35,9.5.42,2.72.77,4.94,2.13,6.65,4.07,1.71,1.94,2.78,4.44,3.19,7.49.43,3.2.03,5.89-1.2,8.05-1.24,2.16-3.16,3.73-5.77,4.7l1.71,12.59c5.86-1.83,10.16-5.08,12.9-9.75,2.73-4.67,3.65-10.31,2.76-16.92-.73-5.39-2.54-9.88-5.44-13.48-2.9-3.6-6.56-6.15-10.98-7.68-4.43-1.52-9.39-1.91-14.88-1.17-5.39.73-10.02,2.42-13.88,5.07-3.86,2.65-6.69,6.08-8.47,10.31-1.78,4.23-2.31,9.04-1.58,14.43.9,6.61,3.24,11.81,7.05,15.59,3.8,3.78,8.59,5.8,14.38,6.05l-1.71-12.59Z"/>
  <path class="cls-1" d="M50.8,721.66c5.3-1.45,9.66-3.84,13.09-7.14,3.43-3.31,5.74-7.26,6.93-11.84,1.19-4.58,1.07-9.47-.35-14.67-1.41-5.15-3.8-9.37-7.15-12.69-3.36-3.31-7.36-5.52-12-6.65-4.65-1.12-9.62-.95-14.91.5-5.3,1.45-9.65,3.85-13.08,7.18-3.42,3.33-5.73,7.28-6.93,11.84-1.2,4.56-1.09,9.41.32,14.56,1.43,5.2,3.82,9.46,7.18,12.8,3.36,3.33,7.36,5.55,12,6.64,4.64,1.1,9.6.92,14.9-.54ZM26.74,700.01c-.83-3.02-.86-5.83-.08-8.44.77-2.61,2.24-4.86,4.41-6.76,2.17-1.9,4.98-3.32,8.45-4.27,3.46-.95,6.61-1.16,9.44-.64,2.83.53,5.23,1.72,7.21,3.57,1.97,1.85,3.37,4.29,4.2,7.31.84,3.07.89,5.9.14,8.5-.75,2.6-2.21,4.85-4.37,6.75-2.17,1.9-4.98,3.32-8.45,4.27-3.46.95-6.61,1.16-9.44.64-2.83-.53-5.25-1.71-7.24-3.56-2-1.85-3.42-4.3-4.26-7.37Z"/>
  <polygon class="cls-1" points="94.01 756.22 61.47 770 84.79 734.46 80.29 723.83 30.67 744.84 35.17 755.48 67.63 741.73 44.39 777.24 48.89 787.87 98.51 766.85 94.01 756.22"/>
  <path class="cls-1" d="M90.49,826.96c-2.53.76-4.88.63-7.05-.39-2.17-1.02-4.07-2.93-5.7-5.72-1.55-2.66-2.26-5.27-2.13-7.85.13-2.57,1.03-5,2.7-7.28,1.67-2.28,4.03-4.32,7.09-6.1,3.15-1.84,6.12-2.92,8.93-3.26,2.81-.33,5.37.07,7.7,1.21,2.33,1.14,4.27,3.03,5.82,5.69,1.63,2.79,2.29,5.42,1.98,7.89-.31,2.47-1.49,4.66-3.52,6.56l6.41,10.97c4.71-3.94,7.43-8.59,8.16-13.95.73-5.36-.59-10.92-3.95-16.68-2.74-4.7-6.14-8.15-10.2-10.36-4.05-2.21-8.42-3.17-13.09-2.87-4.67.29-9.4,1.84-14.19,4.63-4.7,2.74-8.32,6.08-10.87,10.01-2.55,3.93-3.84,8.18-3.86,12.77-.02,4.59,1.34,9.23,4.08,13.93,3.36,5.76,7.53,9.66,12.49,11.69,4.96,2.03,10.16,2.06,15.6.07l-6.41-10.97Z"/>
  <polygon class="cls-1" points="116.49 855.43 129.85 873.22 136.99 867.86 123.64 850.07 133.8 842.45 148.53 862.09 155.99 856.5 134.32 827.62 91.21 859.96 112.88 888.84 120.33 883.25 105.6 863.6 116.49 855.43"/>
  <path class="cls-1" d="M182.83,898.45c.89-2.78.89-5.74,0-8.88-.88-3.14-2.8-6.31-5.77-9.5l-14.29-15.41-39.51,36.64,7.85,8.47,14.67-13.61,6.44,6.94c3.07,3.31,6.18,5.49,9.31,6.53,3.14,1.04,6.11,1.19,8.92.44,2.81-.75,5.28-2.12,7.43-4.11,2.41-2.23,4.05-4.74,4.94-7.52ZM169.88,897.33c-1.69,1.57-3.5,2.34-5.43,2.3-1.92-.04-3.91-1.16-5.97-3.38l-5.92-6.38,11.18-10.36,5.92,6.38c2.06,2.22,3.05,4.27,2.98,6.16-.07,1.89-.99,3.65-2.76,5.29Z"/>
  <polygon class="cls-1" points="220.69 933.6 226.81 926.58 194.55 898.45 188.43 905.46 200.21 915.74 170.91 949.33 179.61 956.92 208.91 923.33 220.69 933.6"/>
  <rect class="cls-1" x="195.63" y="950.9" width="53.89" height="11.55" transform="translate(-677.92 564.4) rotate(-53.36)"/>
  <path class="cls-1" d="M285.16,968.72c-2.28-4.15-5.73-7.62-10.34-10.42-4.56-2.77-9.2-4.2-13.91-4.3-4.71-.1-9.14,1.04-13.29,3.41-4.15,2.38-7.64,5.91-10.49,10.61-2.85,4.69-4.37,9.43-4.57,14.2-.2,4.77.84,9.23,3.1,13.36,2.26,4.14,5.67,7.59,10.24,10.36,4.61,2.8,9.28,4.25,14.01,4.36,4.73.11,9.16-1.02,13.29-3.41,4.12-2.39,7.61-5.93,10.46-10.63,2.85-4.69,4.38-9.42,4.6-14.18.22-4.76-.81-9.21-3.1-13.36ZM276.79,981.25c-.27,2.87-1.34,5.84-3.2,8.91-1.87,3.07-4.01,5.39-6.43,6.95-2.42,1.56-4.99,2.36-7.71,2.39-2.72.03-5.44-.78-8.16-2.43-2.68-1.62-4.63-3.65-5.86-6.08-1.23-2.43-1.71-5.07-1.44-7.94.27-2.87,1.34-5.84,3.2-8.91,1.86-3.07,4.01-5.39,6.43-6.95,2.42-1.56,4.98-2.35,7.69-2.36,2.71,0,5.4.8,8.07,2.43,2.72,1.65,4.7,3.68,5.94,6.08,1.24,2.41,1.73,5.04,1.46,7.91Z"/>
  <polygon class="cls-1" points="324.55 1024.08 317.12 982.23 306.54 977.59 284.88 1026.93 295.46 1031.57 309.63 999.29 317.1 1041.07 327.67 1045.71 349.33 996.37 338.76 991.73 324.55 1024.08"/>
  <path class="cls-1" d="M419.85,1019.75c-3.5-3.1-8.28-5.34-14.33-6.74l-18.9-4.36-12.1,52.51,18.83,4.34c6.15,1.42,11.47,1.48,15.95.2,4.48-1.28,8.14-3.67,10.97-7.15,2.83-3.48,4.85-7.85,6.06-13.1,1.22-5.3,1.32-10.14.3-14.51-1.02-4.37-3.28-8.1-6.78-11.2ZM414.85,1042.81c-.79,3.45-1.97,6.3-3.51,8.55-1.55,2.25-3.65,3.77-6.3,4.55-2.66.78-6.04.7-10.14-.24l-6.9-1.59,7.66-33.23,6.9,1.59c4.1.94,7.17,2.35,9.22,4.22,2.04,1.87,3.27,4.15,3.68,6.85.4,2.7.2,5.8-.6,9.3Z"/>
  <polygon class="cls-1" points="443.96 1014.9 455.07 1016.43 459.61 993.19 445.78 991.28 443.96 1014.9"/>
  <path class="cls-1" d="M483.72,1024.64l-22.13,52.91,12.07.56,4.61-11.57,20.03.94,3.5,11.95,12.23.57-17.09-54.75-13.23-.62ZM481.77,1057.76l7.89-19.82,6,20.47-13.89-.65Z"/>
  <path class="cls-1" d="M563.43,1031.37c-1.6-2.44-3.9-4.3-6.89-5.59-2.99-1.29-6.67-1.79-11.02-1.5l-20.97,1.4,3.6,53.77,11.52-.77-1.34-19.97,9.45-.63c4.5-.3,8.15-1.34,10.94-3.12,2.79-1.78,4.77-4,5.96-6.65,1.18-2.65,1.68-5.44,1.48-8.35-.22-3.28-1.13-6.14-2.73-8.57ZM552.78,1046.39c-1.24,1.47-3.37,2.31-6.39,2.51l-8.68.58-1.02-15.21,8.68-.58c3.02-.2,5.24.32,6.66,1.56,1.42,1.24,2.21,3.07,2.37,5.47.15,2.3-.39,4.19-1.63,5.66Z"/>
  <path class="cls-1" d="M613.11,1023.24c-1.86-2.25-4.34-3.86-7.45-4.82-3.11-.96-6.82-1.07-11.11-.31l-20.7,3.65,9.35,53.07,11.37-2-3.47-19.71,9.33-1.64c4.45-.78,7.96-2.21,10.54-4.28,2.58-2.07,4.32-4.49,5.21-7.25.89-2.76,1.09-5.59.58-8.47-.57-3.23-1.78-5.98-3.64-8.23ZM604.14,1039.32c-1.07,1.6-3.1,2.66-6.08,3.18l-8.57,1.51-2.64-15.01,8.57-1.51c2.98-.53,5.25-.25,6.79.84,1.55,1.08,2.53,2.81,2.95,5.19.4,2.27.06,4.21-1.01,5.81Z"/>
  <polygon class="cls-1" points="645.86 1052.53 633.51 1009.3 622.41 1012.47 637.2 1064.28 670.66 1054.73 668.21 1046.14 645.86 1052.53"/>
  <rect class="cls-1" x="674.65" y="995.56" width="11.55" height="53.89" transform="translate(-311.92 298.81) rotate(-20.26)"/>
  <path class="cls-1" d="M736.14,1008.75c.55,2.58.22,4.91-.98,6.99-1.2,2.08-3.26,3.81-6.18,5.2-2.78,1.32-5.45,1.81-8,1.46-2.55-.35-4.9-1.45-7.03-3.31-2.13-1.85-3.96-4.38-5.48-7.58-1.56-3.29-2.39-6.35-2.49-9.17-.09-2.82.52-5.35,1.85-7.57,1.33-2.22,3.38-4,6.16-5.32,2.92-1.39,5.6-1.82,8.03-1.31,2.43.52,4.51,1.87,6.24,4.07l11.47-5.46c-3.53-5.03-7.93-8.13-13.21-9.32-5.28-1.18-10.93-.34-16.96,2.52-4.91,2.34-8.64,5.43-11.18,9.28-2.54,3.85-3.87,8.12-3.97,12.8-.1,4.68,1.04,9.52,3.42,14.53,2.34,4.91,5.35,8.81,9.05,11.68,3.7,2.87,7.83,4.52,12.4,4.93,4.57.41,9.31-.55,14.23-2.89,6.02-2.87,10.26-6.68,12.71-11.46,2.45-4.77,2.91-9.95,1.39-15.54l-11.47,5.46Z"/>
  <path class="cls-1" d="M753.85,956.83l12.54,55.96,10.18-6.52-2.94-12.11,16.89-10.82,9.77,7.73,10.31-6.6-45.6-34.78-11.15,7.14ZM783.11,977.48l-11.71,7.5-5.03-20.73,16.73,13.23Z"/>
  <polygon class="cls-1" points="820.3 919.79 814.5 912.5 781.01 939.16 786.81 946.45 799.04 936.71 826.79 971.59 835.83 964.4 808.07 929.52 820.3 919.79"/>
  <rect class="cls-1" x="837.55" y="895.17" width="11.55" height="53.89" transform="translate(-402.27 822.26) rotate(-42.97)"/>
  <path class="cls-1" d="M893.29,869.19c-4.1-3.65-8.47-6.01-13.11-7.09-4.64-1.08-9.21-.87-13.7.63-4.49,1.5-8.53,4.26-12.12,8.28-3.55,3.99-5.8,8.29-6.75,12.9-.95,4.62-.63,9.18.96,13.68,1.59,4.51,4.43,8.59,8.53,12.24,4.1,3.65,8.48,6.01,13.14,7.06,4.66,1.06,9.23.85,13.7-.63,4.48-1.48,8.49-4.21,12.04-8.19,3.58-4.02,5.86-8.35,6.83-12.99.97-4.63.65-9.2-.96-13.68-1.6-4.49-4.46-8.56-8.56-12.21ZM892.09,893.58c-.46,2.68-1.75,5.21-3.87,7.58-2.08,2.34-4.43,3.89-7.04,4.66-2.61.77-5.3.76-8.07-.02-2.77-.78-5.5-2.37-8.18-4.76-2.68-2.39-4.57-4.91-5.67-7.58-1.1-2.66-1.41-5.32-.93-7.99.48-2.66,1.76-5.16,3.85-7.5,2.12-2.38,4.47-3.96,7.06-4.74,2.59-.79,5.27-.79,8.04,0,2.77.78,5.5,2.37,8.18,4.76,2.68,2.39,4.57,4.92,5.67,7.58,1.1,2.66,1.42,5.33.96,8.01Z"/>
  <polygon class="cls-1" points="898.84 814.18 928.08 834.02 885.57 833.73 879.08 843.28 923.67 873.55 930.15 864 900.98 844.19 943.43 844.44 949.91 834.89 905.33 804.62 898.84 814.18"/>
  <path class="cls-1" d="M962.95,778.33c-2.96-1.54-5.66-2.15-8.11-1.84-2.45.32-4.76,1.2-6.93,2.64-2.17,1.44-4.29,3.16-6.37,5.14-1.24,1.27-2.41,2.41-3.52,3.42-1.11,1.02-2.17,1.85-3.18,2.51-1.01.66-2.03,1.06-3.05,1.19-1.02.13-2.04-.06-3.04-.58-1.05-.55-1.79-1.26-2.22-2.15-.43-.89-.6-1.85-.5-2.87.1-1.02.44-2.04,1.03-3.06.62-1.18,1.41-2.09,2.37-2.72.96-.63,1.99-.99,3.08-1.08,1.09-.1,2.15.09,3.18.57l5.73-10.99c-2.96-1.43-5.88-1.96-8.75-1.61-2.88.35-5.52,1.49-7.94,3.41-2.42,1.92-4.48,4.52-6.19,7.8-1.66,3.19-2.6,6.32-2.81,9.39-.21,3.07.34,5.87,1.67,8.38,1.32,2.51,3.44,4.53,6.36,6.05,3.51,1.83,6.81,2.28,9.93,1.35,3.11-.92,6.25-2.91,9.4-5.96,1.4-1.35,2.73-2.63,3.99-3.82,1.26-1.19,2.48-2.2,3.65-3,1.17-.81,2.36-1.31,3.57-1.52,1.21-.21,2.43,0,3.66.65,1.14.59,1.94,1.36,2.41,2.3.47.94.65,1.97.55,3.11-.1,1.14-.47,2.32-1.11,3.55-.76,1.46-1.71,2.58-2.85,3.38-1.14.8-2.37,1.25-3.71,1.37-1.33.12-2.67-.15-4.02-.79l-5.69,10.92c3.39,1.59,6.64,2.19,9.75,1.78,3.11-.41,5.96-1.68,8.55-3.83,2.6-2.15,4.78-4.93,6.56-8.34,1.94-3.73,2.91-7.21,2.91-10.42,0-3.21-.75-6.06-2.23-8.54-1.49-2.48-3.53-4.4-6.12-5.75Z"/>
  <rect class="cls-1" x="964.51" y="702" width="11.55" height="53.89" transform="translate(-41.04 1399.8) rotate(-70.47)"/>
  <path class="cls-1" d="M1003.35,665.74c-3.5-3.23-7.91-5.52-13.24-6.86-5.33-1.34-10.29-1.41-14.91-.21-4.61,1.2-8.56,3.5-11.85,6.9-3.29,3.41-5.59,7.72-6.9,12.95-1.3,5.18-1.3,10.03,0,14.56,1.3,4.53,3.69,8.43,7.18,11.69,3.5,3.26,7.9,5.56,13.23,6.89,5.33,1.34,10.3,1.4,14.92.18,4.62-1.22,8.57-3.52,11.85-6.9,3.28-3.38,5.57-7.66,6.88-12.84,1.31-5.23,1.32-10.12.03-14.67-1.29-4.56-3.68-8.45-7.18-11.69ZM1000.42,689.57c-.76,3.04-2.12,5.5-4.08,7.39-1.96,1.89-4.34,3.13-7.16,3.72-2.82.59-5.97.45-9.46-.43-3.48-.88-6.33-2.24-8.54-4.09-2.21-1.85-3.71-4.07-4.52-6.65-.81-2.58-.83-5.39-.06-8.43.78-3.09,2.13-5.58,4.06-7.47,1.93-1.9,4.31-3.14,7.13-3.73,2.82-.59,5.97-.44,9.46.43,3.48.88,6.33,2.24,8.54,4.09,2.21,1.85,3.73,4.07,4.56,6.66.83,2.59.86,5.43.08,8.51Z"/>
  <path class="cls-1" d="M1016.05,612.41c-2.26-1.81-4.84-2.89-7.74-3.26-3.31-.41-6.06-.05-8.24,1.1-2.19,1.15-4.05,2.78-5.58,4.89-1.53,2.11-2.92,4.46-4.18,7.04-.72,1.62-1.42,3.09-2.11,4.43-.68,1.34-1.39,2.49-2.1,3.46-.72.97-1.53,1.7-2.44,2.18-.91.48-1.93.65-3.05.51-1.17-.15-2.11-.56-2.83-1.25-.72-.68-1.21-1.52-1.47-2.51-.26-.99-.3-2.07-.1-3.23.17-1.32.59-2.45,1.28-3.37.69-.92,1.52-1.62,2.51-2.09.99-.47,2.05-.66,3.17-.57l1.54-12.3c-3.27-.31-6.19.21-8.77,1.54-2.57,1.33-4.66,3.32-6.26,5.97-1.6,2.64-2.63,5.8-3.09,9.47-.45,3.57-.23,6.83.64,9.78.87,2.95,2.37,5.38,4.48,7.27,2.12,1.89,4.8,3.04,8.06,3.45,3.92.49,7.18-.24,9.78-2.19,2.6-1.95,4.84-4.9,6.73-8.85.84-1.76,1.64-3.41,2.41-4.97.76-1.56,1.56-2.92,2.37-4.09.82-1.16,1.76-2.06,2.82-2.67,1.06-.62,2.28-.84,3.65-.67,1.27.16,2.29.6,3.06,1.31.76.72,1.3,1.62,1.6,2.72.3,1.1.37,2.33.19,3.71-.2,1.63-.7,3.02-1.49,4.16-.79,1.14-1.79,2-3,2.57-1.21.57-2.56.79-4.04.66l-1.53,12.22c3.74.31,6.99-.26,9.76-1.73,2.77-1.46,5-3.65,6.68-6.57,1.68-2.92,2.77-6.29,3.24-10.11.52-4.17.22-7.77-.9-10.78-1.12-3.01-2.81-5.42-5.07-7.23Z"/>
  <path class="cls-1" d="M998.05,530.96c2.26,1.2,4.76,1.74,7.49,1.63,2.65-.11,5.06-.85,7.22-2.22,2.16-1.37,3.84-3.19,5.04-5.46,1.2-2.26,1.74-4.68,1.64-7.25-.11-2.73-.85-5.18-2.23-7.34-1.37-2.16-3.19-3.84-5.46-5.04-2.26-1.2-4.72-1.74-7.37-1.64-2.73.11-5.18.85-7.34,2.23-2.16,1.38-3.84,3.19-5.04,5.46-1.2,2.26-1.74,4.76-1.63,7.49.1,2.57.84,4.94,2.22,7.1,1.38,2.16,3.19,3.84,5.46,5.04Z"/>
  <path class="cls-1" d="M137.93,160.63c2.15,1.38,4.56,2.13,7.21,2.25,2.73.12,5.23-.42,7.5-1.6,2.27-1.19,4.09-2.86,5.47-5.02,1.38-2.15,2.13-4.6,2.25-7.33.14-3.27-.77-6.29-2.72-9.06-.35-.5-.75-.98-1.17-1.42-2.75-2.83-6.1-4.33-10.07-4.51-3.43-.15-6.54.79-9.32,2.82-.97.71-1.84,1.55-2.59,2.48-1.99,2.5-3.05,5.3-3.19,8.41-.12,2.73.42,5.23,1.6,7.5,1.19,2.27,2.86,4.09,5.02,5.48Z"/>
</svg>